<svg width="246" height="208" viewBox="0 0 246 208" fill="none" xmlns="http://www.w3.org/2000/svg">
<path d="M30.6886 142.509H15.26C15.167 142.509 15.0778 142.479 15.012 142.427C14.9463 142.374 14.9093 142.303 14.9093 142.229V123.373H10.3298C10.2639 123.374 10.1991 123.36 10.1432 123.332C10.0872 123.304 10.0425 123.264 10.0142 123.217C9.98017 123.172 9.96216 123.121 9.96216 123.068C9.96216 123.016 9.98017 122.965 10.0142 122.92L22.6377 110.208C22.6713 110.176 22.7131 110.151 22.7604 110.133C22.8076 110.116 22.8591 110.106 22.9112 110.106C22.9633 110.106 23.0148 110.116 23.062 110.133C23.1093 110.151 23.1511 110.176 23.1847 110.208L35.8082 122.92C35.8489 122.961 35.8744 123.011 35.8816 123.063C35.8888 123.115 35.8775 123.168 35.849 123.215C35.8205 123.262 35.7759 123.302 35.7203 123.33C35.6647 123.358 35.6004 123.373 35.5347 123.373H30.9341V142.229C30.9376 142.291 30.9155 142.352 30.8711 142.402C30.8267 142.453 30.7625 142.49 30.6886 142.509ZM15.6247 141.949H30.352V123.094C30.352 123.019 30.389 122.948 30.4547 122.896C30.5205 122.843 30.6097 122.814 30.7027 122.814H34.9105L22.9883 110.835L11.0662 122.814H15.274C15.367 122.814 15.4562 122.843 15.522 122.896C15.5877 122.948 15.6247 123.019 15.6247 123.094V141.949Z" fill="#2A3D63"/>
<path d="M185.564 142.509H170.136C170.043 142.509 169.953 142.479 169.888 142.427C169.822 142.374 169.785 142.303 169.785 142.229V123.373H165.184C165.119 123.373 165.054 123.358 164.999 123.33C164.943 123.302 164.899 123.262 164.87 123.215C164.842 123.168 164.83 123.115 164.838 123.063C164.845 123.011 164.87 122.961 164.911 122.92L177.569 110.208C177.603 110.176 177.645 110.151 177.692 110.133C177.739 110.116 177.791 110.106 177.843 110.106C177.895 110.106 177.947 110.116 177.994 110.133C178.041 110.151 178.083 110.176 178.117 110.208L190.775 122.92C190.816 122.961 190.841 123.011 190.848 123.063C190.856 123.115 190.844 123.168 190.816 123.215C190.787 123.262 190.743 123.302 190.687 123.33C190.632 123.358 190.567 123.373 190.502 123.373H185.901V142.229C185.901 142.301 185.866 142.371 185.803 142.423C185.741 142.475 185.655 142.506 185.564 142.509ZM170.5 141.949H185.228V123.094C185.228 123.019 185.265 122.948 185.33 122.896C185.396 122.843 185.485 122.814 185.578 122.814H189.786L177.864 110.835L165.942 122.814H170.15C170.243 122.814 170.332 122.843 170.398 122.896C170.463 122.948 170.5 123.019 170.5 123.094V141.949Z" fill="#2A3D63"/>
<path d="M224.641 173.814H209.212C209.119 173.814 209.03 173.784 208.964 173.732C208.899 173.679 208.862 173.608 208.862 173.534V154.678H204.282C204.216 154.678 204.152 154.663 204.096 154.635C204.041 154.607 203.996 154.567 203.968 154.52C203.939 154.473 203.928 154.42 203.935 154.368C203.942 154.316 203.968 154.266 204.009 154.225L216.632 141.518C216.666 141.487 216.708 141.461 216.755 141.444C216.802 141.426 216.853 141.417 216.906 141.417C216.958 141.417 217.009 141.426 217.056 141.444C217.104 141.461 217.146 141.487 217.179 141.518L229.803 154.225C229.843 154.266 229.869 154.316 229.876 154.368C229.883 154.42 229.872 154.473 229.843 154.52C229.815 154.567 229.77 154.607 229.715 154.635C229.659 154.663 229.595 154.678 229.529 154.678H224.928V173.534C224.93 173.6 224.902 173.665 224.849 173.716C224.796 173.767 224.723 173.802 224.641 173.814ZM209.584 173.254H224.311V154.398C224.311 154.324 224.348 154.253 224.414 154.201C224.48 154.148 224.569 154.119 224.662 154.119H228.87L216.948 142.14L205.026 154.119H209.233C209.326 154.12 209.414 154.15 209.479 154.202C209.545 154.254 209.582 154.325 209.584 154.398V173.254Z" fill="#2A3D63"/>
<path d="M208.63 100.696H193.201C193.108 100.696 193.019 100.667 192.953 100.614C192.888 100.562 192.851 100.491 192.851 100.416V81.5608H188.25C188.184 81.5611 188.118 81.5459 188.062 81.5171C188.006 81.4883 187.962 81.4471 187.935 81.3985C187.907 81.3508 187.896 81.2979 187.903 81.2455C187.911 81.1932 187.936 81.1435 187.977 81.102L200.6 68.3954C200.634 68.3635 200.677 68.3379 200.725 68.3203C200.772 68.3028 200.824 68.2937 200.877 68.2937C200.93 68.2937 200.982 68.3028 201.03 68.3203C201.077 68.3379 201.12 68.3635 201.154 68.3954L213.778 81.102C213.818 81.1437 213.842 81.1934 213.849 81.2457C213.856 81.2979 213.845 81.3507 213.817 81.3981C213.788 81.4456 213.744 81.4859 213.689 81.5146C213.634 81.5433 213.57 81.5593 213.504 81.5608H208.904V100.416C208.906 100.481 208.879 100.544 208.829 100.595C208.78 100.646 208.709 100.682 208.63 100.696ZM193.573 100.137H208.3V81.281C208.3 81.2068 208.337 81.1357 208.403 81.0832C208.469 81.0308 208.558 81.0013 208.651 81.0013H212.859L200.937 69.0165L189.015 81.0013H193.222C193.315 81.0013 193.405 81.0308 193.47 81.0832C193.536 81.1357 193.573 81.2068 193.573 81.281V100.137Z" fill="#2A3D63"/>
<path d="M62.8714 102.895H47.4427C47.3497 102.895 47.2605 102.866 47.1948 102.813C47.129 102.761 47.0921 102.69 47.0921 102.615V83.7598H42.4985C42.4322 83.7606 42.3669 83.7464 42.3103 83.7188C42.2537 83.6912 42.2081 83.6514 42.1787 83.6039C42.1493 83.5565 42.1374 83.5033 42.1444 83.4507C42.1513 83.3981 42.1769 83.3481 42.218 83.3066L54.8765 70.5944C54.9101 70.5626 54.952 70.5371 54.9992 70.5195C55.0465 70.502 55.0979 70.4929 55.15 70.4929C55.2021 70.4929 55.2536 70.502 55.3009 70.5195C55.3481 70.5371 55.39 70.5626 55.4236 70.5944L68.0821 83.3066C68.1228 83.3477 68.1483 83.3972 68.1555 83.4493C68.1627 83.5014 68.1514 83.5541 68.1229 83.6014C68.0944 83.6486 68.0498 83.6885 67.9942 83.7166C67.9386 83.7446 67.8743 83.7595 67.8086 83.7598H63.208V102.615C63.2081 102.688 63.1731 102.757 63.1103 102.809C63.0476 102.862 62.9619 102.892 62.8714 102.895ZM47.8074 102.336H62.5348V83.48C62.5348 83.4058 62.5717 83.3347 62.6375 83.2822C62.7032 83.2297 62.7924 83.2003 62.8854 83.2003H67.0932L55.1711 71.2211L43.2489 83.2003H47.4567C47.5497 83.2003 47.6389 83.2297 47.7047 83.2822C47.7705 83.3347 47.8074 83.4058 47.8074 83.48V102.336Z" fill="#2A3D63"/>
<path d="M87.4169 173.814H71.9882C71.8952 173.814 71.806 173.784 71.7403 173.732C71.6745 173.679 71.6376 173.608 71.6376 173.534V154.678H67.037C66.9713 154.678 66.907 154.663 66.8514 154.635C66.7958 154.607 66.7512 154.567 66.7227 154.52C66.6942 154.473 66.6829 154.42 66.6901 154.368C66.6973 154.316 66.7228 154.266 66.7635 154.225L79.422 141.518C79.4556 141.487 79.4975 141.461 79.5447 141.444C79.592 141.426 79.6434 141.417 79.6955 141.417C79.7477 141.417 79.7991 141.426 79.8464 141.444C79.8936 141.461 79.9355 141.487 79.9691 141.518L92.6276 154.225C92.6687 154.267 92.6943 154.317 92.7012 154.369C92.7082 154.422 92.6963 154.475 92.6669 154.522C92.6375 154.57 92.5919 154.61 92.5353 154.637C92.4786 154.665 92.4134 154.679 92.3471 154.678H87.7535V173.534C87.7536 173.606 87.7186 173.676 87.6558 173.728C87.5931 173.78 87.5074 173.811 87.4169 173.814ZM72.3529 173.254H87.0803V154.398C87.0803 154.324 87.1172 154.253 87.183 154.201C87.2487 154.148 87.3379 154.119 87.4309 154.119H91.6387L79.7166 142.14L67.7944 154.119H72.0023C72.0953 154.119 72.1844 154.148 72.2502 154.201C72.316 154.253 72.3529 154.324 72.3529 154.398V173.254Z" fill="#2A3D63"/>
<path d="M125.175 208C164.682 208 196.708 205.037 196.708 201.381C196.708 197.725 164.682 194.762 125.175 194.762C85.6686 194.762 53.6422 197.725 53.6422 201.381C53.6422 205.037 85.6686 208 125.175 208Z" fill="#2A3D63"/>
<path opacity="0.5" d="M125.175 208C164.682 208 196.708 205.037 196.708 201.381C196.708 197.725 164.682 194.762 125.175 194.762C85.6686 194.762 53.6422 197.725 53.6422 201.381C53.6422 205.037 85.6686 208 125.175 208Z" fill="white"/>
<path d="M170.949 42.5233C171.909 38.4463 171.338 34.234 169.309 30.4146C167.28 26.5953 163.882 23.339 159.543 21.0539C155.203 18.7689 150.115 17.557 144.915 17.57C139.716 17.5831 134.637 18.8206 130.316 21.1274C127.177 15.0404 121.488 10.0111 114.219 6.89796C106.95 3.78481 98.5524 2.78079 90.4591 4.05726C82.3659 5.33374 75.0787 8.81158 69.8415 13.8972C64.6042 18.9828 61.7416 25.3609 61.7421 31.9428C61.7421 32.2953 61.7421 32.6422 61.7421 32.9891C56.6256 34.1525 52.1659 36.684 49.111 40.1591C46.056 43.6343 44.5916 47.8418 44.9632 52.076C45.3347 56.3103 47.5197 60.3139 51.1518 63.4155C54.7839 66.5172 59.6422 68.5282 64.912 69.1114V69.3072H169.813C174.075 69.1893 178.122 67.7851 181.136 65.3783C184.15 62.9715 185.907 59.7416 186.051 56.3412C186.195 52.9409 184.716 49.6236 181.913 47.0597C179.11 44.4958 175.191 42.8764 170.949 42.5289V42.5233Z" fill="#263238" stroke="#263238" stroke-linecap="round" stroke-linejoin="round"/>
<path d="M170.949 40.0057C171.909 35.9287 171.338 31.7164 169.309 27.8971C167.28 24.0777 163.882 20.8214 159.543 18.5364C155.203 16.2513 150.115 15.0394 144.915 15.0525C139.716 15.0655 134.637 16.3031 130.316 18.6098C127.177 12.5233 121.488 7.49425 114.22 4.38104C106.952 1.26783 98.5554 0.263395 90.4626 1.53914C82.3697 2.81489 75.0826 6.29175 69.8448 11.3764C64.607 16.461 61.7432 22.8382 61.7421 29.4197C61.7421 29.7722 61.7421 30.1191 61.7421 30.466C56.6256 31.6293 52.1659 34.1608 49.111 37.636C46.056 41.1111 44.5916 45.3186 44.9632 49.5529C45.3347 53.7871 47.5197 57.7908 51.1518 60.8924C54.7839 63.994 59.6422 66.005 64.912 66.5882V66.7841H169.813C174.075 66.6661 178.122 65.2619 181.136 62.8551C184.15 60.4483 185.907 57.2184 186.051 53.8181C186.195 50.4177 184.716 47.1004 181.913 44.5365C179.11 41.9726 175.191 40.3533 170.949 40.0057Z" fill="#2A3D63" stroke="#263238" stroke-linecap="round" stroke-linejoin="round"/>
<path d="M134.572 115.009L130.161 116.855C130.161 116.855 125.329 118.534 122.173 119.871C119.017 121.208 103.47 130.77 103.47 130.77L100.321 130.938L98.4272 131.945C98.4272 131.945 95.2714 132.449 95.2714 132.952C95.2714 133.456 95.9025 133.618 96.5337 133.618C97.4834 133.427 98.4014 133.147 99.2688 132.785C99.2688 132.785 97.1298 135.28 97.9714 135.28C99.1899 135.381 100.4 135.536 101.597 135.744C102.989 135.538 104.394 135.388 105.805 135.297C106.857 135.297 109.375 130.77 109.375 130.77C109.375 130.77 127.447 125.069 129.761 123.726C132.076 122.383 138.794 119.032 138.794 119.032L134.572 115.009Z" fill="white" stroke="#263238" stroke-linecap="round" stroke-linejoin="round"/>
<path d="M151.537 101.233L131.837 115.512L137.518 120.878L148.444 117.526L152.224 101.429L151.537 101.233Z" fill="#2A3D63" stroke="#263238" stroke-linecap="round" stroke-linejoin="round"/>
<path d="M134.467 113.61L131.837 115.512L137.518 120.878L140.905 119.837L134.467 113.61Z" fill="#263238" stroke="#263238" stroke-linecap="round" stroke-linejoin="round"/>
<path d="M185.922 190.582C185.922 190.582 192.178 195.774 192.816 198.32C193.454 200.866 191.925 203.11 189.372 202.494C186.82 201.879 184.519 195.573 183.881 194.454C183.243 193.335 182.479 192.11 182.479 192.11C182.479 192.11 184.393 190.073 185.922 190.582Z" fill="#2A3D63" stroke="#263238" stroke-linecap="round" stroke-linejoin="round"/>
<path d="M192.872 198.595C193.335 201.023 191.827 203.071 189.366 202.511C188.475 202.304 187.619 201.392 186.855 200.273C188.524 198.119 191.21 198.237 192.872 198.595Z" fill="white" stroke="#263238" stroke-linecap="round" stroke-linejoin="round"/>
<path d="M185.985 198.802C187.388 200.329 189.169 201.968 190.515 201.683C191.862 201.398 192.57 199.378 192.816 198.326C193.447 200.866 191.918 203.093 189.372 202.483C188.124 202.198 186.946 200.547 185.985 198.802Z" fill="white" stroke="#263238" stroke-linecap="round" stroke-linejoin="round"/>
<path d="M184.646 193.436C184.646 193.436 187.451 192.211 187.584 192.619C187.717 193.027 184.905 194.146 184.519 194.146C184.134 194.146 183.881 194.046 184.646 193.436Z" fill="white" stroke="#263238" stroke-width="0.5" stroke-linecap="round" stroke-linejoin="round"/>
<path d="M185.284 194.146C185.284 194.146 188.089 192.927 188.222 193.335C188.355 193.744 185.543 194.863 185.158 194.863C184.772 194.863 184.519 194.762 185.284 194.146Z" fill="white" stroke="#263238" stroke-width="0.5" stroke-linecap="round" stroke-linejoin="round"/>
<path d="M185.922 194.862C185.922 194.862 188.727 193.637 188.86 194.046C188.994 194.454 186.181 195.573 185.796 195.573C185.41 195.573 185.158 195.472 185.922 194.862Z" fill="white" stroke="#263238" stroke-width="0.5" stroke-linecap="round" stroke-linejoin="round"/>
<path d="M186.56 195.573C186.56 195.573 189.365 194.353 189.499 194.756C189.632 195.159 186.82 196.284 186.434 196.284C186.048 196.284 185.796 196.183 186.56 195.573Z" fill="white" stroke="#263238" stroke-width="0.5" stroke-linecap="round" stroke-linejoin="round"/>
<path d="M135.519 195.254C135.519 195.254 137.96 197.968 138.177 199.506C138.395 201.045 136.775 201.084 134.713 200.911C132.651 200.737 130.189 201.952 127.286 201.89C124.383 201.828 121.023 200.816 122.636 199.713C124.249 198.611 128.457 197.705 129.369 197.073C129.913 196.693 130.424 196.283 130.898 195.847L135.519 195.254Z" fill="#2A3D63" stroke="#263238" stroke-linecap="round" stroke-linejoin="round"/>
<path d="M122.636 199.714C123.203 199.358 123.826 199.063 124.488 198.835C125.229 199.152 125.882 199.586 126.405 200.112C126.929 200.637 127.312 201.242 127.531 201.89H127.279C124.376 201.829 121.023 200.816 122.636 199.714Z" fill="white" stroke="#263238" stroke-linecap="round" stroke-linejoin="round"/>
<path d="M129.635 196.715C129.635 196.715 132.63 197.962 131.873 198.209C131.115 198.455 128.843 197.056 129.635 196.715Z" fill="white" stroke="#263238" stroke-width="0.5" stroke-linecap="round" stroke-linejoin="round"/>
<path d="M128.471 196.967C128.471 196.967 131.466 198.214 130.708 198.46C129.951 198.707 127.679 197.308 128.471 196.967Z" fill="white" stroke="#263238" stroke-width="0.5" stroke-linecap="round" stroke-linejoin="round"/>
<path d="M127.798 197.336C127.798 197.336 130.793 198.583 130.035 198.83C129.278 199.076 127.005 197.677 127.798 197.336Z" fill="white" stroke="#263238" stroke-width="0.5" stroke-linecap="round" stroke-linejoin="round"/>
<path d="M126.578 197.783C126.578 197.783 129.572 199.031 128.815 199.277C128.057 199.524 125.771 198.119 126.578 197.783Z" fill="white" stroke="#263238" stroke-width="0.5" stroke-linecap="round" stroke-linejoin="round"/>
<path d="M122.3 200.055C124.399 201.041 126.897 201.336 129.264 200.877C131.462 200.492 133.694 200.245 135.94 200.139C136.704 200.121 137.462 200.019 138.191 199.837C138.135 201.051 136.62 201.073 134.685 200.911C132.623 200.732 130.161 201.952 127.258 201.89C124.677 201.834 121.732 201.017 122.3 200.055Z" fill="white" stroke="#263238" stroke-linecap="round" stroke-linejoin="round"/>
<path d="M166.187 135.453C166.187 135.453 164.715 151.813 165.605 155.78C166.496 159.747 168.691 171.559 168.691 171.559C168.691 171.559 172.015 173.495 175.332 177.769C178.649 182.044 185.922 190.599 185.922 190.599C185.922 190.599 186.181 192.127 183.881 192.636C183.881 192.636 182.731 193.044 182.093 192.636C181.455 192.227 159.651 176.141 157.077 172.784C154.504 169.427 151.081 148.77 151.081 148.77L147.764 148.261L133.738 169.645L136.179 195.64C136.179 195.64 136.368 196.535 134.776 196.899C133.184 197.263 131.901 197.392 130.947 196.737C129.993 196.082 122.608 167.614 123.232 166.596C123.857 165.578 138.009 137.591 138.009 137.591L139.152 135.252C139.152 135.252 152.554 136.472 158.55 135.554C164.546 134.636 165.682 133.909 166.187 135.453Z" fill="#263238" stroke="#263238" stroke-linecap="round" stroke-linejoin="round"/>
<path d="M147.764 148.244L140.485 146.515" stroke="white" stroke-linecap="round" stroke-linejoin="round"/>
<path d="M146.993 148.552L137.041 147.634" stroke="white" stroke-linecap="round" stroke-linejoin="round"/>
<path d="M163.901 138.62C163.901 138.62 158.515 141.362 163.901 143.191" stroke="white" stroke-linecap="round" stroke-linejoin="round"/>
<path d="M148.655 139.739L147.827 142.38L145.611 144.148L148.374 146.129" stroke="white" stroke-linecap="round" stroke-linejoin="round"/>
<path d="M180.206 108.44C175.297 105.262 169.203 101.424 169.203 101.424C169.203 101.424 156.278 101.189 151.537 101.233L144.875 118.198C144.875 118.198 138.752 135.095 139.005 135.811C139.257 136.528 143.605 138.15 153.304 139.068C163.003 139.985 167.085 136.729 167.33 135.711C167.436 134.788 167.351 133.858 167.078 132.958L170.395 128.275L181.37 113.873C182.032 113.008 182.279 111.981 182.065 110.982C181.851 109.983 181.191 109.08 180.206 108.44Z" fill="#2A3D63" stroke="#263238" stroke-linecap="round" stroke-linejoin="round"/>
<path d="M176.37 105.961C172.611 103.555 169.224 101.424 169.224 101.424C169.224 101.424 164.932 101.345 160.395 101.289C159.244 103.382 157.26 107.657 158.894 109.772C160.885 112.379 167.471 113.157 176.37 105.961Z" fill="#263238" stroke="#263238" stroke-linecap="round" stroke-linejoin="round"/>
<path d="M170.528 83.9777C170.528 83.9777 166.832 84.7946 165.297 86.6242C163.761 88.4539 159.3 99.1518 159.427 100.053C159.553 100.953 165.297 100.053 165.297 100.053C165.297 100.053 161.341 106.672 161.341 107.791C161.341 108.91 163.13 109.525 165.423 109.117C167.716 108.708 175.55 97.9656 175.55 97.9656C175.55 97.9656 177.871 100.114 179.337 99.3756C181.02 98.5307 180.487 96.8298 179.21 96.8298C177.934 96.8298 182.78 92.6558 181.125 89.9086C179.47 87.1614 172.064 83.0657 170.528 83.9777Z" fill="white" stroke="#263238" stroke-linecap="round" stroke-linejoin="round"/>
<path d="M169.126 80.7271C169.126 80.7271 161.98 80.7271 161.594 83.4743C161.208 86.2216 164.918 87.4469 169 86.9377C173.081 86.4286 176.784 86.63 177.296 87.1391C177.808 87.6483 172.317 88.6666 173.593 89.3772C174.335 89.8023 175.233 90.0188 176.146 89.9927C176.146 89.9927 174.358 90.3955 174.484 91.4138C174.61 92.4322 175.725 96.9307 176.588 96.9307C177.45 96.9307 179.183 96.8411 179.183 96.8411C180.798 96.1927 182.266 95.3321 183.524 94.2953C185.438 92.6672 185.943 89.2038 183.524 87.1727C181.104 85.1417 179.182 83.1666 177.268 81.5384C175.353 79.9102 173.565 78.1813 169.736 77.7729C165.907 77.3644 163.894 78.5842 169.126 80.7271Z" fill="#263238" stroke="#263238" stroke-linecap="round" stroke-linejoin="round"/>
<path d="M184.028 91.2517C184.16 91.8482 184.186 92.4566 184.106 93.0589" stroke="white" stroke-linecap="round" stroke-linejoin="round"/>
<path d="M170.914 83.939C170.914 83.939 163.08 84.5488 166.005 85.7406C168.929 86.9324 173.495 84.6999 179.196 86.5015C180.158 86.7787 181.037 87.2137 181.775 87.7785C182.513 88.3432 183.094 89.0252 183.481 89.7803" stroke="white" stroke-linecap="round" stroke-linejoin="round"/>
<path d="M175.669 88.6833C175.669 88.6833 181.02 90.7703 181.728 93.8029" stroke="white" stroke-linecap="round" stroke-linejoin="round"/>
<path d="M165.297 100.07C165.297 100.07 171.426 99.7675 173.081 98.6484" stroke="#263238" stroke-linecap="round" stroke-linejoin="round"/>
<path d="M163.382 95.9962C163.382 95.9962 167.849 97.0145 169.126 94.8772" stroke="#263238" stroke-linecap="round" stroke-linejoin="round"/>
<path d="M168.361 94.4688L170.276 95.0842" stroke="#263238" stroke-linecap="round" stroke-linejoin="round"/>
<path d="M164.785 91.3132C164.785 91.3132 160.829 91.7217 160.829 92.2308C160.829 92.74 163.382 94.1668 163.382 94.1668" fill="white"/>
<path d="M164.785 91.3132C164.785 91.3132 160.829 91.7217 160.829 92.2308C160.829 92.74 163.382 94.1668 163.382 94.1668" stroke="#263238" stroke-linecap="round" stroke-linejoin="round"/>
<path d="M165.29 90.3341C165.107 90.7761 164.736 91.0726 164.455 90.9999C164.175 90.9271 164.104 90.5131 164.294 90.0711C164.483 89.6291 164.848 89.3325 165.128 89.4053C165.409 89.478 165.479 89.8976 165.29 90.3341Z" fill="#263238"/>
<path d="M168.656 91.6938C168.466 92.1358 168.095 92.4323 167.821 92.3596C167.548 92.2868 167.471 91.8672 167.653 91.4308C167.835 90.9944 168.214 90.6922 168.488 90.765C168.761 90.8377 168.831 91.2517 168.656 91.6938Z" fill="#263238"/>
<path d="M168.831 88.8008C168.831 88.8008 170.767 88.9407 170.585 91.0388L168.831 88.8008Z" fill="#263238" stroke="#263238" stroke-linecap="round" stroke-linejoin="round"/>
<path d="M167.078 87.8219C167.078 87.8219 166.019 86.7029 164.616 88.2416L167.078 87.8219Z" fill="#263238" stroke="#263238" stroke-linecap="round" stroke-linejoin="round"/>
<path d="M131.859 50.5804L113.386 32.0325L94.9209 50.5804H102.144V78.5058H124.635V50.5804H131.859Z" fill="#263238" stroke="#263238" stroke-linecap="round" stroke-linejoin="round"/>
<path d="M131.859 49.3775L113.386 30.8296L94.9209 49.3775H102.144V77.3029H124.635V49.3775H131.859Z" fill="white" stroke="#263238" stroke-linecap="round" stroke-linejoin="round"/>
<path d="M149.412 74.1528H74.2957V134.082H149.412V74.1528Z" fill="white" stroke="#263238" stroke-linecap="round" stroke-linejoin="round"/>
<path d="M145.92 76.9395H77.7881V131.296H145.92V76.9395Z" fill="#263238" stroke="#263238" stroke-linecap="round" stroke-linejoin="round"/>
<path d="M130.119 95.2409L114.228 108.49L101.857 105.726C101.247 105.591 100.607 105.567 99.9843 105.656C99.3614 105.745 98.7717 105.945 98.2591 106.241L77.7881 118.108V131.318H145.92V103.343L136.172 95.2353C135.779 94.9116 135.308 94.6543 134.788 94.4788C134.268 94.3033 133.709 94.2131 133.144 94.2136C132.579 94.2141 132.02 94.3054 131.501 94.4819C130.981 94.6583 130.511 94.9165 130.119 95.2409Z" fill="white" stroke="#263238" stroke-linecap="round" stroke-linejoin="round"/>
<path d="M111.003 94.1673C112.806 90.6627 110.707 86.6553 106.314 85.2165C101.922 83.7777 96.8987 85.4524 95.0953 88.957C93.2919 92.4617 95.391 96.4691 99.7838 97.9079C104.177 99.3467 109.199 97.672 111.003 94.1673Z" fill="white" stroke="#263238" stroke-linecap="round" stroke-linejoin="round"/>
<path d="M170.823 111.03L152.049 126.428L123.436 132.717C123.436 132.717 120.883 130.35 119.046 130.334C117.208 130.317 111.289 132.012 111.289 132.012C111.289 132.012 110.539 133.478 111.99 133.489C113.483 133.405 114.964 133.218 116.416 132.93L108.302 134.049C108.399 134.542 108.713 134.991 109.187 135.317C109.661 135.642 110.264 135.824 110.889 135.828H114.543L120.792 136.46L126.704 135.034C126.704 135.034 154.714 132.6 156.194 132.314C157.673 132.029 181.441 115.753 181.441 115.753C181.441 115.753 184.127 113.867 183.103 111.679C182.079 109.492 176.84 107.942 176.84 107.942" fill="white"/>
<path d="M170.823 111.03L152.049 126.428L123.436 132.717C123.436 132.717 120.883 130.35 119.046 130.334C117.208 130.317 111.289 132.012 111.289 132.012C111.289 132.012 110.539 133.478 111.99 133.489C113.483 133.405 114.964 133.218 116.416 132.93L108.302 134.049C108.399 134.542 108.713 134.991 109.187 135.317C109.661 135.642 110.264 135.824 110.889 135.828H114.543L120.792 136.46L126.704 135.034C126.704 135.034 154.714 132.6 156.194 132.314C157.673 132.029 181.441 115.753 181.441 115.753C181.441 115.753 184.127 113.867 183.103 111.679C182.079 109.492 176.84 107.942 176.84 107.942" stroke="#263238" stroke-linecap="round" stroke-linejoin="round"/>
<path d="M167.436 112.636L153.122 124.089L163.747 130.205L182.205 116.335C183.106 115.662 183.691 114.763 183.863 113.788C184.036 112.813 183.785 111.82 183.152 110.974L183.089 110.896C181.765 109.221 179.893 107.867 177.675 106.979" fill="#2A3D63"/>
<path d="M167.436 112.636L153.122 124.089L163.747 130.205L182.205 116.335C183.106 115.662 183.691 114.763 183.863 113.788C184.036 112.813 183.785 111.82 183.152 110.974L183.089 110.896C181.765 109.221 179.893 107.867 177.675 106.979" stroke="#263238" stroke-linecap="round" stroke-linejoin="round"/>
<path d="M163.775 130.205L166.272 128.325L155.591 122.115L153.122 124.09L163.775 130.205Z" fill="#263238" stroke="#263238" stroke-linecap="round" stroke-linejoin="round"/>
<path d="M95.2714 132.952L97.9714 135.28L100.587 135.509L96.5267 132.734L95.2714 132.952Z" fill="white" stroke="#263238" stroke-linecap="round" stroke-linejoin="round"/>
<path d="M100.349 132.952L103.049 135.28L105.658 135.509L101.597 132.734L100.349 132.952Z" fill="white" stroke="#263238" stroke-linecap="round" stroke-linejoin="round"/>
<path d="M100.587 135.509L97.5366 132.387H99.4231L103.196 135.509L101.597 135.744L100.587 135.509Z" fill="white" stroke="#263238" stroke-linecap="round" stroke-linejoin="round"/>
<path d="M94.2056 133.198L95.51 135.162L97.9716 135.28L95.2716 132.952L94.2056 133.198Z" fill="white" stroke="#263238" stroke-linecap="round" stroke-linejoin="round"/>
</svg>
