<svg width="223" height="215" viewBox="0 0 223 215" fill="none" xmlns="http://www.w3.org/2000/svg">
<path d="M137.633 187.913H193.613C194.683 187.913 195.709 187.202 196.465 185.935C197.221 184.669 197.646 182.951 197.646 181.161V7.75264C197.646 5.96173 197.221 4.24417 196.465 2.9778C195.709 1.71144 194.683 1 193.613 1H31.6427C30.5731 1 29.5473 1.71144 28.7909 2.9778C28.0345 4.24417 27.6096 5.96173 27.6096 7.75264V181.161C27.6096 182.951 28.0345 184.669 28.7909 185.935C29.5473 187.202 30.5731 187.913 31.6427 187.913H87.6226" stroke="black" stroke-linecap="round" stroke-linejoin="round"/>
<path d="M186.775 8.56299H38.1589C34.2929 8.56299 31.1589 11.697 31.1589 15.563V160.925C31.1589 164.791 34.2929 167.925 38.1589 167.925H186.775C190.641 167.925 193.775 164.791 193.775 160.925V15.563C193.775 11.697 190.641 8.56299 186.775 8.56299Z" stroke="black" stroke-linecap="round" stroke-linejoin="round"/>
<path d="M130.633 187.913H94.6227C90.7567 187.913 87.6227 191.047 87.6227 194.913V199.794C87.6227 203.66 90.7567 206.794 94.6227 206.794H130.633C134.499 206.794 137.633 203.66 137.633 199.794V194.913C137.633 191.047 134.499 187.913 130.633 187.913Z" stroke="black" stroke-linecap="round" stroke-linejoin="round"/>
<path d="M137.633 206.794H142.742C144.732 206.794 146.345 208.407 146.345 210.397V210.397C146.345 212.387 144.732 214 142.742 214H82.5143C80.5243 214 78.9111 212.387 78.9111 210.397V210.397C78.9111 208.407 80.5243 206.794 82.5143 206.794H87.6227" stroke="black" stroke-linecap="round" stroke-linejoin="round"/>
<path d="M55.4771 52.7408C55.4771 56.2379 52.6422 59.0729 49.1451 59.0729C45.648 59.0729 42.8131 56.2379 42.8131 52.7408V37.1786C42.8131 33.6578 45.6673 30.8036 49.1882 30.8036H49.2981C51.4507 30.8036 53.4482 31.9239 54.5707 33.7607C55.1635 34.7308 55.4771 35.8457 55.4771 36.9826V52.7408Z" fill="white" stroke="#263238" stroke-linecap="round" stroke-linejoin="round"/>
<path d="M53.6474 34.8868C53.3669 34.8312 53.1055 35.0459 53.1055 35.3319C53.1055 35.634 53.3951 35.8517 53.6853 35.7677C54.142 35.6356 54.1138 34.9792 53.6474 34.8868Z" fill="#263238" stroke="#263238" stroke-linecap="round" stroke-linejoin="round"/>
<path d="M54.5716 33.766C54.0582 32.9248 52.7635 33.2887 52.7635 34.2741C52.7635 34.8128 53.2003 35.2495 53.739 35.2495C54.5005 35.2495 54.9683 34.4159 54.5716 33.766Z" fill="white" stroke="#263238" stroke-linecap="round" stroke-linejoin="round"/>
<path d="M44.423 36.9457H54.1702" stroke="#263238" stroke-linecap="round" stroke-linejoin="round"/>
<path d="M44.423 40.9865H54.1702" stroke="#263238" stroke-linecap="round" stroke-linejoin="round"/>
<path d="M44.423 45.022H54.1702" stroke="#263238" stroke-linecap="round" stroke-linejoin="round"/>
<path d="M44.423 49.0626H54.1702" stroke="#263238" stroke-linecap="round" stroke-linejoin="round"/>
<path d="M44.423 53.0979H54.1702" stroke="#263238" stroke-linecap="round" stroke-linejoin="round"/>
<path d="M19.7145 93.2357H24.2509" stroke="#263238" stroke-linecap="round" stroke-linejoin="round"/>
<path d="M14.7004 93.2357H18.8949" stroke="#263238" stroke-linecap="round" stroke-linejoin="round"/>
<path d="M22.4956 95.6343H24.2508" stroke="#263238" stroke-linecap="round" stroke-linejoin="round"/>
<path d="M14.7004 95.6343H21.6761" stroke="#263238" stroke-linecap="round" stroke-linejoin="round"/>
<path d="M23.5604 98.033H24.2509" stroke="#263238" stroke-linecap="round" stroke-linejoin="round"/>
<path d="M19.7952 98.033H22.4151" stroke="#263238" stroke-linecap="round" stroke-linejoin="round"/>
<path d="M14.7004 98.033H19.0594" stroke="#263238" stroke-linecap="round" stroke-linejoin="round"/>
<path d="M14.7004 100.431H24.2509" stroke="#263238" stroke-linecap="round" stroke-linejoin="round"/>
<path d="M22.6603 102.83H24.2509" stroke="#263238" stroke-linecap="round" stroke-linejoin="round"/>
<path d="M17.1785 102.83H21.0245" stroke="#263238" stroke-linecap="round" stroke-linejoin="round"/>
<path d="M14.7004 102.83H16.033" stroke="#263238" stroke-linecap="round" stroke-linejoin="round"/>
<path d="M19.0594 105.228H24.2509" stroke="#263238" stroke-linecap="round" stroke-linejoin="round"/>
<path d="M14.7004 105.228H18.1592" stroke="#263238" stroke-linecap="round" stroke-linejoin="round"/>
<path d="M21.6763 107.627H24.251" stroke="#263238" stroke-linecap="round" stroke-linejoin="round"/>
<path d="M19.1401 107.627H20.9405" stroke="#263238" stroke-linecap="round" stroke-linejoin="round"/>
<path d="M14.7004 107.627H18.1592" stroke="#263238" stroke-linecap="round" stroke-linejoin="round"/>
<path d="M48.795 120.253C48.795 123.138 46.457 125.476 43.5729 125.476C40.6888 125.476 38.3508 123.138 38.3508 120.253V107.419C38.3508 104.514 40.7052 102.16 43.6095 102.16H43.7027C45.4752 102.16 47.1201 103.082 48.0457 104.593C48.5357 105.394 48.795 106.314 48.795 107.252V120.253Z" fill="#4268CB" stroke="#263238" stroke-linecap="round" stroke-linejoin="round"/>
<path d="M47.2817 105.526C47.051 105.481 46.8364 105.658 46.8364 105.893C46.8364 106.141 47.0749 106.321 47.3138 106.251C47.6901 106.142 47.6662 105.601 47.2817 105.526Z" fill="#263238" stroke="#263238" stroke-linecap="round" stroke-linejoin="round"/>
<path d="M48.0466 104.599C47.6229 103.905 46.5558 104.206 46.5558 105.018C46.5558 105.462 46.916 105.823 47.3603 105.823C47.9886 105.823 48.3743 105.135 48.0466 104.599Z" fill="white" stroke="#263238" stroke-linecap="round" stroke-linejoin="round"/>
<path d="M39.6768 107.222H47.7172" stroke="#263238" stroke-linecap="round" stroke-linejoin="round"/>
<path d="M39.6768 110.555H47.7172" stroke="#263238" stroke-linecap="round" stroke-linejoin="round"/>
<path d="M39.6768 113.888H47.7172" stroke="#263238" stroke-linecap="round" stroke-linejoin="round"/>
<path d="M39.6768 117.216H47.7172" stroke="#263238" stroke-linecap="round" stroke-linejoin="round"/>
<path d="M39.6768 120.549H47.7172" stroke="#263238" stroke-linecap="round" stroke-linejoin="round"/>
<path d="M37.8151 55.3555C37.8151 58.8525 34.9802 61.6875 31.4831 61.6875C27.9861 61.6875 25.1511 58.8525 25.1511 55.3555V39.7947C25.1511 36.2731 28.006 33.4182 31.5276 33.4182H31.6411C33.7908 33.4182 35.7858 34.5364 36.9077 36.3701C37.5011 37.3401 37.8151 38.4551 37.8151 39.5922V55.3555Z" fill="#4268CB" stroke="#263238" stroke-linecap="round" stroke-linejoin="round"/>
<path d="M35.9813 37.4999C35.701 37.445 35.4403 37.6597 35.4403 37.9453C35.4403 38.2477 35.7306 38.4656 36.021 38.381C36.4778 38.248 36.4482 37.5912 35.9813 37.4999Z" fill="#263238" stroke="#263238" stroke-linecap="round" stroke-linejoin="round"/>
<path d="M36.9087 36.3753C36.3952 35.535 35.1017 35.899 35.1017 36.8837C35.1017 37.4222 35.5382 37.8588 36.0767 37.8588C36.8381 37.8588 37.3057 37.025 36.9087 36.3753Z" fill="white" stroke="#263238" stroke-linecap="round" stroke-linejoin="round"/>
<path d="M26.7579 39.5602H36.5084" stroke="#263238" stroke-linecap="round" stroke-linejoin="round"/>
<path d="M26.7579 43.5957H36.5084" stroke="#263238" stroke-linecap="round" stroke-linejoin="round"/>
<path d="M26.7579 47.6365H36.5084" stroke="#263238" stroke-linecap="round" stroke-linejoin="round"/>
<path d="M26.7579 51.6771H36.5084" stroke="#263238" stroke-linecap="round" stroke-linejoin="round"/>
<path d="M26.7579 55.7126H36.5084" stroke="#263238" stroke-linecap="round" stroke-linejoin="round"/>
<path d="M64.9371 68.288C64.9371 71.7851 62.1022 74.62 58.6051 74.62C55.108 74.62 52.2731 71.7851 52.2731 68.288V52.7204C52.2731 49.1995 55.1273 46.3453 58.6481 46.3453H58.7581C60.9107 46.3453 62.9082 47.4656 64.0306 49.3024C64.6234 50.2726 64.9371 51.3874 64.9371 52.5243V68.288Z" fill="#4268CB" stroke="#263238" stroke-linecap="round" stroke-linejoin="round"/>
<path d="M63.1094 50.4291C62.8279 50.3733 62.5656 50.5887 62.5656 50.8757C62.5656 51.1792 62.8569 51.3978 63.1483 51.3128C63.6059 51.1794 63.5769 50.5217 63.1094 50.4291Z" fill="#263238" stroke="#263238" stroke-linecap="round" stroke-linejoin="round"/>
<path d="M64.0316 49.3077C63.5183 48.4666 62.2236 48.8304 62.2236 49.8159C62.2236 50.3546 62.6603 50.7913 63.1991 50.7913C63.9605 50.7913 64.4284 49.9577 64.0316 49.3077Z" fill="white" stroke="#263238" stroke-linecap="round" stroke-linejoin="round"/>
<path d="M53.8831 52.493H63.6303" stroke="#263238" stroke-linecap="round" stroke-linejoin="round"/>
<path d="M53.8831 56.5283H63.6303" stroke="#263238" stroke-linecap="round" stroke-linejoin="round"/>
<path d="M53.8831 60.5693H63.6303" stroke="#263238" stroke-linecap="round" stroke-linejoin="round"/>
<path d="M53.8831 64.6045H63.6303" stroke="#263238" stroke-linecap="round" stroke-linejoin="round"/>
<path d="M53.8831 68.6453H63.6303" stroke="#263238" stroke-linecap="round" stroke-linejoin="round"/>
<path d="M81.9279 99.6204C81.9279 103.117 79.093 105.952 75.5959 105.952C72.0989 105.952 69.2639 103.117 69.2639 99.6204V84.0528C69.2639 80.5319 72.1181 77.6777 75.639 77.6777H75.7489C77.9016 77.6777 79.899 78.798 81.0215 80.6348C81.6143 81.605 81.9279 82.7198 81.9279 83.8567V99.6204Z" fill="white" stroke="#263238" stroke-linecap="round" stroke-linejoin="round"/>
<path d="M80.097 81.7612C79.8154 81.7055 79.5531 81.921 79.5531 82.208C79.5531 82.5116 79.8444 82.7302 80.1359 82.6453C80.5938 82.512 80.5648 81.8538 80.097 81.7612Z" fill="#263238" stroke="#263238" stroke-linecap="round" stroke-linejoin="round"/>
<path d="M81.0225 80.6401C80.5091 79.799 79.2145 80.1628 79.2145 81.1483C79.2145 81.687 79.6512 82.1237 80.1899 82.1237C80.9514 82.1237 81.4192 81.2901 81.0225 80.6401Z" fill="white" stroke="#263238" stroke-linecap="round" stroke-linejoin="round"/>
<path d="M70.8706 83.8253H80.6211" stroke="#263238" stroke-linecap="round" stroke-linejoin="round"/>
<path d="M70.8706 87.8606H80.6211" stroke="#263238" stroke-linecap="round" stroke-linejoin="round"/>
<path d="M70.8706 91.9014H80.6211" stroke="#263238" stroke-linecap="round" stroke-linejoin="round"/>
<path d="M70.8706 95.9368H80.6211" stroke="#263238" stroke-linecap="round" stroke-linejoin="round"/>
<path d="M70.8706 99.9777H80.6211" stroke="#263238" stroke-linecap="round" stroke-linejoin="round"/>
<path d="M46.588 54.3945H32.6528C31.1185 54.3945 29.8748 56.477 29.8748 59.0458V86.7802C29.8748 89.349 31.1185 91.4314 32.6528 91.4314H46.588C48.1223 91.4314 49.3661 89.349 49.3661 86.7802V59.0458C49.3661 56.477 48.1223 54.3945 46.588 54.3945Z" fill="white" stroke="#263238" stroke-linecap="round" stroke-linejoin="round"/>
<path d="M47.1977 54.3945H32.0331C31.459 54.3945 30.9083 54.7764 30.5023 55.4562C30.0963 56.136 29.8682 57.058 29.8682 58.0194C29.8682 58.452 30.2189 58.8027 30.6515 58.8027H48.5783C49.008 58.8027 49.3562 58.4544 49.3562 58.0248C49.3571 57.0643 49.1303 56.1426 48.7256 55.4619C48.3208 54.7813 47.7713 54.3974 47.1977 54.3945Z" fill="#263238" stroke="#263238" stroke-linecap="round" stroke-linejoin="round"/>
<path d="M32.6559 65.2744H46.5782" stroke="#263238" stroke-linecap="round" stroke-linejoin="round"/>
<path d="M32.6559 70.9681H46.5782" stroke="#263238" stroke-linecap="round" stroke-linejoin="round"/>
<path d="M32.6559 76.6675H46.5782" stroke="#263238" stroke-linecap="round" stroke-linejoin="round"/>
<path d="M32.6559 82.3667H46.5782" stroke="#263238" stroke-linecap="round" stroke-linejoin="round"/>
<path d="M44.3877 56.469C44.3877 56.2638 44.3513 56.0633 44.2833 55.8927C44.2152 55.7222 44.1184 55.5892 44.0052 55.5107C43.892 55.4322 43.7675 55.4117 43.6473 55.4517C43.5271 55.4917 43.4168 55.5905 43.3301 55.7356C43.2435 55.8806 43.1845 56.0654 43.1606 56.2666C43.1367 56.4678 43.1489 56.6764 43.1958 56.8659C43.2427 57.0554 43.3221 57.2174 43.424 57.3314C43.5259 57.4453 43.6456 57.5062 43.7682 57.5062C43.9325 57.5062 44.09 57.3969 44.2062 57.2024C44.3224 57.0079 44.3877 56.744 44.3877 56.469Z" fill="white"/>
<path d="M46.4397 56.469C46.4397 56.2638 46.4033 56.0633 46.3353 55.8927C46.2672 55.7222 46.1704 55.5892 46.0572 55.5107C45.944 55.4322 45.8195 55.4117 45.6993 55.4517C45.5791 55.4917 45.4688 55.5905 45.3821 55.7356C45.2955 55.8806 45.2365 56.0654 45.2126 56.2666C45.1887 56.4678 45.201 56.6764 45.2478 56.8659C45.2947 57.0554 45.3741 57.2174 45.476 57.3314C45.5779 57.4453 45.6977 57.5062 45.8202 57.5062C45.9845 57.5062 46.142 57.3969 46.2582 57.2024C46.3744 57.0079 46.4397 56.744 46.4397 56.469Z" fill="white"/>
<path d="M48.4754 56.4691C48.4754 56.2637 48.439 56.063 48.3708 55.8923C48.3026 55.7216 48.2056 55.5887 48.0923 55.5103C47.9789 55.432 47.8541 55.4118 47.7339 55.4522C47.6136 55.4927 47.5033 55.592 47.4168 55.7376C47.3302 55.8832 47.2715 56.0685 47.248 56.2701C47.2244 56.4716 47.2372 56.6803 47.2845 56.8698C47.3319 57.0592 47.4118 57.2208 47.5141 57.3341C47.6164 57.4474 47.7365 57.5074 47.8592 57.5063C47.9404 57.5063 48.0208 57.4794 48.0957 57.4272C48.1707 57.375 48.2388 57.2986 48.2961 57.2022C48.3533 57.1058 48.3987 56.9914 48.4294 56.8656C48.4602 56.7398 48.4759 56.605 48.4754 56.4691Z" fill="white"/>
<path d="M33.2302 84.722H25.2705C23.7362 84.722 22.4924 86.8045 22.4924 89.3733V105.752C22.4924 108.321 23.7362 110.404 25.2705 110.404H33.2302C34.7645 110.404 36.0082 108.321 36.0082 105.752V89.3733C36.0082 86.8045 34.7645 84.722 33.2302 84.722Z" fill="white" stroke="#263238" stroke-linecap="round" stroke-linejoin="round"/>
<path d="M34.5047 84.7328H23.9928C23.5948 84.7328 23.2132 84.9974 22.9319 85.4685C22.6505 85.9396 22.4924 86.5785 22.4924 87.2448C22.4924 87.5431 22.7343 87.785 23.0326 87.785H35.4584C35.7567 87.785 35.9986 87.5431 35.9986 87.2448C35.9986 86.5804 35.8414 85.9431 35.5614 85.4723C35.2815 85.0016 34.9015 84.7356 34.5047 84.7328Z" fill="#263238" stroke="#263238" stroke-linecap="round" stroke-linejoin="round"/>
<path d="M24.422 92.2633H34.0757" stroke="#263238" stroke-linecap="round" stroke-linejoin="round"/>
<path d="M24.422 96.2124H34.0757" stroke="#263238" stroke-linecap="round" stroke-linejoin="round"/>
<path d="M24.422 100.167H34.0757" stroke="#263238" stroke-linecap="round" stroke-linejoin="round"/>
<path d="M24.422 104.116H34.0757" stroke="#263238" stroke-linecap="round" stroke-linejoin="round"/>
<path d="M32.1364 86.872C32.3734 86.872 32.5655 86.5503 32.5655 86.1535C32.5655 85.7567 32.3734 85.4351 32.1364 85.4351C31.8994 85.4351 31.7073 85.7567 31.7073 86.1535C31.7073 86.5503 31.8994 86.872 32.1364 86.872Z" fill="white"/>
<path d="M33.5497 86.872C33.7867 86.872 33.9789 86.5503 33.9789 86.1535C33.9789 85.7567 33.7867 85.4351 33.5497 85.4351C33.3127 85.4351 33.1206 85.7567 33.1206 86.1535C33.1206 86.5503 33.3127 86.872 33.5497 86.872Z" fill="white"/>
<path d="M35.3921 86.1535C35.3921 86.0114 35.3669 85.8725 35.3197 85.7544C35.2726 85.6362 35.2056 85.5441 35.1272 85.4897C35.0487 85.4354 34.9625 85.4211 34.8792 85.4489C34.796 85.4766 34.7195 85.545 34.6595 85.6455C34.5995 85.746 34.5586 85.874 34.5421 86.0134C34.5255 86.1527 34.534 86.2972 34.5665 86.4285C34.599 86.5598 34.654 86.672 34.7245 86.7509C34.7951 86.8299 34.8781 86.872 34.9629 86.872C35.0193 86.872 35.0751 86.8534 35.1272 86.8173C35.1792 86.7812 35.2265 86.7283 35.2664 86.6616C35.3062 86.5949 35.3378 86.5157 35.3594 86.4285C35.381 86.3413 35.3921 86.2479 35.3921 86.1535Z" fill="white"/>
<path d="M29.1777 118.134H33.7142" stroke="#263238" stroke-linecap="round" stroke-linejoin="round"/>
<path d="M24.1605 118.134H28.3582" stroke="#263238" stroke-linecap="round" stroke-linejoin="round"/>
<path d="M31.959 120.533H33.7142" stroke="#263238" stroke-linecap="round" stroke-linejoin="round"/>
<path d="M24.1605 120.533H31.1394" stroke="#263238" stroke-linecap="round" stroke-linejoin="round"/>
<path d="M33.0204 122.931H33.7141" stroke="#263238" stroke-linecap="round" stroke-linejoin="round"/>
<path d="M29.2584 122.931H31.8751" stroke="#263238" stroke-linecap="round" stroke-linejoin="round"/>
<path d="M24.1605 122.931H28.5228" stroke="#263238" stroke-linecap="round" stroke-linejoin="round"/>
<path d="M24.1605 125.33H33.7142" stroke="#263238" stroke-linecap="round" stroke-linejoin="round"/>
<path d="M32.1235 127.728H33.7142" stroke="#263238" stroke-linecap="round" stroke-linejoin="round"/>
<path d="M26.6417 127.728H30.4845" stroke="#263238" stroke-linecap="round" stroke-linejoin="round"/>
<path d="M24.1605 127.728H25.4963" stroke="#263238" stroke-linecap="round" stroke-linejoin="round"/>
<path d="M28.5228 130.127H33.7143" stroke="#263238" stroke-linecap="round" stroke-linejoin="round"/>
<path d="M24.1605 130.127H27.6226" stroke="#263238" stroke-linecap="round" stroke-linejoin="round"/>
<path d="M31.1394 132.525H33.7142" stroke="#263238" stroke-linecap="round" stroke-linejoin="round"/>
<path d="M28.6035 132.525H30.4039" stroke="#263238" stroke-linecap="round" stroke-linejoin="round"/>
<path d="M24.1605 132.525H27.6226" stroke="#263238" stroke-linecap="round" stroke-linejoin="round"/>
<path d="M61.246 114.909H65.7857" stroke="#263238" stroke-linecap="round" stroke-linejoin="round"/>
<path d="M56.2319 114.909H60.4296" stroke="#263238" stroke-linecap="round" stroke-linejoin="round"/>
<path d="M64.0272 117.313H65.7857" stroke="#263238" stroke-linecap="round" stroke-linejoin="round"/>
<path d="M56.2319 117.313H63.2109" stroke="#263238" stroke-linecap="round" stroke-linejoin="round"/>
<path d="M65.0919 119.712H65.7856" stroke="#263238" stroke-linecap="round" stroke-linejoin="round"/>
<path d="M61.3298 119.712H63.9465" stroke="#263238" stroke-linecap="round" stroke-linejoin="round"/>
<path d="M56.2319 119.712H60.5942" stroke="#263238" stroke-linecap="round" stroke-linejoin="round"/>
<path d="M56.2319 122.11H65.7856" stroke="#263238" stroke-linecap="round" stroke-linejoin="round"/>
<path d="M64.1918 124.509H65.7857" stroke="#263238" stroke-linecap="round" stroke-linejoin="round"/>
<path d="M58.71 124.509H62.556" stroke="#263238" stroke-linecap="round" stroke-linejoin="round"/>
<path d="M56.2319 124.509H57.5645" stroke="#263238" stroke-linecap="round" stroke-linejoin="round"/>
<path d="M60.5942 126.907H65.7857" stroke="#263238" stroke-linecap="round" stroke-linejoin="round"/>
<path d="M56.2319 126.907H59.694" stroke="#263238" stroke-linecap="round" stroke-linejoin="round"/>
<path d="M63.2109 129.306H65.7857" stroke="#263238" stroke-linecap="round" stroke-linejoin="round"/>
<path d="M60.6749 129.306H62.4753" stroke="#263238" stroke-linecap="round" stroke-linejoin="round"/>
<path d="M56.2319 129.306H59.694" stroke="#263238" stroke-linecap="round" stroke-linejoin="round"/>
<path d="M71.8612 60.4989H76.3977" stroke="#263238" stroke-linecap="round" stroke-linejoin="round"/>
<path d="M66.844 60.4989H71.0417" stroke="#263238" stroke-linecap="round" stroke-linejoin="round"/>
<path d="M74.6425 62.8975H76.3977" stroke="#263238" stroke-linecap="round" stroke-linejoin="round"/>
<path d="M66.844 62.8975H73.8229" stroke="#263238" stroke-linecap="round" stroke-linejoin="round"/>
<path d="M75.704 65.2961H76.3977" stroke="#263238" stroke-linecap="round" stroke-linejoin="round"/>
<path d="M71.9418 65.2961H74.5585" stroke="#263238" stroke-linecap="round" stroke-linejoin="round"/>
<path d="M66.844 65.2961H71.2062" stroke="#263238" stroke-linecap="round" stroke-linejoin="round"/>
<path d="M66.844 67.6945H76.3977" stroke="#263238" stroke-linecap="round" stroke-linejoin="round"/>
<path d="M74.8069 70.093H76.3975" stroke="#263238" stroke-linecap="round" stroke-linejoin="round"/>
<path d="M69.3252 70.093H73.168" stroke="#263238" stroke-linecap="round" stroke-linejoin="round"/>
<path d="M66.844 70.093H68.1798" stroke="#263238" stroke-linecap="round" stroke-linejoin="round"/>
<path d="M71.2063 72.4916H76.3977" stroke="#263238" stroke-linecap="round" stroke-linejoin="round"/>
<path d="M66.844 72.4916H70.306" stroke="#263238" stroke-linecap="round" stroke-linejoin="round"/>
<path d="M73.8228 74.8901H76.3975" stroke="#263238" stroke-linecap="round" stroke-linejoin="round"/>
<path d="M71.2869 74.8901H73.0873" stroke="#263238" stroke-linecap="round" stroke-linejoin="round"/>
<path d="M66.844 74.8901H70.306" stroke="#263238" stroke-linecap="round" stroke-linejoin="round"/>
<path d="M22.0891 65.9172H26.6256" stroke="#263238" stroke-linecap="round" stroke-linejoin="round"/>
<path d="M17.0719 65.9172H21.2696" stroke="#263238" stroke-linecap="round" stroke-linejoin="round"/>
<path d="M24.8704 68.3158H26.6256" stroke="#263238" stroke-linecap="round" stroke-linejoin="round"/>
<path d="M17.0719 68.3158H24.0508" stroke="#263238" stroke-linecap="round" stroke-linejoin="round"/>
<path d="M25.9352 70.7144H26.6257" stroke="#263238" stroke-linecap="round" stroke-linejoin="round"/>
<path d="M22.1698 70.7144H24.7897" stroke="#263238" stroke-linecap="round" stroke-linejoin="round"/>
<path d="M17.0719 70.7144H21.4341" stroke="#263238" stroke-linecap="round" stroke-linejoin="round"/>
<path d="M17.0719 73.1129H26.6256" stroke="#263238" stroke-linecap="round" stroke-linejoin="round"/>
<path d="M25.0349 75.5115H26.6256" stroke="#263238" stroke-linecap="round" stroke-linejoin="round"/>
<path d="M19.5532 75.5115H23.3992" stroke="#263238" stroke-linecap="round" stroke-linejoin="round"/>
<path d="M17.0719 75.5115H18.4077" stroke="#263238" stroke-linecap="round" stroke-linejoin="round"/>
<path d="M21.4342 77.9098H26.6256" stroke="#263238" stroke-linecap="round" stroke-linejoin="round"/>
<path d="M17.0719 77.9098H20.5339" stroke="#263238" stroke-linecap="round" stroke-linejoin="round"/>
<path d="M24.0509 80.3085H26.6257" stroke="#263238" stroke-linecap="round" stroke-linejoin="round"/>
<path d="M21.5148 80.3085H23.3152" stroke="#263238" stroke-linecap="round" stroke-linejoin="round"/>
<path d="M17.0719 80.3085H20.5339" stroke="#263238" stroke-linecap="round" stroke-linejoin="round"/>
<path d="M51.3693 83.4371C50.7745 84.4081 50.4597 85.5246 50.4597 86.6633V102.424C50.4597 105.921 53.2947 108.756 56.7917 108.756C60.2888 108.756 63.1237 105.921 63.1237 102.424V86.8627C63.1237 83.3414 60.2692 80.4868 56.7479 80.4868H56.6362C54.4868 80.4868 52.492 81.6042 51.3693 83.4371Z" fill="white" stroke="#263238" stroke-linecap="round" stroke-linejoin="round"/>
<path d="M52.2924 84.5699C52.573 84.5144 52.8344 84.7291 52.8344 85.0151C52.8344 85.3172 52.5448 85.535 52.2546 85.4512C51.7975 85.3191 51.8257 84.6623 52.2924 84.5699Z" fill="#263238" stroke="#263238" stroke-linecap="round" stroke-linejoin="round"/>
<path d="M51.3652 83.4492C51.8786 82.608 53.1732 82.9719 53.1732 83.9573C53.1732 84.496 52.7365 84.9328 52.1978 84.9328C51.4363 84.9328 50.9685 84.0992 51.3652 83.4492Z" fill="white" stroke="#263238" stroke-linecap="round" stroke-linejoin="round"/>
<path d="M61.5171 86.6289H51.7666" stroke="#263238" stroke-linecap="round" stroke-linejoin="round"/>
<path d="M61.5171 90.6644H51.7666" stroke="#263238" stroke-linecap="round" stroke-linejoin="round"/>
<path d="M61.5171 94.7052H51.7666" stroke="#263238" stroke-linecap="round" stroke-linejoin="round"/>
<path d="M61.5171 98.7457H51.7666" stroke="#263238" stroke-linecap="round" stroke-linejoin="round"/>
<path d="M59.823 102.16H53.7604C51.9375 102.16 50.4597 103.638 50.4597 105.461C50.4597 107.284 51.9375 108.761 53.7604 108.761H59.823C61.646 108.761 63.1237 107.284 63.1237 105.461C63.1237 103.638 61.646 102.16 59.823 102.16Z" fill="#263238" stroke="#263238" stroke-linecap="round" stroke-linejoin="round"/>
<path d="M61.546 86.7748H59.8488C57.8976 86.7748 56.3158 88.3566 56.3158 90.3078C56.3158 92.259 57.8976 93.8407 59.8488 93.8407H61.546C63.4972 93.8407 65.079 92.259 65.079 90.3078C65.079 88.3566 63.4972 86.7748 61.546 86.7748Z" fill="#263238" stroke="#263238" stroke-linecap="round" stroke-linejoin="round"/>
<path d="M59.9134 87.7742C60.3619 87.7742 60.5587 88.2171 60.5587 88.9356V89.5082C60.573 89.6584 60.5665 89.8121 60.5397 89.9575C60.5129 90.1028 60.4666 90.2359 60.4043 90.3465C60.3419 90.4572 60.2652 90.5424 60.1802 90.5956C60.1017 90.6446 60.0181 90.6653 59.9347 90.6564C59.9205 90.6549 59.9062 90.6535 59.8919 90.6535C59.7487 90.6535 59.6327 90.7695 59.6327 90.9127V92.3721C59.6327 92.4612 59.5605 92.5334 59.4714 92.5334C59.3823 92.5334 59.3101 92.4612 59.3101 92.3721V88.3775C59.3101 88.0443 59.5802 87.7742 59.9134 87.7742ZM59.8908 90.1781C60.1264 90.1781 60.2393 89.9944 60.2393 89.5407V88.9086C60.2393 88.4764 60.1457 88.255 59.9166 88.255C59.7491 88.255 59.6134 88.3907 59.6134 88.5582V89.9006C59.6134 90.0539 59.7376 90.1781 59.8908 90.1781Z" fill="white"/>
<path d="M61.488 87.7742C61.93 87.7742 62.1333 88.2225 62.1333 88.9572V91.3558C62.1333 92.0851 61.93 92.5334 61.488 92.5334C61.1138 92.5334 60.8104 92.2301 60.8104 91.8559V88.4517C60.8104 88.0775 61.1138 87.7742 61.488 87.7742ZM61.488 92.0472C61.7138 92.0472 61.8106 91.8095 61.8106 91.3774V88.9302C61.8106 88.4927 61.7009 88.255 61.4719 88.255C61.283 88.255 61.1299 88.4081 61.1299 88.597V91.6781C61.1299 91.8777 61.2885 92.0412 61.488 92.0472Z" fill="white"/>
<path d="M63.1449 89.989C63.2777 89.989 63.3853 90.0967 63.3853 90.2294C63.3853 90.3622 63.2777 90.4698 63.1449 90.4698H63.0627C62.8845 90.4698 62.74 90.6143 62.74 90.7925V92.3721C62.74 92.4612 62.6678 92.5334 62.5787 92.5334C62.4896 92.5334 62.4174 92.4612 62.4174 92.3721V88.3388C62.4174 88.027 62.6702 87.7742 62.982 87.7742H63.3062C63.439 87.7742 63.5466 87.8818 63.5466 88.0146C63.5466 88.1473 63.439 88.255 63.3062 88.255H63.1401C62.9156 88.255 62.7336 88.437 62.7336 88.6615V89.6632C62.7336 89.8431 62.8795 89.989 63.0594 89.989H63.1449Z" fill="white"/>
<path opacity="0.2" d="M214.765 108.073C214.769 107.469 214.294 106.97 213.69 106.945V106.945C213.06 106.919 212.532 107.418 212.523 108.048L212.518 108.331C212.512 108.734 212.217 109.069 211.834 109.197C211.792 109.211 211.749 109.226 211.707 109.242C211.272 109.4 210.76 109.207 210.616 108.767V108.767C210.451 108.263 209.821 108.096 209.429 108.453L208.875 108.957C208.521 109.279 208.389 109.778 208.537 110.232L208.703 110.742C208.826 111.12 208.745 111.533 208.514 111.857C208.348 112.088 208.189 112.331 208.036 112.585C207.847 112.9 207.408 112.964 207.152 112.701V112.701C206.874 112.415 206.393 112.518 206.257 112.893L205.665 114.521C205.497 114.982 205.612 115.498 205.958 115.844V115.844C206.276 116.162 206.397 116.623 206.3 117.061C206.203 117.5 206.121 117.948 206.053 118.402C206.001 118.749 205.699 119.008 205.348 118.992V118.992C204.97 118.975 204.653 119.273 204.648 119.651L204.612 122.044C204.607 122.411 204.895 122.717 205.263 122.732V122.732C205.61 122.747 205.889 123.022 205.921 123.368C205.964 123.825 206.022 124.278 206.094 124.724C206.169 125.183 206.023 125.653 205.685 125.972V125.972C205.308 126.329 205.17 126.871 205.33 127.365L205.89 129.091C206.005 129.445 206.447 129.562 206.723 129.312V129.312C206.982 129.075 207.397 129.164 207.554 129.478C207.706 129.782 207.866 130.074 208.034 130.353C208.238 130.692 208.294 131.104 208.159 131.475L207.955 132.035C207.793 132.48 207.901 132.978 208.232 133.317L208.866 133.965C209.205 134.312 209.79 134.186 209.957 133.731V133.731C210.108 133.317 210.614 133.167 211.001 133.375C211.085 133.42 211.169 133.463 211.254 133.503C211.597 133.666 211.842 133.999 211.837 134.38L211.83 134.845C211.821 135.454 212.299 135.959 212.908 135.984V135.984C213.535 136.01 214.062 135.516 214.078 134.888L214.085 134.583C214.095 134.181 214.39 133.849 214.771 133.722C214.815 133.708 214.859 133.692 214.903 133.676C215.338 133.518 215.849 133.711 215.992 134.151V134.151C216.155 134.655 216.785 134.822 217.177 134.466L217.727 133.965C218.079 133.644 218.211 133.147 218.063 132.695L217.895 132.178C217.771 131.799 217.853 131.385 218.085 131.061C218.25 130.831 218.408 130.59 218.561 130.338C218.75 130.023 219.189 129.959 219.445 130.221V130.221C219.723 130.506 220.203 130.403 220.339 130.029L220.933 128.407C221.104 127.94 220.991 127.415 220.643 127.059V127.059C220.324 126.734 220.204 126.265 220.302 125.821C220.399 125.385 220.481 124.941 220.547 124.49C220.599 124.142 220.901 123.883 221.253 123.899V123.899C221.63 123.916 221.947 123.618 221.953 123.241L221.99 120.848C221.996 120.48 221.707 120.174 221.339 120.159V120.159C220.992 120.144 220.713 119.87 220.681 119.524C220.637 119.06 220.578 118.6 220.504 118.147C220.432 117.702 220.578 117.246 220.911 116.942V116.942C221.283 116.602 221.423 116.076 221.267 115.596L220.7 113.849C220.585 113.496 220.143 113.379 219.868 113.63V113.63C219.609 113.867 219.193 113.778 219.037 113.463C218.885 113.158 218.725 112.866 218.557 112.587C218.352 112.248 218.296 111.836 218.432 111.465L218.639 110.899C218.8 110.457 218.695 109.962 218.368 109.625L217.734 108.969C217.397 108.621 216.813 108.745 216.647 109.2V109.2C216.496 109.614 215.988 109.762 215.601 109.553C215.517 109.507 215.431 109.464 215.346 109.423C215.004 109.262 214.758 108.931 214.761 108.553L214.765 108.073ZM213.159 130.473C212.095 130.428 211.063 129.857 210.193 128.83C209.323 127.803 208.654 126.368 208.272 124.705C207.889 123.042 207.809 121.226 208.043 119.487C208.276 117.749 208.813 116.165 209.584 114.936C210.355 113.708 211.326 112.89 212.375 112.586C213.424 112.282 214.503 112.505 215.476 113.228C216.449 113.951 217.272 115.14 217.841 116.646C218.41 118.152 218.7 119.907 218.674 121.689C218.637 124.077 218.036 126.344 217.002 127.991C215.968 129.638 214.586 130.531 213.159 130.473Z" stroke="black" stroke-linecap="round" stroke-linejoin="round"/>
<path opacity="0.2" d="M208.451 80.1121C208.455 79.5076 207.979 79.0085 207.375 78.9837V78.9837C206.745 78.9578 206.218 79.4564 206.208 80.087L206.204 80.3629C206.198 80.7677 205.903 81.1047 205.52 81.2343C205.478 81.2484 205.436 81.2632 205.394 81.2786C204.957 81.4392 204.442 81.2477 204.295 80.8061V80.8061C204.125 80.2998 203.491 80.1349 203.097 80.4946L202.553 80.9898C202.2 81.3118 202.068 81.8107 202.215 82.2653L202.382 82.779C202.505 83.1584 202.423 83.5717 202.191 83.8962C202.027 84.126 201.868 84.3674 201.716 84.6195C201.526 84.9343 201.087 84.9989 200.829 84.7363V84.7363C200.55 84.4516 200.07 84.5555 199.933 84.9301L199.342 86.5503C199.171 87.0178 199.284 87.5416 199.631 87.8976V87.8976C199.949 88.2232 200.069 88.6911 199.971 89.1353C199.875 89.5697 199.793 90.0127 199.726 90.4623C199.674 90.8102 199.372 91.0692 199.021 91.0547V91.0547C198.642 91.0392 198.326 91.3386 198.32 91.717L198.285 94.1108C198.28 94.4774 198.568 94.7812 198.934 94.7953V94.7953C199.28 94.8085 199.559 95.0816 199.591 95.4264C199.635 95.8997 199.695 96.3684 199.771 96.8303C199.844 97.2761 199.697 97.7329 199.363 98.0369V98.0369C198.99 98.3764 198.85 98.9031 199.006 99.383L199.572 101.125C199.687 101.479 200.129 101.596 200.405 101.345V101.345C200.664 101.109 201.08 101.198 201.236 101.513C201.388 101.818 201.548 102.111 201.717 102.391C201.921 102.73 201.976 103.142 201.841 103.514L201.637 104.074C201.475 104.516 201.582 105.01 201.91 105.347L202.551 106.004C202.887 106.349 203.468 106.222 203.63 105.768V105.768C203.776 105.355 204.282 105.204 204.667 105.411C204.752 105.457 204.837 105.499 204.922 105.54C205.264 105.701 205.509 106.032 205.503 106.41L205.496 106.886C205.487 107.491 205.962 107.994 206.566 108.02V108.02C207.196 108.047 207.724 107.549 207.734 106.919L207.738 106.635C207.744 106.232 208.038 105.898 208.419 105.769C208.463 105.755 208.506 105.739 208.55 105.723C208.984 105.563 209.496 105.756 209.639 106.196V106.196C209.802 106.7 210.431 106.866 210.823 106.51L211.379 106.002C211.727 105.685 211.86 105.195 211.721 104.745L211.566 104.244C211.449 103.867 211.533 103.459 211.763 103.138C211.929 102.907 212.089 102.664 212.243 102.409C212.433 102.094 212.871 102.03 213.128 102.292V102.292C213.406 102.577 213.885 102.474 214.022 102.1L214.615 100.478C214.786 100.01 214.674 99.4865 214.325 99.1309V99.1309C214.007 98.8052 213.887 98.3362 213.986 97.8913C214.082 97.458 214.163 97.0158 214.23 96.5669C214.281 96.2185 214.583 95.9589 214.935 95.9733V95.9733C215.313 95.9889 215.629 95.69 215.635 95.312L215.672 92.9245C215.678 92.5566 215.39 92.251 215.022 92.2353V92.2353C214.675 92.2206 214.396 91.946 214.364 91.6001C214.32 91.1372 214.261 90.6789 214.186 90.2274C214.112 89.7799 214.258 89.3208 214.593 89.0147V89.0147C214.966 88.6738 215.105 88.1465 214.948 87.6661L214.382 85.9249C214.267 85.5711 213.825 85.4539 213.55 85.7043V85.7043C213.29 85.9406 212.875 85.8514 212.719 85.537C212.567 85.2318 212.406 84.9388 212.238 84.6589C212.034 84.3197 211.978 83.9072 212.114 83.5353L212.318 82.9767C212.479 82.5346 212.372 82.0392 212.043 81.7027L211.404 81.0484C211.067 80.7043 210.487 80.8316 210.325 81.2849V81.2849C210.178 81.6968 209.674 81.8478 209.289 81.6407C209.203 81.5944 209.116 81.5507 209.029 81.5097C208.689 81.3491 208.444 81.0198 208.447 80.6429L208.451 80.1121ZM206.845 102.506C205.781 102.461 204.748 101.89 203.878 100.863C203.008 99.8357 202.34 98.3998 201.957 96.7366C201.574 95.0733 201.495 93.2574 201.729 91.5186C201.963 89.7797 202.499 88.1961 203.271 86.9679C204.042 85.7397 205.014 84.9222 206.063 84.6187C207.112 84.3153 208.191 84.5395 209.164 85.2631C210.137 85.9866 210.96 87.177 211.528 88.6837C212.097 90.1904 212.386 91.9456 212.359 93.7274C212.323 96.1155 211.722 98.3818 210.688 100.028C209.654 101.674 208.271 102.565 206.845 102.506Z" stroke="black" stroke-linecap="round" stroke-linejoin="round"/>
<path opacity="0.2" d="M99.0128 44.1716C99.3863 44.1962 99.7027 43.8999 99.7027 43.5256V41.0959C99.7027 40.7312 99.4071 40.4356 99.0424 40.4356V40.4356C98.6976 40.4356 98.4121 40.1701 98.375 39.8272C98.3249 39.3631 98.2591 38.9042 98.178 38.4527C98.0976 38.0052 98.2359 37.543 98.5653 37.2297V37.2297C98.9339 36.8791 99.0638 36.3455 98.8977 35.8647L98.3159 34.1803C98.1928 33.824 97.7404 33.7176 97.4714 33.9817V33.9817C97.2178 34.2307 96.7938 34.1527 96.6283 33.8383C96.4737 33.5443 96.311 33.2624 96.141 32.9934C95.9349 32.6675 95.8721 32.2672 95.996 31.9021L96.1943 31.3177C96.3468 30.8685 96.2267 30.3717 95.8859 30.0417L95.2721 29.4473C94.9153 29.1019 94.3207 29.2426 94.1565 29.7112V29.7112C94.0084 30.134 93.499 30.2981 93.0961 30.1024C93.0206 30.0658 92.9448 30.0311 92.8687 29.9983C92.511 29.8444 92.2495 29.5087 92.2495 29.1192V28.6695C92.2495 28.0521 91.749 27.5515 91.1315 27.5515V27.5515C90.5141 27.5515 90.0136 28.0521 90.0136 28.6695V28.9947C90.0136 29.3947 89.7317 29.7338 89.3569 29.8735C89.3013 29.8942 89.2458 29.916 89.1905 29.9388C88.7699 30.1126 88.2608 29.9334 88.1146 29.5024V29.5024C87.9475 29.0101 87.3247 28.8596 86.9512 29.2212L86.3772 29.777C86.037 30.1064 85.9194 30.6036 86.0759 31.0505L86.2486 31.5433C86.3832 31.9276 86.3103 32.3513 86.0816 32.6882C85.9175 32.9299 85.7596 33.183 85.6083 33.4468C85.4281 33.761 84.9992 33.8361 84.7368 33.5864V33.5864C84.4522 33.3157 83.9829 33.4302 83.855 33.8016L83.2758 35.483C83.1146 35.951 83.2365 36.47 83.5892 36.8173V36.8173C83.9116 37.1349 84.0401 37.5979 83.9497 38.0413C83.8581 38.4905 83.7814 38.9479 83.7201 39.4114C83.6737 39.7623 83.3784 40.0304 83.0244 40.0304V40.0304C82.6434 40.0304 82.3345 40.3393 82.3345 40.7203V43.1138C82.3345 43.4784 82.6301 43.7741 82.9948 43.7741V43.7741C83.3396 43.7741 83.6252 44.0395 83.6622 44.3824C83.7123 44.8465 83.7781 45.3054 83.8592 45.757C83.9396 46.2044 83.8013 46.6666 83.4719 46.9799V46.9799C83.1034 47.3305 82.9734 47.8641 83.1395 48.3449L83.7211 50.0287C83.8443 50.3853 84.2971 50.4918 84.5663 50.2274V50.2274C84.8198 49.9785 85.2437 50.0561 85.4094 50.3704C85.5643 50.6644 85.727 50.9466 85.8971 51.2161C86.1029 51.542 86.1652 51.9422 86.0413 52.3072L85.8433 52.8907C85.6906 53.3405 85.8113 53.838 86.153 54.168L86.7667 54.7605C87.1231 55.1046 87.7162 54.9642 87.8805 54.4967V54.4967C88.0287 54.0746 88.5374 53.911 88.9398 54.1065C89.0156 54.1434 89.0917 54.1782 89.1681 54.2111C89.5261 54.3651 89.7877 54.7011 89.7877 55.0908V55.5239C89.7877 56.1414 90.2882 56.6419 90.9057 56.6419V56.6419C91.5231 56.6419 92.0237 56.1414 92.0237 55.5239V55.1663C92.0237 54.7663 92.3055 54.4272 92.6804 54.2875C92.736 54.2668 92.7914 54.245 92.8467 54.2222C93.2673 54.0484 93.7764 54.2276 93.9226 54.6586V54.6586C94.0897 55.1509 94.7126 55.3014 95.086 54.9398L95.66 54.384C96.0003 54.0546 96.1179 53.5574 95.9613 53.1105L95.7888 52.618C95.6541 52.2336 95.7276 51.8098 95.9566 51.473C96.1205 51.2319 96.2781 50.9791 96.4291 50.7155C96.6093 50.4009 97.0385 50.3255 97.3012 50.5753V50.5753C97.5856 50.8458 98.0545 50.7316 98.1826 50.3606L98.7634 48.6792C98.9253 48.2107 98.803 47.6908 98.4493 47.3434V47.3434C98.1262 47.0261 97.9972 46.5627 98.0877 46.119C98.1791 45.6704 98.2557 45.2137 98.3169 44.751C98.3627 44.4055 98.6651 44.1487 99.0128 44.1716V44.1716ZM85.6416 42.1048C85.6416 40.3227 85.9573 38.5805 86.5486 37.0987C87.14 35.6169 87.9805 34.462 88.9639 33.78C89.9473 33.098 91.0294 32.9195 92.0734 33.2672C93.1174 33.6149 94.0763 34.4731 94.829 35.7333C95.5816 36.9934 96.0942 38.599 96.3018 40.3469C96.5095 42.0948 96.4029 43.9066 95.9956 45.5531C95.5883 47.1996 94.8985 48.6068 94.0134 49.597C93.1284 50.5871 92.0879 51.1155 91.0235 51.1155C90.3156 51.1155 89.6147 50.8818 88.9609 50.4276C88.3071 49.9734 87.7133 49.3077 87.2134 48.4687C86.7134 47.6297 86.3173 46.6338 86.0476 45.5381C85.7779 44.4424 85.6399 43.2683 85.6416 42.0832V42.1048Z" stroke="black" stroke-linecap="round" stroke-linejoin="round"/>
<path opacity="0.2" d="M115.557 32.8899C115.928 32.9069 116.239 32.6104 116.239 32.2385V29.8361C116.239 29.4723 115.944 29.1774 115.58 29.1774V29.1774C115.236 29.1774 114.951 28.9126 114.914 28.5707C114.864 28.1058 114.798 27.6461 114.717 27.1938C114.637 26.7467 114.774 26.2849 115.103 25.9714V25.9714C115.471 25.6207 115.6 25.0881 115.435 24.6078L114.854 22.922C114.731 22.566 114.279 22.4595 114.011 22.7233V22.7233C113.757 22.9722 113.333 22.8938 113.168 22.5794C113.013 22.2853 112.85 22.0037 112.68 21.7355C112.472 21.4094 112.408 21.0082 112.532 20.642L112.731 20.0551C112.883 19.6054 112.762 19.1083 112.42 18.7785L111.805 18.1844C111.449 17.8408 110.857 17.981 110.693 18.4478V18.4478C110.545 18.87 110.035 19.0328 109.632 18.8384C109.558 18.8026 109.483 18.7687 109.408 18.7369C109.049 18.584 108.785 18.2486 108.785 17.8585V17.399C108.785 16.7824 108.286 16.2826 107.669 16.2826V16.2826C107.052 16.2826 106.553 16.7824 106.553 17.399V17.7256C106.553 18.1255 106.27 18.4641 105.895 18.6036C105.84 18.6241 105.785 18.6456 105.731 18.6682C105.31 18.8421 104.799 18.6632 104.653 18.2316V18.2316C104.486 17.7398 103.864 17.589 103.49 17.9498L102.917 18.503C102.577 18.8322 102.459 19.3296 102.615 19.7769L102.79 20.2765C102.923 20.6563 102.852 21.0749 102.627 21.409C102.465 21.6512 102.309 21.9052 102.16 22.1704C101.982 22.4867 101.551 22.5643 101.288 22.3142V22.3142C101.005 22.0449 100.539 22.1586 100.411 22.5279L99.8283 24.2149C99.6668 24.6822 99.7888 25.2007 100.142 25.5472V25.5472C100.465 25.8652 100.593 26.3301 100.502 26.7746C100.41 27.2211 100.334 27.6762 100.274 28.1377C100.228 28.4909 99.9312 28.7615 99.5751 28.7615V28.7615C99.1929 28.7615 98.8832 29.0712 98.8832 29.4534V31.8446C98.8832 32.2094 99.1789 32.5051 99.5437 32.5051V32.5051C99.8885 32.5051 100.174 32.7704 100.211 33.1132C100.262 33.5773 100.327 34.0363 100.408 34.488C100.489 34.9355 100.35 35.3976 100.021 35.711V35.711C99.652 36.0617 99.5218 36.5952 99.6875 37.0763L100.267 38.7581C100.39 39.1156 100.844 39.2228 101.114 38.9583V38.9583C101.368 38.7093 101.792 38.7874 101.959 39.1017C102.112 39.3892 102.273 39.6647 102.441 39.9271C102.649 40.2521 102.714 40.6527 102.589 41.0182L102.392 41.6014C102.239 42.0506 102.359 42.5474 102.7 42.8774L103.317 43.4747C103.672 43.8188 104.265 43.6787 104.428 43.2119V43.2119C104.576 42.7886 105.088 42.6263 105.491 42.8222C105.566 42.8582 105.64 42.8922 105.715 42.9242C106.073 43.0772 106.336 43.4117 106.336 43.801V44.2226C106.336 44.84 106.837 45.3406 107.454 45.3406V45.3406C108.072 45.3406 108.572 44.84 108.572 44.2226V43.8978C108.572 43.498 108.855 43.1595 109.23 43.0202C109.285 42.9998 109.339 42.9784 109.394 42.9559C109.815 42.782 110.326 42.9606 110.472 43.3923V43.3923C110.639 43.8837 111.261 44.0344 111.634 43.6739L112.207 43.1201C112.548 42.791 112.666 42.2935 112.51 41.8463L112.338 41.3554C112.203 40.9705 112.277 40.5461 112.506 40.2086C112.67 39.967 112.828 39.7135 112.978 39.4489C113.158 39.1334 113.588 39.057 113.852 39.3069V39.3069C114.137 39.5773 114.606 39.4624 114.734 39.091L115.314 37.4084C115.475 36.9408 115.353 36.4223 115.001 36.0753V36.0753C114.678 35.7575 114.55 35.2939 114.64 34.8502C114.732 34.4002 114.808 33.9416 114.868 33.4768C114.913 33.1327 115.21 32.8741 115.557 32.8899V32.8899ZM102.181 30.8089C102.181 29.0267 102.496 27.2846 103.088 25.8028C103.679 24.321 104.52 23.1661 105.503 22.4841C106.486 21.8021 107.568 21.6236 108.612 21.9713C109.656 22.319 110.615 23.1772 111.368 24.4373C112.121 25.6975 112.633 27.3031 112.841 29.051C113.049 30.7989 112.942 32.6106 112.535 34.2571C112.127 35.9036 111.437 37.3109 110.552 38.301C109.667 39.2911 108.627 39.8196 107.562 39.8196C106.856 39.8203 106.156 39.5877 105.502 39.1352C104.849 38.6826 104.256 38.0189 103.756 37.182C103.256 36.3451 102.86 35.3515 102.589 34.258C102.319 33.1644 102.18 31.9924 102.181 30.8089Z" stroke="black" stroke-linecap="round" stroke-linejoin="round"/>
<g opacity="0.2">
<path d="M49.6208 152.697C52.7749 152.697 55.3317 148.416 55.3317 143.135C55.3317 137.854 52.7749 133.573 49.6208 133.573C46.4668 133.573 43.9099 137.854 43.9099 143.135C43.9099 148.416 46.4668 152.697 49.6208 152.697Z" stroke="black" stroke-linecap="round" stroke-linejoin="round"/>
<path d="M53.9072 144.478C54.3525 140.514 52.794 136.696 50.4263 135.95C48.0586 135.205 45.7783 137.814 45.333 141.778C44.8878 145.743 46.4462 149.56 48.8139 150.306C51.1816 151.051 53.462 148.442 53.9072 144.478Z" stroke="black" stroke-linecap="round" stroke-linejoin="round"/>
<path d="M58.3037 149.259C58.072 149.376 57.767 149.496 57.575 149.322L55.7715 147.684C55.3641 147.314 54.7106 147.488 54.541 148.011V148.011C54.449 148.295 54.5321 148.607 54.7532 148.807L56.9605 150.805C57.2733 151.089 57.3582 151.54 57.4318 151.956V151.956C57.4723 152.185 57.5653 152.377 57.6905 152.491L63.5659 157.818C63.6914 157.931 63.8385 157.957 63.9752 157.889C64.1119 157.821 64.2269 157.666 64.2951 157.456L64.8081 155.873C64.8748 155.662 64.8891 155.416 64.8481 155.187C64.807 154.959 64.7138 154.767 64.5887 154.652L58.7133 149.326C58.5873 149.214 58.4401 149.19 58.3037 149.259V149.259Z" stroke="black" stroke-miterlimit="10"/>
</g>
<path opacity="0.2" d="M145.7 33.4126C145.7 35.4792 145.335 37.4997 144.65 39.2185C143.964 40.9373 142.99 42.2773 141.85 43.0689C140.71 43.8605 139.455 44.0681 138.244 43.6656C137.034 43.2631 135.921 42.2685 135.048 40.8076C134.175 39.3467 133.581 37.4851 133.34 35.4583C133.099 33.4315 133.222 31.3305 133.694 29.4211C134.166 27.5117 134.966 25.8797 135.993 24.7315C137.019 23.5832 138.225 22.9703 139.46 22.9703" stroke="black" stroke-linecap="round" stroke-linejoin="round"/>
<path opacity="0.2" d="M145.417 30.3092C145.733 32.0033 144.303 33.4126 142.579 33.4126V33.4126C140.856 33.4126 139.46 32.016 139.46 30.2931V28.1915C139.46 25.3079 142.081 23.2833 143.662 25.6948C143.733 25.8031 143.803 25.9143 143.871 26.0285C144.592 27.2357 145.119 28.7082 145.417 30.3092Z" stroke="black" stroke-linecap="round" stroke-linejoin="round"/>
<path opacity="0.2" d="M145.054 26.2117L146.181 24.7023C147.503 22.9324 149.582 21.89 151.791 21.89H152.798" stroke="black" stroke-linecap="round" stroke-linejoin="round"/>
<path opacity="0.2" d="M155.379 21.89H161.4" stroke="black" stroke-linecap="round" stroke-linejoin="round"/>
<path opacity="0.2" d="M155.379 25.1313H161.4" stroke="black" stroke-linecap="round" stroke-linejoin="round"/>
<path opacity="0.2" d="M155.379 28.3726H161.4" stroke="black" stroke-linecap="round" stroke-linejoin="round"/>
<path opacity="0.2" d="M155.379 31.6138H161.4" stroke="black" stroke-linecap="round" stroke-linejoin="round"/>
<g opacity="0.2">
<path d="M77.3588 144.756C76.8119 144.756 76.3511 144.348 76.2848 143.805V143.805C76.2185 143.262 75.7576 142.854 75.2108 142.854H73.9995C72.9814 142.854 72.1927 143.745 72.3162 144.756V144.756L72.5259 146.452L73.3317 153.041C73.6637 155.756 75.9691 157.796 78.7043 157.796V157.796C81.9541 157.796 84.4713 154.953 84.077 151.727L83.6389 148.142C83.4026 146.209 81.7609 144.756 79.813 144.756H77.3588Z" stroke="black" stroke-linecap="round" stroke-linejoin="round"/>
<path d="M84.8188 157.796L86.2685 149.026C86.562 147.251 85.1923 145.636 83.3927 145.636V145.636" stroke="black" stroke-linecap="round" stroke-linejoin="round"/>
</g>
<g opacity="0.2">
<path d="M92.6719 144.756C92.1248 144.756 91.6634 144.348 91.5961 143.805V143.805C91.5289 143.262 91.0675 142.854 90.5203 142.854H89.3125C88.2944 142.854 87.5057 143.745 87.6292 144.756V144.756L87.8389 146.452L88.6448 153.041C88.9768 155.756 91.2818 157.796 94.0167 157.796V157.796C97.2665 157.796 99.7835 154.952 99.3885 151.727L98.9496 148.143C98.7128 146.209 97.0704 144.756 95.122 144.756H92.6719Z" stroke="black" stroke-linecap="round" stroke-linejoin="round"/>
<path d="M100.132 157.796L101.581 149.026C101.875 147.251 100.505 145.636 98.7057 145.636V145.636" stroke="black" stroke-linecap="round" stroke-linejoin="round"/>
</g>
<path d="M114.874 114.407C114.951 114.405 115.028 114.429 115.1 114.478C115.171 114.526 115.237 114.598 115.292 114.689C115.347 114.78 115.391 114.888 115.421 115.007C115.451 115.127 115.467 115.255 115.467 115.384V121.564C115.456 121.816 115.389 122.051 115.278 122.223C115.168 122.395 115.023 122.49 114.872 122.49C114.721 122.49 114.576 122.395 114.466 122.223C114.355 122.051 114.288 121.816 114.277 121.564V115.384C114.278 115.255 114.294 115.126 114.324 115.007C114.355 114.887 114.399 114.779 114.454 114.688C114.51 114.598 114.575 114.526 114.647 114.478C114.719 114.429 114.796 114.405 114.874 114.407Z" fill="#263238"/>
<path d="M113.435 114.407C113.512 114.405 113.589 114.429 113.661 114.478C113.733 114.526 113.799 114.598 113.854 114.688C113.909 114.779 113.954 114.887 113.984 115.007C114.015 115.126 114.031 115.255 114.032 115.384V121.564C114.02 121.816 113.953 122.051 113.842 122.223C113.732 122.395 113.587 122.49 113.436 122.49C113.286 122.49 113.14 122.395 113.03 122.223C112.92 122.051 112.852 121.816 112.841 121.564V115.384C112.843 115.123 112.906 114.874 113.017 114.69C113.129 114.507 113.279 114.405 113.435 114.407Z" fill="#263238"/>
<path d="M112.018 114.407C112.096 114.405 112.173 114.429 112.244 114.478C112.316 114.526 112.381 114.598 112.437 114.689C112.492 114.78 112.536 114.888 112.566 115.007C112.596 115.127 112.612 115.255 112.612 115.384V121.564C112.612 121.694 112.596 121.822 112.566 121.941C112.536 122.061 112.492 122.169 112.437 122.26C112.381 122.351 112.316 122.423 112.244 122.471C112.173 122.519 112.096 122.544 112.018 122.542C111.941 122.544 111.864 122.519 111.792 122.471C111.721 122.423 111.655 122.351 111.6 122.26C111.545 122.169 111.501 122.061 111.471 121.941C111.441 121.822 111.425 121.694 111.425 121.564V115.384C111.425 115.255 111.441 115.127 111.471 115.007C111.501 114.888 111.545 114.78 111.6 114.689C111.655 114.598 111.721 114.526 111.792 114.478C111.864 114.429 111.941 114.405 112.018 114.407Z" fill="#263238"/>
<path d="M110.589 114.407C110.666 114.405 110.743 114.429 110.815 114.478C110.887 114.526 110.953 114.598 111.008 114.688C111.064 114.779 111.108 114.887 111.138 115.007C111.169 115.126 111.185 115.255 111.186 115.384V121.564C111.175 121.816 111.107 122.051 110.997 122.223C110.886 122.395 110.741 122.49 110.591 122.49C110.44 122.49 110.295 122.395 110.184 122.223C110.074 122.051 110.006 121.816 109.995 121.564V115.384C109.997 115.123 110.06 114.874 110.172 114.69C110.283 114.507 110.433 114.405 110.589 114.407Z" fill="#263238"/>
<path d="M109.163 114.407C109.24 114.405 109.317 114.429 109.389 114.478C109.461 114.526 109.526 114.598 109.581 114.689C109.636 114.78 109.68 114.888 109.71 115.007C109.74 115.127 109.756 115.255 109.757 115.384V121.564C109.757 121.828 109.694 122.081 109.583 122.267C109.471 122.454 109.32 122.558 109.163 122.558C109.005 122.558 108.854 122.454 108.743 122.267C108.632 122.081 108.569 121.828 108.569 121.564V115.384C108.57 115.255 108.585 115.127 108.615 115.007C108.646 114.888 108.689 114.78 108.745 114.689C108.8 114.598 108.865 114.526 108.937 114.478C109.009 114.429 109.086 114.405 109.163 114.407Z" fill="#263238"/>
<path d="M107.734 114.407C107.811 114.405 107.888 114.429 107.96 114.478C108.032 114.526 108.098 114.598 108.153 114.688C108.208 114.779 108.253 114.887 108.283 115.007C108.314 115.126 108.33 115.255 108.33 115.384V121.564C108.33 121.694 108.314 121.822 108.283 121.942C108.253 122.061 108.208 122.169 108.153 122.26C108.098 122.351 108.032 122.423 107.96 122.471C107.888 122.519 107.811 122.544 107.734 122.542C107.578 122.544 107.427 122.442 107.316 122.258C107.205 122.075 107.142 121.826 107.14 121.564V115.384C107.142 115.123 107.205 114.874 107.316 114.69C107.427 114.507 107.578 114.405 107.734 114.407Z" fill="#263238"/>
<path d="M106.307 114.407C106.385 114.405 106.462 114.429 106.533 114.478C106.605 114.526 106.671 114.598 106.726 114.689C106.781 114.78 106.825 114.888 106.855 115.007C106.885 115.127 106.901 115.255 106.901 115.384V121.564C106.901 121.828 106.839 122.081 106.727 122.267C106.616 122.454 106.465 122.558 106.307 122.558C106.15 122.558 105.999 122.454 105.888 122.267C105.776 122.081 105.714 121.828 105.714 121.564V115.384C105.714 115.255 105.73 115.127 105.76 115.007C105.79 114.888 105.834 114.78 105.889 114.689C105.944 114.598 106.01 114.526 106.081 114.478C106.153 114.429 106.23 114.405 106.307 114.407Z" fill="#263238"/>
<path d="M104.881 114.407C105.037 114.405 105.187 114.507 105.299 114.69C105.41 114.874 105.473 115.123 105.475 115.384V121.564C105.464 121.816 105.396 122.051 105.286 122.223C105.175 122.395 105.03 122.49 104.88 122.49C104.729 122.49 104.584 122.395 104.473 122.223C104.363 122.051 104.295 121.816 104.284 121.564V115.384C104.285 115.255 104.301 115.126 104.332 115.007C104.362 114.887 104.406 114.779 104.462 114.688C104.517 114.598 104.583 114.526 104.655 114.478C104.727 114.429 104.804 114.405 104.881 114.407Z" fill="#263238"/>
<path d="M103.452 114.407C103.529 114.405 103.606 114.429 103.678 114.478C103.75 114.526 103.815 114.598 103.87 114.689C103.925 114.78 103.969 114.888 103.999 115.007C104.029 115.127 104.045 115.255 104.046 115.384V121.564C104.046 121.828 103.983 122.081 103.872 122.267C103.76 122.454 103.609 122.558 103.452 122.558C103.294 122.558 103.143 122.454 103.032 122.267C102.921 122.081 102.858 121.828 102.858 121.564V115.384C102.859 115.255 102.874 115.127 102.904 115.007C102.934 114.888 102.978 114.78 103.034 114.689C103.089 114.598 103.154 114.526 103.226 114.478C103.298 114.429 103.374 114.405 103.452 114.407Z" fill="#263238"/>
<path d="M102.026 114.407C102.182 114.405 102.332 114.507 102.443 114.69C102.554 114.874 102.618 115.123 102.619 115.384V121.564C102.608 121.816 102.541 122.051 102.43 122.223C102.32 122.395 102.175 122.49 102.024 122.49C101.873 122.49 101.728 122.395 101.618 122.223C101.507 122.051 101.44 121.816 101.429 121.564V115.384C101.43 115.255 101.446 115.126 101.476 115.007C101.507 114.887 101.551 114.779 101.606 114.688C101.662 114.598 101.727 114.526 101.799 114.478C101.871 114.429 101.948 114.405 102.026 114.407Z" fill="#263238"/>
<path d="M100.596 114.407C100.674 114.405 100.751 114.429 100.822 114.478C100.894 114.526 100.96 114.598 101.015 114.689C101.07 114.78 101.114 114.888 101.144 115.007C101.174 115.127 101.19 115.255 101.19 115.384V121.564C101.19 121.828 101.128 122.081 101.016 122.267C100.905 122.454 100.754 122.558 100.596 122.558C100.439 122.558 100.288 122.454 100.177 122.267C100.065 122.081 100.003 121.828 100.003 121.564V115.384C100.003 115.255 100.019 115.127 100.049 115.007C100.079 114.888 100.123 114.78 100.178 114.689C100.233 114.598 100.299 114.526 100.371 114.478C100.442 114.429 100.519 114.405 100.596 114.407Z" fill="#263238"/>
<path d="M99.5768 114.407C99.5461 114.594 99.6367 114.774 99.6905 114.956C99.6957 114.974 99.7006 114.992 99.7051 115.01C99.735 115.128 99.7506 115.256 99.7511 115.384V121.564C99.7506 121.693 99.735 121.821 99.7051 121.939C99.6497 122.159 99.4922 122.342 99.2863 122.437C99.1126 122.517 98.9321 122.553 98.7508 122.542C98.0797 122.542 97.6538 122.105 97.799 121.564L99.3219 115.384C99.4213 115.07 99.5065 114.743 99.5768 114.407Z" fill="#263238"/>
<path d="M99.4155 114.693C99.4283 114.672 99.4774 114.694 99.4696 114.717C99.3989 114.934 99.3345 115.157 99.2768 115.384L97.3957 121.564C97.2441 122.105 96.5794 122.542 95.9083 122.542C95.2372 122.542 94.9629 122.105 95.3017 121.564L98.9928 115.384L99.4155 114.693Z" fill="#263238"/>
<path d="M99.3413 114.616C99.3667 114.595 99.422 114.643 99.4059 114.671L98.9929 115.384L95.3018 121.564C94.9791 122.105 94.7178 121.656 94.7178 120.484C94.7178 119.312 94.9791 118.204 95.3018 117.961L98.9929 114.871C99.1113 114.795 99.2275 114.71 99.3413 114.616Z" fill="#263238"/>
<path d="M99.5769 114.41C99.5769 114.408 99.5753 114.408 99.5739 114.408C99.375 114.514 99.1808 114.643 98.9929 114.796L95.3018 117.264C94.9791 117.502 94.7178 116.767 94.7178 115.617C94.7173 115.35 94.7325 115.084 94.763 114.823C94.777 114.706 94.7953 114.59 94.8178 114.477C94.8231 114.435 94.8341 114.396 94.8501 114.363L94.8888 114.293C94.9422 114.2 95.0062 114.125 95.0772 114.074C95.1482 114.023 95.2245 113.997 95.3018 113.996H98.9929C99.0701 113.997 99.1465 114.023 99.2175 114.074C99.2884 114.125 99.3525 114.2 99.4059 114.293L99.4248 114.331C99.4357 114.352 99.438 114.378 99.4515 114.398C99.4545 114.403 99.4578 114.406 99.4612 114.409C99.4702 114.415 99.4826 114.412 99.4936 114.412H99.5749C99.576 114.412 99.5769 114.411 99.5769 114.41Z" fill="#263238"/>
<path d="M99.5769 112.57C99.5786 112.701 99.5649 112.831 99.5364 112.953C99.5079 113.075 99.4653 113.187 99.4111 113.281C99.3568 113.375 99.2919 113.451 99.2202 113.503C99.1484 113.555 99.0712 113.583 98.9929 113.585H95.3018C95.1482 113.567 95.0044 113.451 94.8995 113.262C94.7946 113.073 94.7363 112.825 94.7363 112.567C94.7363 112.309 94.7946 112.061 94.8995 111.872C95.0044 111.683 95.1482 111.568 95.3018 111.549H98.9929C99.0713 111.552 99.1486 111.58 99.2204 111.633C99.2922 111.686 99.357 111.762 99.4113 111.857C99.4655 111.952 99.508 112.063 99.5365 112.186C99.5649 112.308 99.5786 112.439 99.5769 112.57Z" fill="#263238"/>
<path d="M99.5769 110.123C99.5786 110.254 99.5649 110.384 99.5365 110.507C99.508 110.629 99.4655 110.741 99.4113 110.836C99.357 110.931 99.2922 111.007 99.2204 111.059C99.1486 111.112 99.0713 111.141 98.9929 111.144H95.3018C95.1482 111.125 95.0044 111.009 94.8995 110.821C94.7946 110.632 94.7363 110.383 94.7363 110.125C94.7363 109.867 94.7946 109.619 94.8995 109.43C95.0044 109.241 95.1482 109.126 95.3018 109.107H98.9929C99.0712 109.109 99.1484 109.137 99.2202 109.189C99.2919 109.242 99.3568 109.317 99.4111 109.412C99.4653 109.506 99.5079 109.617 99.5364 109.739C99.5649 109.861 99.5786 109.992 99.5769 110.123Z" fill="#263238"/>
<path d="M99.5769 107.681C99.5786 107.812 99.5649 107.943 99.5365 108.065C99.508 108.187 99.4655 108.299 99.4113 108.394C99.357 108.489 99.2922 108.565 99.2204 108.618C99.1486 108.67 99.0713 108.699 98.9929 108.702H95.3018C95.1482 108.683 95.0044 108.568 94.8995 108.379C94.7946 108.19 94.7363 107.942 94.7363 107.684C94.7363 107.426 94.7946 107.177 94.8995 106.988C95.0044 106.799 95.1482 106.684 95.3018 106.665H98.9929C99.0712 106.667 99.1484 106.695 99.2202 106.748C99.2919 106.8 99.3568 106.875 99.4111 106.97C99.4653 107.064 99.5079 107.176 99.5364 107.298C99.5649 107.42 99.5786 107.55 99.5769 107.681Z" fill="#263238"/>
<path d="M99.5769 105.261C99.5786 105.392 99.5649 105.522 99.5364 105.644C99.5079 105.766 99.4653 105.878 99.4111 105.972C99.3568 106.066 99.2919 106.142 99.2202 106.194C99.1484 106.246 99.0712 106.274 98.9929 106.276H95.3018C95.1482 106.258 95.0044 106.142 94.8995 105.953C94.7946 105.764 94.7363 105.516 94.7363 105.258C94.7363 105 94.7946 104.752 94.8995 104.563C95.0044 104.374 95.1482 104.259 95.3018 104.24H98.9929C99.0713 104.243 99.1486 104.271 99.2204 104.324C99.2922 104.377 99.357 104.453 99.4113 104.548C99.4655 104.643 99.508 104.754 99.5365 104.877C99.5649 104.999 99.5786 105.13 99.5769 105.261Z" fill="#263238"/>
<path d="M99.5769 102.792C99.5786 102.923 99.5649 103.054 99.5365 103.176C99.508 103.298 99.4655 103.41 99.4113 103.505C99.357 103.6 99.2922 103.676 99.2204 103.729C99.1486 103.782 99.0713 103.81 98.9929 103.813H95.3018C95.1482 103.794 95.0044 103.679 94.8995 103.49C94.7946 103.301 94.7363 103.053 94.7363 102.795C94.7363 102.537 94.7946 102.288 94.8995 102.099C95.0044 101.911 95.1482 101.795 95.3018 101.776H98.9929C99.0712 101.778 99.1484 101.806 99.2202 101.859C99.2919 101.911 99.3568 101.986 99.4111 102.081C99.4653 102.175 99.5079 102.287 99.5364 102.409C99.5649 102.531 99.5786 102.661 99.5769 102.792Z" fill="#263238"/>
<path d="M99.5769 100.35C99.5786 100.481 99.5649 100.611 99.5364 100.734C99.5079 100.856 99.4653 100.967 99.4111 101.061C99.3568 101.156 99.2919 101.231 99.2202 101.283C99.1484 101.336 99.0712 101.364 98.9929 101.366H95.3018C95.1482 101.347 95.0044 101.232 94.8995 101.043C94.7946 100.854 94.7363 100.605 94.7363 100.348C94.7363 100.09 94.7946 99.8412 94.8995 99.6523C95.0044 99.4634 95.1482 99.348 95.3018 99.3292H98.9929C99.0713 99.332 99.1486 99.3607 99.2204 99.4135C99.2922 99.4663 99.357 99.5423 99.4113 99.6371C99.4655 99.732 99.508 99.8437 99.5365 99.9661C99.5649 100.088 99.5786 100.219 99.5769 100.35Z" fill="#263238"/>
<path d="M99.5768 97.3034C99.5763 97.5701 99.5601 97.8361 99.5284 98.0975C99.5154 98.2144 99.4982 98.3298 99.4768 98.4432C99.4753 98.4535 99.4735 98.4636 99.4712 98.4734C99.4586 98.5277 99.4343 98.579 99.4058 98.6269C99.3525 98.7204 99.2884 98.7948 99.2174 98.8459C99.1465 98.897 99.0701 98.9235 98.9928 98.924H95.3017C95.2245 98.9235 95.1481 98.897 95.0771 98.8459C95.0062 98.7948 94.9421 98.7204 94.8887 98.6269L94.8632 98.577C94.8545 98.5601 94.852 98.54 94.8421 98.5238C94.8365 98.5148 94.8291 98.5086 94.8232 98.5074C94.8196 98.5067 94.8158 98.508 94.8122 98.508C94.7895 98.508 94.7819 98.4768 94.8019 98.466C94.9746 98.3723 95.1428 98.2563 95.3049 98.1191L98.9961 95.6557C99.3155 95.4126 99.5768 96.1527 99.5768 97.3034Z" fill="#263238"/>
<path d="M99.5769 92.4146C99.5769 93.5652 99.3155 94.6943 98.9929 94.9374L95.3018 98.022C95.1829 98.1062 95.0658 98.1977 94.9509 98.2961C94.927 98.3166 94.8726 98.2705 94.8888 98.2435L95.3018 97.5358L98.9929 91.3558C99.3155 90.7885 99.5769 91.2639 99.5769 92.4146Z" fill="#263238"/>
<path d="M98.425 90.3779C99.0703 90.3779 99.3284 90.8155 98.9929 91.3557L95.3018 97.5357L94.8759 98.238C94.8201 98.3266 94.7673 98.4204 94.7178 98.5189C94.833 98.2068 94.9354 97.882 95.0243 97.5465L96.9602 91.3665C97.1247 90.8155 97.7797 90.3779 98.425 90.3779Z" fill="#263238"/>
<path d="M95.6697 90.378C96.315 90.378 96.7183 90.8155 96.5666 91.3557L94.9534 97.5358C94.8835 97.7634 94.8202 97.9964 94.7636 98.234C94.7571 98.2612 94.7031 98.2552 94.7017 98.2272C94.7017 98.1309 94.6808 98.0361 94.6548 97.9434C94.652 97.9336 94.6494 97.9238 94.6469 97.9139C94.6167 97.7943 94.6013 97.6656 94.6017 97.5358V91.3557C94.6017 91.2242 94.617 91.0939 94.6469 90.9722C94.6745 90.8618 94.7308 90.7586 94.8157 90.6827C94.8228 90.6764 94.83 90.6702 94.8372 90.6643C95.0972 90.4598 95.3826 90.3617 95.6697 90.378Z" fill="#263238"/>
<path d="M93.8142 90.3779C93.9677 90.3808 94.1142 90.4852 94.2218 90.6684C94.3294 90.8517 94.3894 91.0987 94.3885 91.3557V97.5357C94.3885 97.7908 94.328 98.0353 94.2203 98.2157C94.1126 98.396 93.9665 98.4973 93.8142 98.4973C93.6619 98.4973 93.5158 98.396 93.4081 98.2157C93.3004 98.0353 93.2399 97.7908 93.2399 97.5357V91.3557C93.239 91.0987 93.2989 90.8517 93.4065 90.6684C93.5142 90.4852 93.6607 90.3808 93.8142 90.3779Z" fill="#263238"/>
<path d="M92.4365 90.3779C92.59 90.3808 92.7366 90.4852 92.8442 90.6684C92.9518 90.8517 93.0117 91.0987 93.0109 91.3557V97.5357C93.0109 97.7908 92.9503 98.0353 92.8426 98.2157C92.7349 98.396 92.5889 98.4973 92.4365 98.4973C92.2842 98.4973 92.1381 98.396 92.0304 98.2157C91.9227 98.0353 91.8622 97.7908 91.8622 97.5357V91.3557C91.8614 91.2283 91.8756 91.1018 91.904 90.9836C91.9324 90.8654 91.9746 90.7577 92.0279 90.6669C92.0813 90.576 92.1449 90.5037 92.215 90.4541C92.2851 90.4045 92.3604 90.3786 92.4365 90.3779Z" fill="#263238"/>
<path d="M91.0589 90.3779C91.2123 90.3808 91.3589 90.4852 91.4665 90.6684C91.5741 90.8517 91.6341 91.0987 91.6332 91.3557V97.5357C91.6336 97.6627 91.6191 97.7886 91.5905 97.9062C91.5618 98.0238 91.5197 98.1308 91.4663 98.2211C91.413 98.3114 91.3496 98.3832 91.2797 98.4324C91.2097 98.4817 91.1347 98.5074 91.0589 98.5081C90.9828 98.5081 90.9074 98.4829 90.8371 98.434C90.7668 98.3851 90.703 98.3133 90.6494 98.223C90.5957 98.1326 90.5532 98.0254 90.5244 97.9074C90.4955 97.7895 90.4809 97.6632 90.4813 97.5357V91.3557C90.4809 91.228 90.4955 91.1014 90.5243 90.9832C90.5531 90.8649 90.5955 90.7573 90.6492 90.6665C90.7028 90.5758 90.7666 90.5035 90.8369 90.454C90.9072 90.4045 90.9826 90.3786 91.0589 90.3779Z" fill="#263238"/>
<path d="M91.4605 101.814C90.7904 102.279 90.0813 101.612 90.0813 100.797V89.9972C90.0813 88.2056 91.711 86.9824 92.6297 88.5205C93.3056 89.6522 93.6853 91.187 93.6853 92.7873V96.2393C93.6853 97.0317 93.5921 97.8164 93.411 98.5485C93.2298 99.2806 92.9644 99.9458 92.6297 100.506C92.295 101.066 91.8977 101.511 91.4605 101.814Z" fill="white" stroke="#263238" stroke-linecap="round" stroke-linejoin="round"/>
<path d="M80.8115 104.735C80.8115 109.717 86.6123 112.448 90.4523 109.275C90.9075 108.899 91.2908 108.317 91.5588 107.595C91.8267 106.873 91.9688 106.04 91.9688 105.191V84.1223C91.9688 83.2725 91.8267 82.4396 91.5588 81.7178C91.2908 80.9961 90.9075 80.4143 90.4523 80.0383C86.6123 76.8645 80.8115 79.5958 80.8115 84.5776V104.735Z" fill="white" stroke="#263238" stroke-linecap="round" stroke-linejoin="round"/>
<path d="M98.838 126.108H105.962" stroke="#263238" stroke-linecap="round" stroke-linejoin="round"/>
<path d="M97.4152 128.198H100.264" stroke="#263238" stroke-linecap="round" stroke-linejoin="round"/>
<path d="M101.865 95.229V106.86" stroke="#263238" stroke-linecap="round" stroke-linejoin="round"/>
<path d="M100.619 99.4047V92.2523" stroke="#263238" stroke-linecap="round" stroke-linejoin="round"/>
<path d="M92.4269 114.012V119.976" stroke="#263238" stroke-linecap="round" stroke-linejoin="round"/>
<path d="M93.6757 111.927V117.297" stroke="#263238" stroke-linecap="round" stroke-linejoin="round"/>
<path d="M154.94 72.0431H156.792" stroke="#263238" stroke-width="9" stroke-linecap="round" stroke-linejoin="round"/>
<path d="M140.728 109.291H141.142C145.008 109.291 148.142 106.157 148.142 102.291V78.8413C148.142 75.0868 151.186 72.0431 154.94 72.0431V72.0431" stroke="#263238" stroke-width="4" stroke-linecap="round" stroke-linejoin="round"/>
<path d="M154.94 147.23H157.205" stroke="#263238" stroke-width="9" stroke-linecap="round" stroke-linejoin="round"/>
<path d="M139.285 120.673H140.936C144.802 120.673 147.936 123.807 147.936 127.673V140.23C147.936 144.096 151.074 147.23 154.94 147.23V147.23" stroke="#263238" stroke-width="4" stroke-linecap="round" stroke-linejoin="round"/>
<path d="M112.583 74.0311V74.0311C111.562 74.0311 110.734 74.8589 110.734 75.8799V102.074" stroke="#263238" stroke-width="4" stroke-linecap="round" stroke-linejoin="round"/>
<path d="M114.022 74.0311H112.583" stroke="#263238" stroke-width="7" stroke-linecap="round" stroke-linejoin="round"/>
<path d="M130.551 95.4878V88.7797C130.551 86.4462 128.66 84.5546 126.326 84.5546C123.993 84.5546 122.101 86.4462 122.101 88.7797V95.4878C122.101 97.8213 123.993 99.7129 126.326 99.7129C128.66 99.7129 130.551 97.8213 130.551 95.4878Z" fill="#263238" stroke="#263238" stroke-linecap="round" stroke-linejoin="round"/>
<path d="M138.34 73.0853V67.7382C138.34 65.4466 136.482 63.5889 134.191 63.5889C131.899 63.5889 130.042 65.4466 130.042 67.7381V73.0853C130.042 75.3769 131.899 77.2346 134.191 77.2346C136.482 77.2346 138.34 75.3769 138.34 73.0853Z" fill="#263238" stroke="#263238" stroke-linecap="round" stroke-linejoin="round"/>
<path d="M135.023 77.2293C136.907 77.2293 138.314 78.9844 137.679 80.7578C136.815 83.1694 135.676 85.2897 134.321 86.9917C132.337 89.4827 129.97 90.9748 127.497 91.2929C125.025 91.6111 122.549 90.7421 120.361 88.7878C118.174 86.8336 116.364 83.8753 115.145 80.2598C113.995 76.8757 113.413 73.0345 113.46 69.1423C113.46 68.802 113.46 68.4562 113.477 68.1159C113.68 62.8837 115 57.9482 117.196 54.2102C119.392 50.4721 122.317 48.1808 125.439 47.7543C128.56 47.3278 131.669 48.7946 134.198 51.8871C136.023 54.1189 137.458 57.09 138.382 60.4909C138.962 62.6305 137.237 64.5991 135.02 64.5991C134.525 64.5991 134.034 64.7625 133.576 65.0798C133.119 65.3972 132.703 65.8623 132.353 66.4488C132.003 67.0352 131.725 67.7313 131.535 68.4975C131.346 69.2637 131.248 70.0849 131.248 70.9142C131.248 71.7435 131.346 72.5647 131.535 73.3309C131.725 74.097 132.003 74.7932 132.353 75.3796C132.703 75.966 133.119 76.4312 133.576 76.7486C134.034 77.0659 134.525 77.2293 135.02 77.2293H135.023Z" fill="white" stroke="#263238" stroke-linecap="round" stroke-linejoin="round"/>
<path d="M127.476 70.4064H131.251" stroke="#263238" stroke-linecap="round" stroke-linejoin="round"/>
<path d="M124.46 48.679V90.3671" stroke="#263238" stroke-linecap="round" stroke-linejoin="round"/>
<path d="M124.156 75.9651C125.99 75.9651 127.476 73.4763 127.476 70.4063C127.476 67.3363 125.99 64.8475 124.156 64.8475C122.323 64.8475 120.836 67.3363 120.836 70.4063C120.836 73.4763 122.323 75.9651 124.156 75.9651Z" fill="#263238" stroke="#263238" stroke-linecap="round" stroke-linejoin="round"/>
<path d="M125.818 70.4063C125.818 69.8559 125.72 69.3178 125.538 68.8601C125.355 68.4025 125.095 68.0459 124.791 67.8355C124.488 67.6251 124.153 67.5703 123.831 67.6781C123.509 67.7859 123.212 68.0514 122.98 68.441C122.748 68.8307 122.59 69.3269 122.526 69.8669C122.462 70.4069 122.496 70.9665 122.622 71.4748C122.748 71.983 122.962 72.4172 123.235 72.7222C123.509 73.0273 123.831 73.1895 124.16 73.1884C124.378 73.1884 124.593 73.1164 124.795 72.9766C124.996 72.8367 125.179 72.6317 125.333 72.3733C125.487 72.1149 125.609 71.8081 125.693 71.4706C125.776 71.1331 125.818 70.7714 125.818 70.4063Z" fill="white" stroke="#263238" stroke-linecap="round" stroke-linejoin="round"/>
<path d="M135.323 73.183C136.239 73.183 136.982 71.9398 136.982 70.4063C136.982 68.8728 136.239 67.6296 135.323 67.6296C134.407 67.6296 133.665 68.8728 133.665 70.4063C133.665 71.9398 134.407 73.183 135.323 73.183Z" fill="#4268CB"/>
<path d="M115.547 69.1422C116.718 69.1422 117.668 70.0919 117.668 71.2635V78.7842C117.668 79.5991 117.007 80.2598 116.192 80.2598C115.56 80.2598 114.995 79.8583 114.814 79.2527C114.065 76.7475 113.614 74.0248 113.486 71.2375C113.433 70.0772 114.385 69.1422 115.547 69.1422Z" fill="#263238" stroke="#263238" stroke-linecap="round" stroke-linejoin="round"/>
<path d="M126.328 143.346V176.164" stroke="#263238" stroke-width="3" stroke-linecap="round" stroke-linejoin="round"/>
<path d="M126.328 166.04C129.111 166.04 131.368 162.262 131.368 157.602C131.368 152.942 129.111 149.164 126.328 149.164C123.544 149.164 121.288 152.942 121.288 157.602C121.288 162.262 123.544 166.04 126.328 166.04Z" fill="white" stroke="#263238" stroke-linecap="round" stroke-linejoin="round"/>
<path d="M126.328 178.53C127.664 178.53 128.748 176.716 128.748 174.478C128.748 172.24 127.664 170.427 126.328 170.427C124.991 170.427 123.908 172.24 123.908 174.478C123.908 176.716 124.991 178.53 126.328 178.53Z" fill="white" stroke="#263238" stroke-linecap="round" stroke-linejoin="round"/>
<path d="M144.38 105.412L138.814 133.184C137.262 140.92 132.558 146.203 127.225 146.203H125.428C120.094 146.203 115.39 140.92 113.841 133.184L108.272 105.412C107.427 101.193 109.511 96.936 112.418 96.936H140.234C143.144 96.936 145.225 101.193 144.38 105.412Z" fill="white" stroke="#263238" stroke-linecap="round" stroke-linejoin="round"/>
<path d="M142.054 108.016C141.38 107.708 140.661 107.842 140.044 108.39C139.426 108.938 138.957 109.859 138.731 110.965L134.233 132.963C134.014 134.035 134.039 135.204 134.303 136.247C134.568 137.29 135.053 138.133 135.665 138.613C136.169 139.016 136.916 138.863 137.183 138.277C137.884 136.74 138.432 135.021 138.805 133.184L143.341 110.545C143.549 109.506 143.017 108.459 142.054 108.016Z" fill="white" stroke="#263238" stroke-linecap="round" stroke-linejoin="round"/>
<path d="M113.786 110.965C113.56 109.859 113.09 108.938 112.473 108.39C111.856 107.842 111.137 107.708 110.463 108.016C109.567 108.424 109.071 109.395 109.264 110.361L113.841 133.184C114.214 135.032 114.766 136.761 115.473 138.304C115.717 138.835 116.393 138.976 116.852 138.613C117.462 138.129 117.944 137.285 118.207 136.243C118.469 135.2 118.493 134.033 118.274 132.963L113.786 110.965Z" fill="white" stroke="#263238" stroke-linecap="round" stroke-linejoin="round"/>
<path d="M132.236 96.936C133.761 96.936 135.082 98.33 134.237 99.5996C133.779 100.289 133.184 100.67 132.568 100.669H119.662C119.046 100.67 118.451 100.289 117.992 99.5996C117.147 98.33 118.468 96.936 119.993 96.936H132.236Z" fill="white" stroke="#263238" stroke-linecap="round" stroke-linejoin="round"/>
<path d="M126.341 146.047V100.669" stroke="#263238" stroke-linecap="round" stroke-linejoin="round"/>
<path d="M133.671 106.071H118.984C118.083 106.071 117.352 107.295 117.352 108.805V120.008C117.352 121.518 118.083 122.742 118.984 122.742H133.671C134.573 122.742 135.304 121.518 135.304 120.008V108.805C135.304 107.295 134.573 106.071 133.671 106.071Z" fill="#4268CB" stroke="#263238" stroke-linecap="round" stroke-linejoin="round"/>
<path d="M124.021 108.189C124.469 108.189 124.666 108.642 124.666 109.388V111.819C124.666 112.559 124.463 113.013 124.021 113.013C123.647 113.013 123.343 112.709 123.343 112.335V108.866C123.343 108.492 123.647 108.189 124.021 108.189ZM124.021 112.51C124.253 112.51 124.363 112.267 124.363 111.824V109.345C124.363 108.902 124.253 108.664 124.018 108.664C123.827 108.664 123.672 108.819 123.672 109.009V112.162C123.672 112.354 123.828 112.51 124.021 112.51Z" fill="#263238"/>
<path d="M125.659 112.04C125.452 112.04 125.277 112.196 125.253 112.402L125.197 112.884C125.189 112.957 125.127 113.013 125.052 113.013C124.965 113.013 124.897 112.937 124.907 112.85L125.414 108.42C125.429 108.288 125.54 108.189 125.673 108.189C125.805 108.189 125.916 108.288 125.932 108.42L126.436 112.834C126.447 112.929 126.373 113.013 126.277 113.013C126.196 113.013 126.127 112.952 126.118 112.871L126.065 112.403C126.042 112.197 125.867 112.04 125.659 112.04ZM125.374 111.261C125.355 111.431 125.488 111.581 125.66 111.581C125.832 111.581 125.965 111.431 125.945 111.261C125.906 110.922 125.414 110.922 125.374 111.261Z" fill="#263238"/>
<path d="M127.125 113.013C127.037 113.013 126.967 112.942 126.967 112.855V108.957C126.967 108.81 126.848 108.691 126.701 108.691H126.68C126.544 108.691 126.434 108.581 126.434 108.445C126.434 108.31 126.544 108.2 126.68 108.2H127.569C127.705 108.2 127.815 108.31 127.815 108.445C127.815 108.581 127.705 108.691 127.569 108.691H127.549C127.402 108.691 127.283 108.81 127.283 108.957V112.855C127.283 112.942 127.212 113.013 127.125 113.013Z" fill="#263238"/>
<path d="M128.566 112.04C128.359 112.04 128.184 112.196 128.16 112.402L128.105 112.882C128.096 112.957 128.033 113.013 127.958 113.013C127.87 113.013 127.801 112.936 127.811 112.848L128.318 108.421C128.333 108.289 128.445 108.189 128.578 108.189C128.712 108.189 128.824 108.289 128.839 108.421L129.344 112.834C129.354 112.929 129.28 113.013 129.184 113.013C129.103 113.013 129.034 112.952 129.025 112.871L128.972 112.403C128.949 112.197 128.774 112.04 128.566 112.04ZM128.281 111.261C128.262 111.431 128.395 111.581 128.567 111.581C128.739 111.581 128.872 111.431 128.853 111.261C128.813 110.922 128.321 110.922 128.281 111.261Z" fill="#263238"/>
<path d="M119.718 116.962C119.851 116.962 119.959 117.069 119.959 117.202C119.959 117.335 119.851 117.443 119.718 117.443H119.6C119.403 117.443 119.242 117.603 119.242 117.801V118.728C119.242 118.967 119.436 119.161 119.675 119.161H119.864C119.998 119.161 120.107 119.269 120.107 119.404C120.107 119.538 119.998 119.647 119.864 119.647H119.513C119.185 119.647 118.92 119.381 118.92 119.053V115.416C118.92 115.088 119.185 114.823 119.513 114.823H119.861C119.997 114.823 120.107 114.933 120.107 115.068C120.107 115.204 119.997 115.314 119.861 115.314H119.675C119.436 115.314 119.242 115.508 119.242 115.747V116.604C119.242 116.802 119.403 116.962 119.6 116.962H119.718Z" fill="#263238"/>
<path d="M121.533 119.31C121.434 118.883 120.826 118.883 120.727 119.31L120.676 119.532C120.66 119.599 120.601 119.647 120.532 119.647C120.437 119.647 120.367 119.558 120.388 119.466L120.841 117.527C120.897 117.287 120.898 117.037 120.841 116.796L120.426 115.015C120.403 114.917 120.478 114.823 120.579 114.823C120.652 114.823 120.716 114.873 120.732 114.944L120.773 115.122C120.864 115.521 121.432 115.522 121.525 115.123L121.568 114.937C121.584 114.87 121.643 114.823 121.712 114.823C121.807 114.823 121.878 114.911 121.857 115.004L121.451 116.785C121.397 117.022 121.397 117.269 121.452 117.505L121.899 119.428C121.923 119.532 121.845 119.631 121.739 119.631C121.662 119.631 121.595 119.578 121.578 119.503L121.533 119.31Z" fill="#263238"/>
<path d="M122.78 119.647C122.692 119.647 122.621 119.575 122.621 119.487V115.59C122.621 115.443 122.502 115.325 122.356 115.325H122.337C122.201 115.325 122.091 115.215 122.091 115.079C122.091 114.943 122.201 114.833 122.337 114.833H123.223C123.359 114.833 123.469 114.943 123.469 115.079C123.469 115.215 123.359 115.325 123.223 115.325H123.205C123.058 115.325 122.94 115.443 122.94 115.59V119.487C122.94 119.575 122.868 119.647 122.78 119.647Z" fill="#263238"/>
<path d="M124.331 114.823C124.782 114.823 124.976 115.212 124.976 115.903V116.297C124.995 116.507 124.97 116.721 124.904 116.903C124.833 117.101 124.844 117.472 124.906 117.673C124.957 117.839 124.979 118.049 124.979 118.296V119.047C124.972 119.175 124.979 119.304 124.997 119.429C125.012 119.529 124.938 119.625 124.836 119.625C124.765 119.625 124.702 119.576 124.69 119.506C124.664 119.355 124.655 119.198 124.663 119.042V118.28C124.663 117.74 124.508 117.567 124.24 117.567C124.116 117.567 124.014 117.668 124.014 117.793V119.464C124.014 119.553 123.942 119.625 123.853 119.625C123.764 119.625 123.692 119.553 123.692 119.464V115.461C123.692 115.109 123.978 114.823 124.331 114.823ZM124.247 117.097C124.502 117.097 124.656 116.962 124.656 116.438V115.973C124.656 115.541 124.56 115.314 124.334 115.314C124.156 115.314 124.011 115.459 124.011 115.637V116.861C124.011 116.991 124.117 117.097 124.247 117.097Z" fill="#263238"/>
<path d="M125.998 118.674C125.791 118.674 125.617 118.83 125.593 119.036L125.539 119.516C125.531 119.59 125.468 119.647 125.393 119.647C125.305 119.647 125.236 119.57 125.246 119.483L125.753 115.053C125.768 114.922 125.879 114.823 126.012 114.823C126.144 114.823 126.255 114.922 126.27 115.053L126.775 119.468C126.786 119.563 126.712 119.647 126.616 119.647C126.534 119.647 126.466 119.586 126.456 119.505L126.402 119.034C126.378 118.829 126.204 118.674 125.998 118.674ZM125.713 117.895C125.693 118.065 125.827 118.215 125.999 118.215C126.171 118.215 126.304 118.065 126.284 117.895C126.245 117.555 125.752 117.555 125.713 117.895Z" fill="#263238"/>
<path d="M128.315 115.989V116.268C128.315 116.353 128.247 116.422 128.162 116.422C128.077 116.422 128.009 116.353 128.009 116.268V115.962C128.009 115.525 127.909 115.266 127.686 115.266C127.463 115.266 127.347 115.525 127.347 115.962V118.512C127.347 118.944 127.454 119.209 127.686 119.209C127.918 119.209 128.009 118.944 128.009 118.512V118.039C128.009 117.954 128.077 117.886 128.162 117.886C128.247 117.886 128.315 117.954 128.315 118.039V118.485C128.315 119.214 128.109 119.695 127.67 119.695C127.231 119.695 127.025 119.214 127.025 118.485V115.989C127.025 115.255 127.231 114.774 127.67 114.774C128.109 114.774 128.315 115.255 128.315 115.989Z" fill="#263238"/>
<path d="M129.182 119.647C129.093 119.647 129.022 119.575 129.022 119.487V115.59C129.022 115.443 128.903 115.325 128.757 115.325H128.739C128.603 115.325 128.493 115.215 128.493 115.079C128.493 114.943 128.603 114.833 128.739 114.833H129.625C129.76 114.833 129.871 114.943 129.871 115.079C129.871 115.215 129.76 115.325 129.625 115.325H129.606C129.46 115.325 129.341 115.443 129.341 115.59V119.487C129.341 119.575 129.27 119.647 129.182 119.647Z" fill="#263238"/>
<path d="M130.248 114.823C130.337 114.823 130.409 114.895 130.409 114.984V119.485C130.409 119.574 130.337 119.647 130.248 119.647C130.159 119.647 130.087 119.574 130.087 119.485V114.984C130.087 114.895 130.159 114.823 130.248 114.823Z" fill="#263238"/>
<path d="M130.716 115.989C130.716 115.249 130.932 114.774 131.361 114.774C131.79 114.774 132.006 115.249 132.006 115.989V118.485C132.006 119.214 131.79 119.695 131.361 119.695C130.932 119.695 130.716 119.214 130.716 118.485V115.989ZM131.038 118.512C131.038 118.95 131.148 119.209 131.38 119.209C131.613 119.209 131.722 118.95 131.722 118.512V115.962C131.722 115.525 131.616 115.266 131.38 115.266C131.145 115.266 131.038 115.525 131.038 115.962V118.512Z" fill="#263238"/>
<path d="M132.626 119.502C132.626 119.582 132.561 119.647 132.481 119.647C132.401 119.647 132.336 119.582 132.336 119.501V115.047C132.336 114.923 132.436 114.823 132.56 114.823C132.667 114.823 132.76 114.899 132.78 115.005L132.813 115.18C132.882 115.539 133.41 115.489 133.41 115.124V114.965C133.41 114.886 133.474 114.823 133.552 114.823C133.63 114.823 133.694 114.886 133.694 114.965V119.47C133.694 119.568 133.615 119.647 133.518 119.647C133.433 119.647 133.36 119.586 133.344 119.503L133.296 119.248C133.22 118.846 132.628 118.9 132.627 119.31L132.626 119.502Z" fill="#263238"/>
<path d="M126.328 131.191C127.397 131.191 128.264 129.74 128.264 127.95C128.264 126.16 127.397 124.708 126.328 124.708C125.259 124.708 124.392 126.16 124.392 127.95C124.392 129.74 125.259 131.191 126.328 131.191Z" fill="#263238" stroke="#263238" stroke-linecap="round" stroke-linejoin="round"/>
<path d="M126.328 129.3C126.773 129.3 127.134 128.696 127.134 127.95C127.134 127.204 126.773 126.599 126.328 126.599C125.882 126.599 125.521 127.204 125.521 127.95C125.521 128.696 125.882 129.3 126.328 129.3Z" fill="#4268CB"/>
<path d="M204.838 38.9607H160.206C157.89 38.9607 156.012 42.1049 156.012 45.9834V97.5304C156.012 101.409 157.89 104.553 160.206 104.553H204.838C207.155 104.553 209.033 101.409 209.033 97.5304V45.9834C209.033 42.1049 207.155 38.9607 204.838 38.9607Z" fill="#263238" stroke="#263238" stroke-linecap="round" stroke-linejoin="round"/>
<path d="M203.812 42.9636H161.232C159.582 42.9636 158.244 45.2033 158.244 47.966V95.5424C158.244 98.3051 159.582 100.545 161.232 100.545H203.812C205.462 100.545 206.8 98.3051 206.8 95.5424V47.966C206.8 45.2033 205.462 42.9636 203.812 42.9636Z" fill="white" stroke="#263238" stroke-linecap="round" stroke-linejoin="round"/>
<path d="M201.85 52.5848H165.701C165.052 52.5848 164.526 53.1109 164.526 53.7598C164.526 54.4087 165.052 54.9348 165.701 54.9348H201.85C202.499 54.9348 203.025 54.4087 203.025 53.7598C203.025 53.1109 202.499 52.5848 201.85 52.5848Z" fill="#E0E0E0"/>
<path d="M201.85 58.1166H165.701C165.052 58.1166 164.526 58.6426 164.526 59.2915C164.526 59.9405 165.052 60.4665 165.701 60.4665H201.85C202.499 60.4665 203.025 59.9405 203.025 59.2915C203.025 58.6426 202.499 58.1166 201.85 58.1166Z" fill="#E0E0E0"/>
<path d="M201.85 63.6482H165.701C165.052 63.6482 164.526 64.1742 164.526 64.8232C164.526 65.4721 165.052 65.9981 165.701 65.9981H201.85C202.499 65.9981 203.025 65.4721 203.025 64.8232C203.025 64.1742 202.499 63.6482 201.85 63.6482Z" fill="#E0E0E0"/>
<path d="M201.85 69.1857H165.701C165.052 69.1857 164.526 69.7117 164.526 70.3606C164.526 71.0095 165.052 71.5356 165.701 71.5356H201.85C202.499 71.5356 203.025 71.0095 203.025 70.3606C203.025 69.7117 202.499 69.1857 201.85 69.1857Z" fill="#E0E0E0"/>
<path d="M201.85 74.7173H165.701C165.052 74.7173 164.526 75.2433 164.526 75.8922C164.526 76.5412 165.052 77.0672 165.701 77.0672H201.85C202.499 77.0672 203.025 76.5412 203.025 75.8922C203.025 75.2433 202.499 74.7173 201.85 74.7173Z" fill="#E0E0E0"/>
<path d="M201.85 80.249H165.701C165.052 80.249 164.526 80.7751 164.526 81.424C164.526 82.0729 165.052 82.5989 165.701 82.5989H201.85C202.499 82.5989 203.025 82.0729 203.025 81.424C203.025 80.7751 202.499 80.249 201.85 80.249Z" fill="#E0E0E0"/>
<path d="M201.85 85.7808H165.701C165.052 85.7808 164.526 86.3068 164.526 86.9557C164.526 87.6046 165.052 88.1307 165.701 88.1307H201.85C202.499 88.1307 203.025 87.6046 203.025 86.9557C203.025 86.3068 202.499 85.7808 201.85 85.7808Z" fill="#E0E0E0"/>
<path d="M168.524 90.4319V68.2509C168.524 67.2156 167.685 66.3763 166.649 66.3763C165.614 66.3763 164.775 67.2156 164.775 68.2509V90.4319C164.775 91.4672 165.614 92.3065 166.649 92.3065C167.685 92.3065 168.524 91.4672 168.524 90.4319Z" fill="#263238"/>
<path d="M174.257 90.4319V75.5222C174.257 74.4869 173.418 73.6476 172.383 73.6476C171.348 73.6476 170.508 74.4869 170.508 75.5222V90.4319C170.508 91.4672 171.348 92.3065 172.383 92.3065C173.418 92.3065 174.257 91.4672 174.257 90.4319Z" fill="#4268CB"/>
<path d="M179.991 90.432V71.0007C179.991 69.9654 179.152 69.1261 178.116 69.1261C177.081 69.1261 176.242 69.9654 176.242 71.0007V90.432C176.242 91.4673 177.081 92.3066 178.116 92.3066C179.152 92.3066 179.991 91.4673 179.991 90.432Z" fill="#263238"/>
<path d="M185.728 90.4373V80.3733C185.728 79.3379 184.888 78.4987 183.853 78.4987C182.818 78.4987 181.979 79.3379 181.979 80.3733V90.4373C181.979 91.4726 182.818 92.3119 183.853 92.3119C184.888 92.3119 185.728 91.4726 185.728 90.4373Z" fill="#4268CB"/>
<path d="M191.461 90.4374V71.4869C191.461 70.4516 190.622 69.6123 189.587 69.6123C188.551 69.6123 187.712 70.4516 187.712 71.4869V90.4374C187.712 91.4727 188.551 92.312 189.587 92.312C190.622 92.312 191.461 91.4727 191.461 90.4374Z" fill="#263238"/>
<path d="M197.198 90.432V65.5068C197.198 64.4715 196.359 63.6322 195.323 63.6322C194.288 63.6322 193.449 64.4715 193.449 65.5068V90.432C193.449 91.4673 194.288 92.3066 195.323 92.3066C196.359 92.3066 197.198 91.4673 197.198 90.432Z" fill="#4268CB"/>
<path d="M202.931 90.432V61.7901C202.931 60.7548 202.092 59.9155 201.057 59.9155C200.022 59.9155 199.182 60.7548 199.182 61.7901V90.432C199.182 91.4673 200.022 92.3066 201.057 92.3066C202.092 92.3066 202.931 91.4673 202.931 90.432Z" fill="#263238"/>
<path d="M161.687 53.0223H162.968" stroke="#263238" stroke-linecap="round" stroke-linejoin="round"/>
<path d="M161.687 56.1014H162.968" stroke="#263238" stroke-linecap="round" stroke-linejoin="round"/>
<path d="M161.687 59.1864H162.968" stroke="#263238" stroke-linecap="round" stroke-linejoin="round"/>
<path d="M161.687 62.2708H162.968" stroke="#263238" stroke-linecap="round" stroke-linejoin="round"/>
<path d="M161.687 65.3555H162.968" stroke="#263238" stroke-linecap="round" stroke-linejoin="round"/>
<path d="M161.687 68.4347H162.968" stroke="#263238" stroke-linecap="round" stroke-linejoin="round"/>
<path d="M161.687 71.5192H162.968" stroke="#263238" stroke-linecap="round" stroke-linejoin="round"/>
<path d="M161.687 74.6038H162.968" stroke="#263238" stroke-linecap="round" stroke-linejoin="round"/>
<path d="M161.687 77.6884H162.968" stroke="#263238" stroke-linecap="round" stroke-linejoin="round"/>
<path d="M161.687 80.7677H162.968" stroke="#263238" stroke-linecap="round" stroke-linejoin="round"/>
<path d="M161.687 83.8523H162.968" stroke="#263238" stroke-linecap="round" stroke-linejoin="round"/>
<path d="M161.687 86.9369H162.968" stroke="#263238" stroke-linecap="round" stroke-linejoin="round"/>
<path d="M161.687 90.0215H162.968" stroke="#263238" stroke-linecap="round" stroke-linejoin="round"/>
<path d="M161.687 93.1007H162.968" stroke="#263238" stroke-linecap="round" stroke-linejoin="round"/>
<path d="M203.038 93.9867V96.1313" stroke="#263238" stroke-linecap="round" stroke-linejoin="round"/>
<path d="M199.979 93.9867V96.1313" stroke="#263238" stroke-linecap="round" stroke-linejoin="round"/>
<path d="M196.92 93.9867V96.1313" stroke="#263238" stroke-linecap="round" stroke-linejoin="round"/>
<path d="M193.865 93.9867V96.1313" stroke="#263238" stroke-linecap="round" stroke-linejoin="round"/>
<path d="M190.806 93.9867V96.1313" stroke="#263238" stroke-linecap="round" stroke-linejoin="round"/>
<path d="M187.747 93.9867V96.1313" stroke="#263238" stroke-linecap="round" stroke-linejoin="round"/>
<path d="M184.692 93.9867V96.1313" stroke="#263238" stroke-linecap="round" stroke-linejoin="round"/>
<path d="M181.633 93.9867V96.1313" stroke="#263238" stroke-linecap="round" stroke-linejoin="round"/>
<path d="M178.574 93.9867V96.1313" stroke="#263238" stroke-linecap="round" stroke-linejoin="round"/>
<path d="M175.519 93.9867V96.1313" stroke="#263238" stroke-linecap="round" stroke-linejoin="round"/>
<path d="M172.46 93.9867V96.1313" stroke="#263238" stroke-linecap="round" stroke-linejoin="round"/>
<path d="M169.401 93.9867V96.1313" stroke="#263238" stroke-linecap="round" stroke-linejoin="round"/>
<path d="M166.343 93.9867V96.1313" stroke="#263238" stroke-linecap="round" stroke-linejoin="round"/>
<path d="M163.287 93.9867V96.1313" stroke="#263238" stroke-linecap="round" stroke-linejoin="round"/>
<path d="M185.473 47.2313H179.252C178.602 47.2313 178.074 47.7586 178.074 48.409C178.074 49.0594 178.602 49.5866 179.252 49.5866H185.473C186.123 49.5866 186.65 49.0594 186.65 48.409C186.65 47.7586 186.123 47.2313 185.473 47.2313Z" fill="#263238"/>
<path d="M204.838 112.51H160.206C157.89 112.51 156.012 115.655 156.012 119.533V171.08C156.012 174.959 157.89 178.103 160.206 178.103H204.838C207.155 178.103 209.033 174.959 209.033 171.08V119.533C209.033 115.655 207.155 112.51 204.838 112.51Z" fill="#263238" stroke="#263238" stroke-linecap="round" stroke-linejoin="round"/>
<path d="M203.812 116.519H161.232C159.582 116.519 158.244 118.759 158.244 121.521V169.098C158.244 171.86 159.582 174.1 161.232 174.1H203.812C205.462 174.1 206.8 171.86 206.8 169.098V121.521C206.8 118.759 205.462 116.519 203.812 116.519Z" fill="white" stroke="#263238" stroke-linecap="round" stroke-linejoin="round"/>
<path d="M174.37 168.53C171.124 168.53 167.995 166.508 165.59 162.857C163.186 159.206 161.679 154.188 161.362 148.78C161.046 143.371 161.943 137.958 163.878 133.596C165.22 130.572 166.994 128.202 169.018 126.682C170.341 125.687 172.014 126.72 172.206 128.364C172.35 129.597 171.576 130.735 170.558 131.446C169.929 131.885 169.328 132.433 168.764 133.084C167.653 134.365 166.712 136.014 165.998 137.929C165.284 139.844 164.812 141.985 164.613 144.218C164.413 146.451 164.49 148.729 164.838 150.91C165.186 153.091 165.798 155.13 166.636 156.899C167.474 158.668 168.52 160.129 169.709 161.194C170.898 162.258 172.206 162.901 173.55 163.084C173.785 163.116 174.02 163.134 174.255 163.138C175.942 163.165 177.867 163.962 178.202 165.615C178.415 166.665 177.939 167.769 176.924 168.108C176.084 168.389 175.229 168.531 174.37 168.53Z" fill="#263238"/>
<path d="M185.628 139.841C184.646 140.432 183.374 139.88 183.02 138.791C182.143 136.096 180.829 133.848 179.217 132.321C178.099 131.262 176.878 130.587 175.624 130.316C174.011 129.967 172.294 128.959 172.095 127.32C171.944 126.076 172.697 124.846 173.949 124.784C176.329 124.666 178.697 125.635 180.793 127.621C183.292 129.99 185.251 133.661 186.378 138.058C186.556 138.752 186.241 139.472 185.628 139.841Z" fill="#4268CB"/>
<path d="M181.246 165.266C180.074 166.482 178.223 165.682 177.888 164.027C177.676 162.978 178.183 161.931 178.982 161.219C179.668 160.609 180.31 159.864 180.894 158.997C181.873 157.543 182.67 155.778 183.237 153.803C183.805 151.828 184.132 149.683 184.198 147.495C184.253 145.717 184.135 143.939 183.851 142.23C183.734 141.524 184.038 140.807 184.65 140.436C185.636 139.84 186.914 140.394 187.077 141.534C187.368 143.57 187.485 145.67 187.42 147.769C187.331 150.675 186.897 153.522 186.143 156.144C185.39 158.766 184.332 161.11 183.031 163.04C182.473 163.868 181.876 164.612 181.246 165.266Z" fill="#A8A8A8"/>
<path d="M195.449 134.045V131.6C195.449 130.598 194.637 129.786 193.636 129.786C192.634 129.786 191.823 130.598 191.823 131.6V134.045C191.823 135.047 192.634 135.858 193.636 135.858C194.637 135.858 195.449 135.047 195.449 134.045Z" fill="#263238"/>
<path d="M195.449 148.906V146.461C195.449 145.46 194.637 144.648 193.636 144.648C192.634 144.648 191.823 145.46 191.823 146.461V148.906C191.823 149.908 192.634 150.72 193.636 150.72C194.637 150.72 195.449 149.908 195.449 148.906Z" fill="#4268CB"/>
<path d="M195.449 163.773V161.328C195.449 160.326 194.637 159.514 193.636 159.514C192.634 159.514 191.823 160.326 191.823 161.328V163.773C191.823 164.775 192.634 165.586 193.636 165.586C194.637 165.586 195.449 164.775 195.449 163.773Z" fill="#A8A8A8"/>
<path d="M197.356 132.984H203.467" stroke="#263238" stroke-linecap="round" stroke-linejoin="round"/>
<path d="M197.356 147.365H203.467" stroke="#263238" stroke-linecap="round" stroke-linejoin="round"/>
<path d="M171.012 147.046H177.123" stroke="#263238" stroke-linecap="round" stroke-linejoin="round"/>
<path d="M197.356 162.388H203.467" stroke="#263238" stroke-linecap="round" stroke-linejoin="round"/>
<path d="M22.1246 214H15.0262" stroke="#263238" stroke-width="0.75" stroke-miterlimit="10" stroke-linecap="round"/>
<path d="M201.841 214H25.9965" stroke="#263238" stroke-width="0.75" stroke-miterlimit="10" stroke-linecap="round"/>
<path d="M215.392 214H204.099" stroke="#263238" stroke-width="0.75" stroke-miterlimit="10" stroke-linecap="round"/>
</svg>
