<svg width="246" height="207" viewBox="0 0 246 207" fill="none" xmlns="http://www.w3.org/2000/svg">
<path d="M63.163 38.2891C59.9624 38.2891 6.12574 38.8027 2.74534 38.6332C2.68838 38.6329 2.63308 38.6064 2.5879 38.5579C2.54271 38.5093 2.51013 38.4414 2.49514 38.3645C2.48016 38.2876 2.48359 38.206 2.50491 38.1321C2.52623 38.0582 2.56427 37.9961 2.61321 37.9553C4.74568 36.4812 7.16444 36.774 9.38134 35.7314C10.6843 35.115 11.4844 33.9235 12.391 32.5522C13.1399 31.3551 14.1082 30.4671 15.1915 29.9841C16.1818 29.5648 17.2333 29.5152 18.2416 29.8403C19.3427 30.205 20.2823 31.0781 21.3247 31.6328C23.9122 32.999 26.4228 31.6996 28.269 29.0237C29.7921 26.8152 31.2896 24.73 33.3597 23.5435C35.0958 22.5472 37.0301 22.3417 38.7551 23.4408C40.7298 24.6889 42.0841 27.2107 43.9377 28.7207C46.1399 30.5234 48.7679 30.0971 51.194 30.6364C53.6201 31.1757 55.4883 34.0416 57.6171 35.6903C58.3103 36.322 59.1136 36.6772 59.9404 36.7175C60.4145 36.6585 60.8861 36.566 61.3535 36.4401C62.0876 36.3117 62.7849 36.3426 63.2767 37.1951C63.3979 37.4057 63.3722 38.2891 63.163 38.2891Z" fill="#EBEBEB"/>
<path d="M245.862 43.5536C243.528 43.5536 204.222 43.9131 201.752 43.8053C201.576 43.8053 201.48 43.4303 201.656 43.2917C203.213 42.2131 204.978 42.4288 206.597 41.6687C207.551 41.2167 208.134 40.3487 208.799 39.3472C209.346 38.4761 210.053 37.8313 210.843 37.4828C211.567 37.1762 212.335 37.1425 213.071 37.3852C213.868 37.6472 214.561 38.2892 215.321 38.6898C217.208 39.6862 219.043 38.7411 220.393 36.7843C221.495 35.1716 222.596 33.6513 224.108 32.7833C224.726 32.3939 225.394 32.186 226.071 32.1728C226.749 32.1595 227.421 32.3411 228.046 32.7063C229.489 33.6205 230.476 35.4592 231.83 36.5686C233.438 37.8783 235.357 37.5958 237.13 37.9656C238.903 38.3354 240.265 40.4514 241.817 41.6533C242.325 42.1079 242.911 42.3617 243.513 42.3877C243.86 42.3448 244.206 42.2762 244.548 42.1823C245.08 42.0898 245.59 42.1155 245.95 42.737C246.034 42.9065 246.016 43.5536 245.862 43.5536Z" fill="#EBEBEB"/>
<path d="M118.024 55.7824C115.689 55.7824 76.3836 56.1419 73.9135 56.034C73.7373 56.034 73.6419 55.6591 73.818 55.5204C75.3743 54.4418 77.1214 54.6627 78.7583 53.8974C79.7126 53.4506 80.2962 52.5775 80.9605 51.5759C81.5081 50.7059 82.215 50.0613 83.0049 49.7116C83.7285 49.405 84.497 49.3713 85.2328 49.614C86.0293 49.8759 86.723 50.5179 87.4828 50.9185C89.373 51.9149 91.2082 50.9699 92.5552 49.0131C93.6563 47.4055 94.7574 45.8801 96.2732 45.0121C96.8903 44.6223 97.5582 44.4148 98.2352 44.4024C98.9122 44.3901 99.5837 44.5731 100.208 44.9402C101.65 45.8544 102.641 47.688 103.996 48.7973C105.6 50.107 107.519 49.7989 109.292 50.1943C111.065 50.5898 112.426 52.6802 113.983 53.882C114.49 54.3373 115.076 54.5912 115.678 54.6165C116.023 54.6165 116.365 54.4727 116.71 54.4162C117.246 54.3237 117.752 54.3443 118.112 54.9657C118.196 55.1352 118.178 55.7824 118.024 55.7824Z" fill="#EBEBEB"/>
<path d="M162.688 78.2012C160.354 78.2012 121.048 78.5607 118.578 78.4529C118.402 78.4529 118.306 78.078 118.482 77.9393C120.039 76.8607 121.804 77.0764 123.423 76.3112C124.373 75.8643 124.961 74.9912 125.625 73.9948C126.171 73.1204 126.878 72.4736 127.669 72.1253C128.393 71.8187 129.161 71.785 129.897 72.0277C130.694 72.2948 131.387 72.9316 132.147 73.3323C134.034 74.3338 135.869 73.3836 137.22 71.4268C138.321 69.8192 139.422 68.2989 140.934 67.4309C141.551 67.0403 142.22 66.8318 142.897 66.8185C143.575 66.8053 144.247 66.9875 144.872 67.3539C146.315 68.2681 147.302 70.1068 148.656 71.2111C150.264 72.5208 152.184 72.2126 153.956 72.6081C155.729 73.0036 157.091 75.0939 158.643 76.2957C159.149 76.7549 159.736 77.0091 160.339 77.0302C160.706 77.0302 161.029 76.8864 161.374 76.8299C161.906 76.7375 162.417 76.758 162.776 77.3795C162.861 77.5541 162.842 78.2012 162.688 78.2012Z" fill="#EBEBEB"/>
<path d="M196.72 19.2756C196.676 19.4605 134.772 19.2756 135.553 19.2756C135.92 19.2756 135.01 18.5309 135.359 18.2946C137.374 16.8925 139.58 16.8514 141.775 16.5689C143.055 16.4097 144.369 16.1477 145.522 15.3003C146.674 14.4528 147.416 12.9583 148.245 11.5869C149.522 9.4731 151.162 7.84934 153.012 6.86893C154.861 5.88851 156.859 5.58379 158.816 5.98352C163.22 6.9491 166.685 11.6332 171.097 12.5063C173.743 13.0199 176.235 11.5869 178.838 11.0836C180.97 10.6676 182.743 11.248 184.652 12.5731C186.046 13.5386 187.338 14.3553 188.917 14.5093C190.128 14.6275 191.346 14.4323 192.561 14.4169C194.55 14.468 196.457 15.5348 197.924 17.4163C198.118 17.6577 198.749 19.2756 196.72 19.2756Z" fill="#EBEBEB"/>
<path d="M199.359 25.8447H178.83V176.418H199.359V25.8447Z" fill="#DBDBDB"/>
<path d="M186.006 30.7339H182.016V36.4811H186.006V30.7339Z" fill="#EBEBEB"/>
<path d="M191.111 30.7339H187.122V36.4811H191.111V30.7339Z" fill="#EBEBEB"/>
<path d="M186.006 40.4976H182.016V46.2448H186.006V40.4976Z" fill="#EBEBEB"/>
<path d="M191.111 40.4976H187.122V46.2448H191.111V40.4976Z" fill="#EBEBEB"/>
<path d="M186.006 50.2561H182.016V56.0033H186.006V50.2561Z" fill="#EBEBEB"/>
<path d="M191.111 50.2561H187.122V56.0033H191.111V50.2561Z" fill="#EBEBEB"/>
<path d="M186.006 60.0198H182.016V65.767H186.006V60.0198Z" fill="#EBEBEB"/>
<path d="M191.111 60.0198H187.122V65.767H191.111V60.0198Z" fill="#EBEBEB"/>
<path d="M186.006 69.7781H182.016V75.5253H186.006V69.7781Z" fill="#EBEBEB"/>
<path d="M191.111 69.7781H187.122V75.5253H191.111V69.7781Z" fill="#EBEBEB"/>
<path d="M186.006 79.5417H182.016V85.289H186.006V79.5417Z" fill="#EBEBEB"/>
<path d="M191.111 79.5417H187.122V85.289H191.111V79.5417Z" fill="#EBEBEB"/>
<path d="M186.006 89.3003H182.016V95.0475H186.006V89.3003Z" fill="#EBEBEB"/>
<path d="M191.111 89.3003H187.122V95.0475H191.111V89.3003Z" fill="#EBEBEB"/>
<path d="M186.006 99.064H182.016V104.811H186.006V99.064Z" fill="#EBEBEB"/>
<path d="M191.111 99.064H187.122V104.811H191.111V99.064Z" fill="#EBEBEB"/>
<path d="M186.006 108.822H182.016V114.569H186.006V108.822Z" fill="#EBEBEB"/>
<path d="M191.111 108.822H187.122V114.569H191.111V108.822Z" fill="#EBEBEB"/>
<path d="M186.006 118.586H182.016V124.333H186.006V118.586Z" fill="#EBEBEB"/>
<path d="M191.111 118.586H187.122V124.333H191.111V118.586Z" fill="#EBEBEB"/>
<path d="M186.006 128.344H182.016V134.092H186.006V128.344Z" fill="#EBEBEB"/>
<path d="M191.111 128.344H187.122V134.092H191.111V128.344Z" fill="#EBEBEB"/>
<path d="M186.006 138.108H182.016V143.855H186.006V138.108Z" fill="#EBEBEB"/>
<path d="M191.111 138.108H187.122V143.855H191.111V138.108Z" fill="#EBEBEB"/>
<path d="M186.006 147.866H182.016V153.614H186.006V147.866Z" fill="#EBEBEB"/>
<path d="M191.111 147.866H187.122V153.614H191.111V147.866Z" fill="#EBEBEB"/>
<path d="M186.006 157.63H182.016V163.377H186.006V157.63Z" fill="#EBEBEB"/>
<path d="M192.183 163.377H196.173V157.63H192.183V163.377Z" fill="#EBEBEB"/>
<path d="M192.183 153.619H196.173V147.872H192.183V153.619Z" fill="#EBEBEB"/>
<path d="M192.183 143.855H196.173V138.108H192.183V143.855Z" fill="#EBEBEB"/>
<path d="M192.183 134.097H196.173V128.35H192.183V134.097Z" fill="#EBEBEB"/>
<path d="M192.183 124.333H196.173V118.586H192.183V124.333Z" fill="#EBEBEB"/>
<path d="M192.183 114.575H196.173V108.828H192.183V114.575Z" fill="#EBEBEB"/>
<path d="M192.183 104.811H196.173V99.0641H192.183V104.811Z" fill="#EBEBEB"/>
<path d="M192.183 95.0527H196.173V89.3055H192.183V95.0527Z" fill="#EBEBEB"/>
<path d="M192.183 85.2891H196.173V79.5418H192.183V85.2891Z" fill="#EBEBEB"/>
<path d="M192.183 75.5308H196.173V69.7835H192.183V75.5308Z" fill="#EBEBEB"/>
<path d="M192.183 65.7671H196.173V60.0199H192.183V65.7671Z" fill="#EBEBEB"/>
<path d="M192.183 56.0085H196.173V50.2613H192.183V56.0085Z" fill="#EBEBEB"/>
<path d="M192.183 46.2449H196.173V40.4976H192.183V46.2449Z" fill="#EBEBEB"/>
<path d="M192.183 36.4866H196.173V30.7393H192.183V36.4866Z" fill="#EBEBEB"/>
<path d="M191.111 157.63H187.122V163.377H191.111V157.63Z" fill="#EBEBEB"/>
<path d="M215.545 25.8447H199.359V176.418H215.545V25.8447Z" fill="#A6A6A6"/>
<path d="M210.583 163.377H213.879V157.63H210.583V163.377Z" fill="#C7C7C7"/>
<path d="M206.365 163.377H209.661V157.63H206.365V163.377Z" fill="#C7C7C7"/>
<path d="M210.583 153.619H213.879V147.872H210.583V153.619Z" fill="#C7C7C7"/>
<path d="M206.365 153.619H209.661V147.872H206.365V153.619Z" fill="#C7C7C7"/>
<path d="M210.583 143.855H213.879V138.108H210.583V143.855Z" fill="#C7C7C7"/>
<path d="M206.365 143.855H209.661V138.108H206.365V143.855Z" fill="#C7C7C7"/>
<path d="M210.583 134.097H213.879V128.35H210.583V134.097Z" fill="#C7C7C7"/>
<path d="M206.365 134.097H209.661V128.35H206.365V134.097Z" fill="#C7C7C7"/>
<path d="M210.583 124.333H213.879V118.586H210.583V124.333Z" fill="#C7C7C7"/>
<path d="M206.365 124.333H209.661V118.586H206.365V124.333Z" fill="#C7C7C7"/>
<path d="M210.583 114.575H213.879V108.828H210.583V114.575Z" fill="#C7C7C7"/>
<path d="M206.365 114.575H209.661V108.828H206.365V114.575Z" fill="#C7C7C7"/>
<path d="M210.583 104.811H213.879V99.0641H210.583V104.811Z" fill="#C7C7C7"/>
<path d="M206.365 104.811H209.661V99.0641H206.365V104.811Z" fill="#C7C7C7"/>
<path d="M210.583 95.0527H213.879V89.3055H210.583V95.0527Z" fill="#C7C7C7"/>
<path d="M206.365 95.0527H209.661V89.3055H206.365V95.0527Z" fill="#C7C7C7"/>
<path d="M210.583 85.2891H213.879V79.5418H210.583V85.2891Z" fill="#C7C7C7"/>
<path d="M206.365 85.2891H209.661V79.5418H206.365V85.2891Z" fill="#C7C7C7"/>
<path d="M210.583 75.5308H213.879V69.7835H210.583V75.5308Z" fill="#C7C7C7"/>
<path d="M206.365 75.5308H209.661V69.7835H206.365V75.5308Z" fill="#C7C7C7"/>
<path d="M210.583 65.7671H213.879V60.0199H210.583V65.7671Z" fill="#C7C7C7"/>
<path d="M206.365 65.7671H209.661V60.0199H206.365V65.7671Z" fill="#C7C7C7"/>
<path d="M210.583 56.0085H213.879V50.2613H210.583V56.0085Z" fill="#C7C7C7"/>
<path d="M206.365 56.0085H209.661V50.2613H206.365V56.0085Z" fill="#C7C7C7"/>
<path d="M210.583 46.2449H213.879V40.4976H210.583V46.2449Z" fill="#C7C7C7"/>
<path d="M206.365 46.2449H209.661V40.4976H206.365V46.2449Z" fill="#C7C7C7"/>
<path d="M210.583 36.4866H213.879V30.7393H210.583V36.4866Z" fill="#C7C7C7"/>
<path d="M205.481 30.7339H202.185V36.4811H205.481V30.7339Z" fill="#C7C7C7"/>
<path d="M205.481 40.4976H202.185V46.2448H205.481V40.4976Z" fill="#C7C7C7"/>
<path d="M205.481 50.2561H202.185V56.0033H205.481V50.2561Z" fill="#C7C7C7"/>
<path d="M205.481 60.0198H202.185V65.767H205.481V60.0198Z" fill="#C7C7C7"/>
<path d="M205.481 69.7781H202.185V75.5253H205.481V69.7781Z" fill="#C7C7C7"/>
<path d="M205.481 79.5417H202.185V85.289H205.481V79.5417Z" fill="#C7C7C7"/>
<path d="M205.481 89.3003H202.185V95.0475H205.481V89.3003Z" fill="#C7C7C7"/>
<path d="M205.481 99.064H202.185V104.811H205.481V99.064Z" fill="#C7C7C7"/>
<path d="M205.481 108.822H202.185V114.569H205.481V108.822Z" fill="#C7C7C7"/>
<path d="M205.481 118.586H202.185V124.333H205.481V118.586Z" fill="#C7C7C7"/>
<path d="M205.481 128.344H202.185V134.092H205.481V128.344Z" fill="#C7C7C7"/>
<path d="M205.481 138.108H202.185V143.855H205.481V138.108Z" fill="#C7C7C7"/>
<path d="M205.481 147.866H202.185V153.614H205.481V147.866Z" fill="#C7C7C7"/>
<path d="M205.481 157.63H202.185V163.377H205.481V157.63Z" fill="#C7C7C7"/>
<path d="M206.365 36.4866H209.661V30.7393H206.365V36.4866Z" fill="#C7C7C7"/>
<path d="M54.2148 14.1653H29.5023V176.418H54.2148V14.1653Z" fill="#EBEBEB"/>
<path d="M54.2148 10.9348H28.9077V14.1654H54.2148V10.9348Z" fill="#C7C7C7"/>
<path d="M34.2406 18.9263H31.7374V176.418H34.2406V18.9263Z" fill="white"/>
<path d="M38.6746 18.9263H36.1714V176.418H38.6746V18.9263Z" fill="white"/>
<path d="M43.1083 18.9263H40.6051V176.418H43.1083V18.9263Z" fill="white"/>
<path d="M47.5457 18.9263H45.0425V176.418H47.5457V18.9263Z" fill="white"/>
<path d="M51.9795 18.9263H49.4763V176.418H51.9795V18.9263Z" fill="white"/>
<path d="M34.2406 23.0095H31.7374V29.3885H34.2406V23.0095Z" fill="#EBEBEB"/>
<path d="M38.6746 23.0095H36.1714V29.3885H38.6746V23.0095Z" fill="#EBEBEB"/>
<path d="M43.1083 23.0095H40.6051V29.3885H43.1083V23.0095Z" fill="#EBEBEB"/>
<path d="M47.5457 23.0095H45.0425V29.3885H47.5457V23.0095Z" fill="#EBEBEB"/>
<path d="M51.9795 23.0095H49.4763V29.3885H51.9795V23.0095Z" fill="#EBEBEB"/>
<path d="M34.2406 33.374H31.7374V39.753H34.2406V33.374Z" fill="#EBEBEB"/>
<path d="M38.6746 33.374H36.1714V39.753H38.6746V33.374Z" fill="#EBEBEB"/>
<path d="M43.1083 33.374H40.6051V39.753H43.1083V33.374Z" fill="#EBEBEB"/>
<path d="M47.5457 33.374H45.0425V39.753H47.5457V33.374Z" fill="#EBEBEB"/>
<path d="M51.9795 33.374H49.4763V39.753H51.9795V33.374Z" fill="#EBEBEB"/>
<path d="M34.2406 43.7385H31.7374V50.1175H34.2406V43.7385Z" fill="#EBEBEB"/>
<path d="M38.6746 43.7385H36.1714V50.1175H38.6746V43.7385Z" fill="#EBEBEB"/>
<path d="M43.1083 43.7385H40.6051V50.1175H43.1083V43.7385Z" fill="#EBEBEB"/>
<path d="M47.5457 43.7385H45.0425V50.1175H47.5457V43.7385Z" fill="#EBEBEB"/>
<path d="M51.9795 43.7385H49.4763V50.1175H51.9795V43.7385Z" fill="#EBEBEB"/>
<path d="M34.2406 54.1082H31.7374V60.4871H34.2406V54.1082Z" fill="#EBEBEB"/>
<path d="M38.6746 54.1082H36.1714V60.4871H38.6746V54.1082Z" fill="#EBEBEB"/>
<path d="M43.1083 54.1082H40.6051V60.4871H43.1083V54.1082Z" fill="#EBEBEB"/>
<path d="M47.5457 54.1082H45.0425V60.4871H47.5457V54.1082Z" fill="#EBEBEB"/>
<path d="M51.9795 54.1082H49.4763V60.4871H51.9795V54.1082Z" fill="#EBEBEB"/>
<path d="M34.2406 64.4729H31.7374V70.8519H34.2406V64.4729Z" fill="#EBEBEB"/>
<path d="M38.6746 64.4729H36.1714V70.8519H38.6746V64.4729Z" fill="#EBEBEB"/>
<path d="M43.1083 64.4729H40.6051V70.8519H43.1083V64.4729Z" fill="#EBEBEB"/>
<path d="M47.5457 64.4729H45.0425V70.8519H47.5457V64.4729Z" fill="#EBEBEB"/>
<path d="M51.9795 64.4729H49.4763V70.8519H51.9795V64.4729Z" fill="#EBEBEB"/>
<path d="M34.2406 74.8374H31.7374V81.2164H34.2406V74.8374Z" fill="#EBEBEB"/>
<path d="M38.6746 74.8374H36.1714V81.2164H38.6746V74.8374Z" fill="#EBEBEB"/>
<path d="M43.1083 74.8374H40.6051V81.2164H43.1083V74.8374Z" fill="#EBEBEB"/>
<path d="M47.5457 74.8374H45.0425V81.2164H47.5457V74.8374Z" fill="#EBEBEB"/>
<path d="M51.9795 74.8374H49.4763V81.2164H51.9795V74.8374Z" fill="#EBEBEB"/>
<path d="M34.2406 85.2017H31.7374V91.5806H34.2406V85.2017Z" fill="#EBEBEB"/>
<path d="M38.6746 85.2017H36.1714V91.5806H38.6746V85.2017Z" fill="#EBEBEB"/>
<path d="M43.1083 85.2017H40.6051V91.5806H43.1083V85.2017Z" fill="#EBEBEB"/>
<path d="M47.5457 85.2017H45.0425V91.5806H47.5457V85.2017Z" fill="#EBEBEB"/>
<path d="M51.9795 85.2017H49.4763V91.5806H51.9795V85.2017Z" fill="#EBEBEB"/>
<path d="M34.2406 95.5713H31.7374V101.95H34.2406V95.5713Z" fill="#EBEBEB"/>
<path d="M38.6746 95.5713H36.1714V101.95H38.6746V95.5713Z" fill="#EBEBEB"/>
<path d="M43.1083 95.5713H40.6051V101.95H43.1083V95.5713Z" fill="#EBEBEB"/>
<path d="M47.5457 95.5713H45.0425V101.95H47.5457V95.5713Z" fill="#EBEBEB"/>
<path d="M51.9795 95.5713H49.4763V101.95H51.9795V95.5713Z" fill="#EBEBEB"/>
<path d="M34.2406 105.936H31.7374V112.315H34.2406V105.936Z" fill="#EBEBEB"/>
<path d="M38.6746 105.936H36.1714V112.315H38.6746V105.936Z" fill="#EBEBEB"/>
<path d="M43.1083 105.936H40.6051V112.315H43.1083V105.936Z" fill="#EBEBEB"/>
<path d="M47.5457 105.936H45.0425V112.315H47.5457V105.936Z" fill="#EBEBEB"/>
<path d="M51.9795 105.936H49.4763V112.315H51.9795V105.936Z" fill="#EBEBEB"/>
<path d="M34.2406 116.3H31.7374V122.679H34.2406V116.3Z" fill="#EBEBEB"/>
<path d="M38.6746 116.3H36.1714V122.679H38.6746V116.3Z" fill="#EBEBEB"/>
<path d="M43.1083 116.3H40.6051V122.679H43.1083V116.3Z" fill="#EBEBEB"/>
<path d="M47.5457 116.3H45.0425V122.679H47.5457V116.3Z" fill="#EBEBEB"/>
<path d="M51.9795 116.3H49.4763V122.679H51.9795V116.3Z" fill="#EBEBEB"/>
<path d="M34.2406 126.665H31.7374V133.044H34.2406V126.665Z" fill="#EBEBEB"/>
<path d="M38.6746 126.665H36.1714V133.044H38.6746V126.665Z" fill="#EBEBEB"/>
<path d="M43.1083 126.665H40.6051V133.044H43.1083V126.665Z" fill="#EBEBEB"/>
<path d="M47.5457 126.665H45.0425V133.044H47.5457V126.665Z" fill="#EBEBEB"/>
<path d="M51.9795 126.665H49.4763V133.044H51.9795V126.665Z" fill="#EBEBEB"/>
<path d="M34.2406 137.03H31.7374V143.408H34.2406V137.03Z" fill="#EBEBEB"/>
<path d="M38.6746 137.03H36.1714V143.408H38.6746V137.03Z" fill="#EBEBEB"/>
<path d="M43.1083 137.03H40.6051V143.408H43.1083V137.03Z" fill="#EBEBEB"/>
<path d="M47.5457 137.03H45.0425V143.408H47.5457V137.03Z" fill="#EBEBEB"/>
<path d="M51.9795 137.03H49.4763V143.408H51.9795V137.03Z" fill="#EBEBEB"/>
<path d="M34.2406 147.399H31.7374V153.778H34.2406V147.399Z" fill="#EBEBEB"/>
<path d="M38.6746 147.399H36.1714V153.778H38.6746V147.399Z" fill="#EBEBEB"/>
<path d="M43.1083 147.399H40.6051V153.778H43.1083V147.399Z" fill="#EBEBEB"/>
<path d="M47.5457 147.399H45.0425V153.778H47.5457V147.399Z" fill="#EBEBEB"/>
<path d="M51.9795 147.399H49.4763V153.778H51.9795V147.399Z" fill="#EBEBEB"/>
<path d="M34.2406 157.764H31.7374V176.418H34.2406V157.764Z" fill="#EBEBEB"/>
<path d="M38.6746 157.764H36.1714V176.418H38.6746V157.764Z" fill="#EBEBEB"/>
<path d="M43.1083 157.764H40.6051V176.418H43.1083V157.764Z" fill="#EBEBEB"/>
<path d="M47.5457 157.764H45.0425V176.418H47.5457V157.764Z" fill="#EBEBEB"/>
<path d="M51.9795 157.764H49.4763V176.418H51.9795V157.764Z" fill="#EBEBEB"/>
<path d="M70.078 14.1653H54.2147V176.418H70.078V14.1653Z" fill="#DBDBDB"/>
<path d="M70.768 10.9348H54.2147V14.1654H70.768V10.9348Z" fill="#C7C7C7"/>
<path d="M58.9495 18.9263H56.4463V176.418H58.9495V18.9263Z" fill="#C7C7C7"/>
<path d="M63.3868 18.9263H60.8837V176.418H63.3868V18.9263Z" fill="#C7C7C7"/>
<path d="M67.8207 18.9263H65.3175V176.418H67.8207V18.9263Z" fill="#C7C7C7"/>
<path d="M58.9495 23.0095H56.4463V29.3885H58.9495V23.0095Z" fill="#DBDBDB"/>
<path d="M63.3868 23.0095H60.8837V29.3885H63.3868V23.0095Z" fill="#DBDBDB"/>
<path d="M67.8207 23.0095H65.3175V29.3885H67.8207V23.0095Z" fill="#DBDBDB"/>
<path d="M58.9495 33.374H56.4463V39.753H58.9495V33.374Z" fill="#DBDBDB"/>
<path d="M63.3868 33.374H60.8837V39.753H63.3868V33.374Z" fill="#DBDBDB"/>
<path d="M67.8207 33.374H65.3175V39.753H67.8207V33.374Z" fill="#DBDBDB"/>
<path d="M58.9495 43.7385H56.4463V50.1175H58.9495V43.7385Z" fill="#DBDBDB"/>
<path d="M63.3868 43.7385H60.8837V50.1175H63.3868V43.7385Z" fill="#DBDBDB"/>
<path d="M67.8207 43.7385H65.3175V50.1175H67.8207V43.7385Z" fill="#DBDBDB"/>
<path d="M58.9495 54.1082H56.4463V60.4871H58.9495V54.1082Z" fill="#DBDBDB"/>
<path d="M63.3868 54.1082H60.8837V60.4871H63.3868V54.1082Z" fill="#DBDBDB"/>
<path d="M67.8207 54.1082H65.3175V60.4871H67.8207V54.1082Z" fill="#DBDBDB"/>
<path d="M58.9495 64.4729H56.4463V70.8519H58.9495V64.4729Z" fill="#DBDBDB"/>
<path d="M63.3868 64.4729H60.8837V70.8519H63.3868V64.4729Z" fill="#DBDBDB"/>
<path d="M67.8207 64.4729H65.3175V70.8519H67.8207V64.4729Z" fill="#DBDBDB"/>
<path d="M58.9495 74.8374H56.4463V81.2164H58.9495V74.8374Z" fill="#DBDBDB"/>
<path d="M63.3868 74.8374H60.8837V81.2164H63.3868V74.8374Z" fill="#DBDBDB"/>
<path d="M67.8207 74.8374H65.3175V81.2164H67.8207V74.8374Z" fill="#DBDBDB"/>
<path d="M58.9495 85.2017H56.4463V91.5806H58.9495V85.2017Z" fill="#DBDBDB"/>
<path d="M63.3868 85.2017H60.8837V91.5806H63.3868V85.2017Z" fill="#DBDBDB"/>
<path d="M67.8207 85.2017H65.3175V91.5806H67.8207V85.2017Z" fill="#DBDBDB"/>
<path d="M58.9495 95.5713H56.4463V101.95H58.9495V95.5713Z" fill="#DBDBDB"/>
<path d="M63.3868 95.5713H60.8837V101.95H63.3868V95.5713Z" fill="#DBDBDB"/>
<path d="M67.8207 95.5713H65.3175V101.95H67.8207V95.5713Z" fill="#DBDBDB"/>
<path d="M58.9495 105.936H56.4463V112.315H58.9495V105.936Z" fill="#DBDBDB"/>
<path d="M63.3868 105.936H60.8837V112.315H63.3868V105.936Z" fill="#DBDBDB"/>
<path d="M67.8207 105.936H65.3175V112.315H67.8207V105.936Z" fill="#DBDBDB"/>
<path d="M58.9495 116.3H56.4463V122.679H58.9495V116.3Z" fill="#DBDBDB"/>
<path d="M63.3868 116.3H60.8837V122.679H63.3868V116.3Z" fill="#DBDBDB"/>
<path d="M67.8207 116.3H65.3175V122.679H67.8207V116.3Z" fill="#DBDBDB"/>
<path d="M58.9495 126.665H56.4463V133.044H58.9495V126.665Z" fill="#DBDBDB"/>
<path d="M63.3868 126.665H60.8837V133.044H63.3868V126.665Z" fill="#DBDBDB"/>
<path d="M67.8207 126.665H65.3175V133.044H67.8207V126.665Z" fill="#DBDBDB"/>
<path d="M58.9495 137.03H56.4463V143.408H58.9495V137.03Z" fill="#DBDBDB"/>
<path d="M63.3868 137.03H60.8837V143.408H63.3868V137.03Z" fill="#DBDBDB"/>
<path d="M67.8207 137.03H65.3175V143.408H67.8207V137.03Z" fill="#DBDBDB"/>
<path d="M58.9495 147.399H56.4463V153.778H58.9495V147.399Z" fill="#DBDBDB"/>
<path d="M63.3868 147.399H60.8837V153.778H63.3868V147.399Z" fill="#DBDBDB"/>
<path d="M67.8207 147.399H65.3175V153.778H67.8207V147.399Z" fill="#DBDBDB"/>
<path d="M58.9495 157.764H56.4463V176.418H58.9495V157.764Z" fill="#DBDBDB"/>
<path d="M63.3868 157.764H60.8837V176.418H63.3868V157.764Z" fill="#DBDBDB"/>
<path d="M67.8207 157.764H65.3175V176.418H67.8207V157.764Z" fill="#DBDBDB"/>
<path d="M24.4739 68.6379H4.16589V176.418H24.4739V68.6379Z" fill="#EBEBEB"/>
<path d="M24.4739 61.4939H7.05444V68.6433H24.4739V61.4939Z" fill="#C7C7C7"/>
<path d="M22.246 72.3718H6.39014V152.941H22.246V72.3718Z" fill="#DBDBDB"/>
<path d="M22.246 80.0605H6.39014V81.966H22.246V80.0605Z" fill="white"/>
<path d="M22.246 87.9443H6.39014V89.8498H22.246V87.9443Z" fill="white"/>
<path d="M22.246 95.8335H6.39014V97.739H22.246V95.8335Z" fill="white"/>
<path d="M22.246 103.717H6.39014V105.623H22.246V103.717Z" fill="white"/>
<path d="M22.246 111.606H6.39014V113.512H22.246V111.606Z" fill="white"/>
<path d="M22.246 119.49H6.39014V121.395H22.246V119.49Z" fill="white"/>
<path d="M22.246 127.379H6.39014V129.284H22.246V127.379Z" fill="white"/>
<path d="M22.246 135.263H6.39014V137.168H22.246V135.263Z" fill="white"/>
<path d="M22.246 143.152H6.39014V145.057H22.246V143.152Z" fill="white"/>
<path d="M22.246 151.035H6.39014V152.941H22.246V151.035Z" fill="white"/>
<path d="M37.1953 68.6379H24.4739V176.418H37.1953V68.6379Z" fill="#DBDBDB"/>
<path d="M35.2867 61.4939H24.4739V68.6433H35.2867V61.4939Z" fill="#A6A6A6"/>
<path d="M36.0098 72.3718H26.2283V152.941H36.0098V72.3718Z" fill="#C7C7C7"/>
<path d="M36.0098 80.0605H26.2283V81.966H36.0098V80.0605Z" fill="white"/>
<path d="M36.0098 87.9443H26.2283V89.8498H36.0098V87.9443Z" fill="white"/>
<path d="M36.0098 95.8335H26.2283V97.739H36.0098V95.8335Z" fill="white"/>
<path d="M36.0098 103.717H26.2283V105.623H36.0098V103.717Z" fill="white"/>
<path d="M36.0098 111.606H26.2283V113.512H36.0098V111.606Z" fill="white"/>
<path d="M36.0098 119.49H26.2283V121.395H36.0098V119.49Z" fill="white"/>
<path d="M36.0098 127.379H26.2283V129.284H36.0098V127.379Z" fill="white"/>
<path d="M36.0098 135.263H26.2283V137.168H36.0098V135.263Z" fill="white"/>
<path d="M36.0098 143.152H26.2283V145.057H36.0098V143.152Z" fill="white"/>
<path d="M36.0098 151.035H26.2283V152.941H36.0098V151.035Z" fill="white"/>
<path d="M227.573 70.4561H216.727V88.386H227.573V70.4561Z" fill="#DBDBDB"/>
<path d="M234.451 70.4561H227.573V89.0434H234.451V70.4561Z" fill="#C7C7C7"/>
<path d="M234.91 78.376H228.083V89.0435H234.91V78.376Z" fill="#DBDBDB"/>
<path d="M239.167 78.376H234.91V89.0435H239.167V78.376Z" fill="#C7C7C7"/>
<path d="M230.105 87.2202H212.565V176.418H230.105V87.2202Z" fill="#EBEBEB"/>
<path d="M220.089 91.0569H214.572V94.2104H220.089V91.0569Z" fill="white"/>
<path d="M227.143 91.0569H221.627V94.2104H227.143V91.0569Z" fill="white"/>
<path d="M220.089 96.4087H214.572V99.5622H220.089V96.4087Z" fill="white"/>
<path d="M227.143 96.4087H221.627V99.5622H227.143V96.4087Z" fill="white"/>
<path d="M220.089 101.76H214.572V104.914H220.089V101.76Z" fill="white"/>
<path d="M227.143 101.76H221.627V104.914H227.143V101.76Z" fill="white"/>
<path d="M220.089 107.117H214.572V110.271H220.089V107.117Z" fill="white"/>
<path d="M227.143 107.117H221.627V110.271H227.143V107.117Z" fill="white"/>
<path d="M220.089 112.469H214.572V115.623H220.089V112.469Z" fill="white"/>
<path d="M227.143 112.469H221.627V115.623H227.143V112.469Z" fill="white"/>
<path d="M220.089 117.826H214.572V120.979H220.089V117.826Z" fill="white"/>
<path d="M227.143 117.826H221.627V120.979H227.143V117.826Z" fill="white"/>
<path d="M220.089 123.178H214.572V126.331H220.089V123.178Z" fill="white"/>
<path d="M227.143 123.178H221.627V126.331H227.143V123.178Z" fill="white"/>
<path d="M220.089 128.535H214.572V131.688H220.089V128.535Z" fill="white"/>
<path d="M227.143 128.535H221.627V131.688H227.143V128.535Z" fill="white"/>
<path d="M220.089 133.886H214.572V137.04H220.089V133.886Z" fill="white"/>
<path d="M227.143 133.886H221.627V137.04H227.143V133.886Z" fill="white"/>
<path d="M220.089 139.238H214.572V142.392H220.089V139.238Z" fill="white"/>
<path d="M227.143 139.238H221.627V142.392H227.143V139.238Z" fill="white"/>
<path d="M220.089 144.595H214.572V147.749H220.089V144.595Z" fill="white"/>
<path d="M227.143 144.595H221.627V147.749H227.143V144.595Z" fill="white"/>
<path d="M220.089 149.947H214.572V153.1H220.089V149.947Z" fill="white"/>
<path d="M227.143 149.947H221.627V153.1H227.143V149.947Z" fill="white"/>
<path d="M220.089 155.303H214.572V158.457H220.089V155.303Z" fill="white"/>
<path d="M227.143 155.303H221.627V158.457H227.143V155.303Z" fill="white"/>
<path d="M220.089 160.655H214.572V163.809H220.089V160.655Z" fill="white"/>
<path d="M227.143 160.655H221.627V163.809H227.143V160.655Z" fill="white"/>
<path d="M244.317 87.2202H230.105V176.418H244.317V87.2202Z" fill="#C7C7C7"/>
<path d="M238.363 163.809H242.893V160.655H238.363V163.809Z" fill="#EBEBEB"/>
<path d="M232.568 163.809H237.097V160.655H232.568V163.809Z" fill="#EBEBEB"/>
<path d="M238.363 158.452H242.893V155.298H238.363V158.452Z" fill="#EBEBEB"/>
<path d="M232.568 158.452H237.097V155.298H232.568V158.452Z" fill="#EBEBEB"/>
<path d="M238.363 153.1H242.893V149.947H238.363V153.1Z" fill="#EBEBEB"/>
<path d="M232.568 153.1H237.097V149.947H232.568V153.1Z" fill="#EBEBEB"/>
<path d="M238.363 147.749H242.893V144.595H238.363V147.749Z" fill="#EBEBEB"/>
<path d="M232.568 147.749H237.097V144.595H232.568V147.749Z" fill="#EBEBEB"/>
<path d="M238.363 142.396H242.893V139.243H238.363V142.396Z" fill="#EBEBEB"/>
<path d="M232.568 142.396H237.097V139.243H232.568V142.396Z" fill="#EBEBEB"/>
<path d="M238.363 137.04H242.893V133.886H238.363V137.04Z" fill="#EBEBEB"/>
<path d="M232.568 137.04H237.097V133.886H232.568V137.04Z" fill="#EBEBEB"/>
<path d="M238.363 131.683H242.893V128.529H238.363V131.683Z" fill="#EBEBEB"/>
<path d="M232.568 131.683H237.097V128.529H232.568V131.683Z" fill="#EBEBEB"/>
<path d="M238.363 126.331H242.893V123.178H238.363V126.331Z" fill="#EBEBEB"/>
<path d="M232.568 126.331H237.097V123.178H232.568V126.331Z" fill="#EBEBEB"/>
<path d="M238.363 120.974H242.893V117.821H238.363V120.974Z" fill="#EBEBEB"/>
<path d="M232.568 120.974H237.097V117.821H232.568V120.974Z" fill="#EBEBEB"/>
<path d="M238.363 115.628H242.893V112.474H238.363V115.628Z" fill="#EBEBEB"/>
<path d="M232.568 115.628H237.097V112.474H232.568V115.628Z" fill="#EBEBEB"/>
<path d="M238.363 110.271H242.893V107.117H238.363V110.271Z" fill="#EBEBEB"/>
<path d="M232.568 110.271H237.097V107.117H232.568V110.271Z" fill="#EBEBEB"/>
<path d="M238.363 104.919H242.893V101.766H238.363V104.919Z" fill="#EBEBEB"/>
<path d="M232.568 104.919H237.097V101.766H232.568V104.919Z" fill="#EBEBEB"/>
<path d="M238.363 99.5623H242.893V96.4087H238.363V99.5623Z" fill="#EBEBEB"/>
<path d="M232.568 99.5623H237.097V96.4087H232.568V99.5623Z" fill="#EBEBEB"/>
<path d="M238.363 94.2053H242.893V91.0518H238.363V94.2053Z" fill="#EBEBEB"/>
<path d="M232.568 94.2053H237.097V91.0518H232.568V94.2053Z" fill="#EBEBEB"/>
<path d="M86.7193 105.464H65.9928V176.418H86.7193V105.464Z" fill="#C7C7C7"/>
<path d="M72.9189 111.606H69.2522V115.951H72.9189V111.606Z" fill="#DBDBDB"/>
<path d="M72.9189 120.892H69.2522V125.237H72.9189V120.892Z" fill="#DBDBDB"/>
<path d="M72.9189 130.178H69.2522V134.523H72.9189V130.178Z" fill="#DBDBDB"/>
<path d="M72.9189 139.459H69.2522V143.804H72.9189V139.459Z" fill="#DBDBDB"/>
<path d="M72.9189 148.745H69.2522V153.09H72.9189V148.745Z" fill="#DBDBDB"/>
<path d="M72.9189 158.031H69.2522V162.376H72.9189V158.031Z" fill="#DBDBDB"/>
<path d="M72.9189 167.317H69.2522V171.662H72.9189V167.317Z" fill="#DBDBDB"/>
<path d="M78.193 111.606H74.5264V115.951H78.193V111.606Z" fill="#DBDBDB"/>
<path d="M78.193 120.892H74.5264V125.237H78.193V120.892Z" fill="#DBDBDB"/>
<path d="M78.193 130.178H74.5264V134.523H78.193V130.178Z" fill="#DBDBDB"/>
<path d="M78.193 139.459H74.5264V143.804H78.193V139.459Z" fill="#DBDBDB"/>
<path d="M78.193 148.745H74.5264V153.09H78.193V148.745Z" fill="#DBDBDB"/>
<path d="M78.193 158.031H74.5264V162.376H78.193V158.031Z" fill="#DBDBDB"/>
<path d="M78.193 167.317H74.5264V171.662H78.193V167.317Z" fill="#DBDBDB"/>
<path d="M83.4564 111.606H79.7897V115.951H83.4564V111.606Z" fill="#DBDBDB"/>
<path d="M83.4564 120.892H79.7897V125.237H83.4564V120.892Z" fill="#DBDBDB"/>
<path d="M83.4564 130.178H79.7897V134.523H83.4564V130.178Z" fill="#DBDBDB"/>
<path d="M83.4564 139.459H79.7897V143.804H83.4564V139.459Z" fill="#DBDBDB"/>
<path d="M83.4564 148.745H79.7897V153.09H83.4564V148.745Z" fill="#DBDBDB"/>
<path d="M83.4564 158.031H79.7897V162.376H83.4564V158.031Z" fill="#DBDBDB"/>
<path d="M83.4564 167.317H79.7897V171.662H83.4564V167.317Z" fill="#DBDBDB"/>
<path d="M86.7157 98.0725H72.9188V105.463H86.7157V98.0725Z" fill="#DBDBDB"/>
<path d="M86.7156 93.4963H77.9691V98.0725H86.7156V93.4963Z" fill="#EBEBEB"/>
<path d="M101.258 105.464H86.7157V176.418H101.258V105.464Z" fill="#A6A6A6"/>
<path d="M96.7833 170.968H99.7673V166.623H96.7833V170.968Z" fill="#C7C7C7"/>
<path d="M96.7833 161.688H99.7673V157.343H96.7833V161.688Z" fill="#C7C7C7"/>
<path d="M96.7833 152.402H99.7673V148.057H96.7833V152.402Z" fill="#C7C7C7"/>
<path d="M96.7833 143.115H99.7673V138.77H96.7833V143.115Z" fill="#C7C7C7"/>
<path d="M96.7833 133.83H99.7673V129.485H96.7833V133.83Z" fill="#C7C7C7"/>
<path d="M96.7833 124.544H99.7673V120.199H96.7833V124.544Z" fill="#C7C7C7"/>
<path d="M96.7833 115.263H99.7673V110.918H96.7833V115.263Z" fill="#C7C7C7"/>
<path d="M92.489 170.968H95.473V166.623H92.489V170.968Z" fill="#C7C7C7"/>
<path d="M92.489 161.688H95.473V157.343H92.489V161.688Z" fill="#C7C7C7"/>
<path d="M92.489 152.402H95.473V148.057H92.489V152.402Z" fill="#C7C7C7"/>
<path d="M92.489 143.115H95.473V138.77H92.489V143.115Z" fill="#C7C7C7"/>
<path d="M92.489 133.83H95.473V129.485H92.489V133.83Z" fill="#C7C7C7"/>
<path d="M92.489 124.544H95.473V120.199H92.489V124.544Z" fill="#C7C7C7"/>
<path d="M92.489 115.263H95.473V110.918H92.489V115.263Z" fill="#C7C7C7"/>
<path d="M88.2058 170.968H91.1898V166.623H88.2058V170.968Z" fill="#C7C7C7"/>
<path d="M88.2058 161.688H91.1898V157.343H88.2058V161.688Z" fill="#C7C7C7"/>
<path d="M88.2058 152.402H91.1898V148.057H88.2058V152.402Z" fill="#C7C7C7"/>
<path d="M88.2058 143.115H91.1898V138.77H88.2058V143.115Z" fill="#C7C7C7"/>
<path d="M88.2058 133.83H91.1898V129.485H88.2058V133.83Z" fill="#C7C7C7"/>
<path d="M88.2058 124.544H91.1898V120.199H88.2058V124.544Z" fill="#C7C7C7"/>
<path d="M88.2058 115.263H91.1898V110.918H88.2058V115.263Z" fill="#C7C7C7"/>
<path d="M99.0554 98.0725H86.7157V105.463H99.0554V98.0725Z" fill="#C7C7C7"/>
<path d="M93.4031 93.4963H86.7157V98.0725H93.4031V93.4963Z" fill="#DBDBDB"/>
<path d="M12.6628 153.275C12.6628 153.275 17.1369 167.178 9.83293 167.194C2.52894 167.209 7.26369 152.813 7.26369 152.813C7.26369 152.813 5.57166 151.786 7.52428 144.01C9.47691 136.234 10.3578 136.244 11.1726 136.244C12.2003 136.244 13.1619 139.603 12.4646 144.759C12.4572 144.759 15.0301 151.19 12.6628 153.275Z" fill="#37474F"/>
<path d="M9.19421 176.418L9.88424 155.463L10.6036 176.418H9.19421Z" fill="#263238"/>
<path d="M9.60156 164.245L12.2552 159.905L10.1741 164.82L9.60156 164.245Z" fill="#263238"/>
<path d="M102.058 154.769C102.058 154.769 99.9766 153.619 98.325 157.646C96.6329 161.755 98.7617 164.492 100.446 162.869C100.446 162.869 101.771 166.752 104.414 165.822C107.057 164.893 107.486 161.934 107.486 161.934C107.486 161.934 109.835 162.16 109.898 159.71C109.96 157.26 108.242 155.088 108.242 155.088C108.242 155.088 108.139 148.981 105.306 149.033C102.472 149.084 102.058 154.769 102.058 154.769Z" fill="#455A64"/>
<path d="M104.01 176.407L104.59 158.236L105.2 176.407H104.01Z" fill="#263238"/>
<path d="M104.421 165.067L102.59 159.972L104.719 164.271L104.421 165.067Z" fill="#263238"/>
<path d="M67.0574 154.769C67.0574 154.769 64.9726 153.619 63.321 157.646C61.6326 161.755 63.7577 164.492 65.4424 162.869C65.4424 162.869 66.7674 166.752 69.4137 165.822C72.0601 164.893 72.4858 161.934 72.4858 161.934C72.4858 161.934 74.8312 162.16 74.8972 159.71C74.9633 157.26 73.2382 155.088 73.2382 155.088C73.2382 155.088 73.1355 148.981 70.302 149.033C67.4685 149.084 67.0574 154.769 67.0574 154.769Z" fill="#455A64"/>
<path d="M69.0062 176.407L69.5898 158.236L70.1991 176.407H69.0062Z" fill="#263238"/>
<path d="M69.4173 165.067L67.5895 159.972L69.7146 164.271L69.4173 165.067Z" fill="#263238"/>
<path d="M241.373 153.182C241.373 153.182 245.847 167.085 238.543 167.096C231.239 167.106 235.974 152.715 235.974 152.715C235.974 152.715 234.282 151.688 236.238 143.912C238.195 136.136 239.057 136.156 239.857 136.156C240.889 136.156 241.847 139.51 241.149 144.672C241.164 144.667 243.741 151.097 241.373 153.182Z" fill="#37474F"/>
<path d="M237.905 176.325L238.591 155.365L239.311 176.32L237.905 176.325Z" fill="#263238"/>
<path d="M238.312 164.153L240.962 159.813L238.885 164.728L238.312 164.153Z" fill="#263238"/>
<path d="M213.332 153.182C213.332 153.182 217.806 167.085 210.502 167.096C203.198 167.106 207.933 152.715 207.933 152.715C207.933 152.715 206.241 151.688 208.197 143.912C210.153 136.136 211.019 136.156 211.831 136.156C212.862 136.156 213.824 139.51 213.122 144.672C213.122 144.667 215.699 151.097 213.332 153.182Z" fill="#37474F"/>
<path d="M209.863 176.325L210.55 155.365L211.273 176.32L209.863 176.325Z" fill="#263238"/>
<path d="M210.271 164.153L212.921 159.813L210.843 164.728L210.271 164.153Z" fill="#263238"/>
<path d="M92.0119 156.136C92.0119 156.136 88.114 168.328 94.5114 168.318C100.909 168.308 96.754 155.714 96.754 155.714C96.754 155.714 98.2221 154.8 96.5081 148.01C94.794 141.22 94.0196 141.215 93.3039 141.22C92.4046 141.22 91.5678 144.163 92.2028 148.678C92.1844 148.673 89.9382 154.317 92.0119 156.136Z" fill="#37474F"/>
<path d="M95.0841 176.397L94.4528 158.041L93.8508 176.397H95.0841Z" fill="#263238"/>
<path d="M94.7097 165.74L92.3827 161.939L94.2105 166.243L94.7097 165.74Z" fill="#263238"/>
<path d="M149.706 156.136C149.706 156.136 145.808 168.328 152.206 168.318C158.603 168.308 154.445 155.714 154.445 155.714C154.445 155.714 155.913 154.8 154.202 148.01C152.492 141.22 151.714 141.215 150.998 141.22C150.099 141.22 149.262 144.163 149.897 148.678C149.879 148.673 147.632 154.317 149.706 156.136Z" fill="#37474F"/>
<path d="M152.778 176.397L152.147 158.041L151.545 176.397H152.778Z" fill="#263238"/>
<path d="M152.404 165.74L150.077 161.939L151.905 166.243L152.404 165.74Z" fill="#263238"/>
<path d="M217.34 154.697C217.34 154.697 215.255 153.542 213.603 157.568C211.911 161.703 214.04 164.415 215.725 162.797C215.725 162.797 217.05 166.68 219.696 165.75C222.342 164.82 222.764 161.857 222.764 161.857C222.764 161.857 225.114 162.088 225.176 159.633C225.238 157.178 223.521 155.011 223.521 155.011C223.521 155.011 223.418 148.904 220.584 148.955C217.751 149.007 217.34 154.697 217.34 154.697Z" fill="#455A64"/>
<path d="M219.289 176.336L219.869 158.164L220.478 176.33L219.289 176.336Z" fill="#263238"/>
<path d="M219.692 164.97L217.868 159.895L220.052 164.189L219.692 164.97Z" fill="#263238"/>
<path d="M160.115 73.9538C159.831 73.7544 159.536 73.5828 159.234 73.4402C158.927 73.277 158.604 73.1734 158.277 73.1321C158.176 73.1216 158.075 73.1372 157.979 73.1783C157.948 73.1947 157.917 73.2136 157.887 73.2348L157.829 73.2964C157.792 73.3324 157.763 73.3735 157.726 73.4146C157.597 73.5757 157.474 73.7472 157.359 73.9282C157.146 74.2671 156.952 74.6215 156.761 74.9862L156.999 74.8681C156.678 74.7393 156.35 74.6432 156.019 74.5804C155.85 74.5475 155.68 74.5303 155.509 74.5291C155.418 74.5277 155.327 74.5363 155.237 74.5548C155.187 74.5652 155.138 74.5824 155.091 74.6061C155.04 74.6323 154.991 74.665 154.944 74.7037C154.798 74.8468 154.668 75.02 154.558 75.2173C154.452 75.4022 154.36 75.5922 154.268 75.7874C154.095 76.1784 153.943 76.587 153.813 77.0098C154.026 76.6554 154.228 76.301 154.445 75.9826C154.551 75.8131 154.658 75.6487 154.771 75.4998C154.874 75.3545 154.99 75.2285 155.116 75.1249C155.235 75.0711 155.36 75.0536 155.483 75.0735C155.638 75.0878 155.791 75.117 155.942 75.1608C156.25 75.2379 156.562 75.3457 156.863 75.4587L157.014 75.5152L157.102 75.3406C157.278 74.9913 157.469 74.6421 157.66 74.3134C157.751 74.1479 157.849 73.9901 157.954 73.8409L158.031 73.7381L158.064 73.697C158.117 73.6668 158.175 73.6511 158.232 73.6508C158.536 73.65 158.838 73.6913 159.135 73.7741C159.477 73.7844 159.803 73.8768 160.115 73.9538Z" fill="#263238"/>
<path d="M156.658 87.0199C156.283 86.6073 155.89 86.2298 155.48 85.89C155.061 85.5246 154.609 85.2395 154.136 85.0425C153.991 84.987 153.839 84.9696 153.689 84.9912C153.638 84.9967 153.588 85.0141 153.542 85.0425L153.443 85.1042C153.377 85.1453 153.325 85.1915 153.266 85.2326C153.055 85.4122 152.85 85.6077 152.654 85.8181C152.264 86.229 151.919 86.6707 151.552 87.1226L151.919 87.0507C151.475 86.7311 151.015 86.4548 150.543 86.2238C150.303 86.1095 150.057 86.0152 149.809 85.9413C149.676 85.9052 149.541 85.8829 149.405 85.8746C149.331 85.8671 149.256 85.8671 149.181 85.8746C149.104 85.8746 149.02 85.9311 148.946 85.9568C148.7 86.108 148.472 86.3126 148.271 86.5628C148.079 86.7895 147.897 87.0313 147.724 87.287C147.387 87.7876 147.079 88.3252 146.803 88.8946C147.17 88.4631 147.555 88.0266 147.944 87.626C148.13 87.42 148.324 87.228 148.524 87.0507C148.705 86.8784 148.901 86.7403 149.108 86.6398C149.302 86.6076 149.499 86.6357 149.684 86.722C149.907 86.8057 150.125 86.9103 150.338 87.0353C150.771 87.2767 151.211 87.5489 151.629 87.852L151.839 87.9958L152.004 87.7749C152.334 87.3281 152.687 86.8966 153.039 86.4806C153.209 86.2736 153.386 86.0799 153.571 85.9003C153.615 85.8643 153.659 85.8181 153.703 85.7873L153.762 85.741C153.762 85.741 153.762 85.741 153.784 85.741C153.869 85.7199 153.956 85.7199 154.041 85.741C154.487 85.863 154.924 86.0471 155.344 86.2906C155.781 86.5166 156.217 86.7734 156.658 87.0199Z" fill="#263238"/>
<path d="M84.5245 34.4115C84.2689 34.1457 84.0003 33.9054 83.7207 33.6924C83.4351 33.465 83.1289 33.2922 82.8104 33.1788C82.7109 33.1543 82.609 33.1543 82.5094 33.1788C82.477 33.1893 82.4451 33.203 82.414 33.2199L82.348 33.2661C82.3088 33.2939 82.2708 33.3248 82.2342 33.3586C82.0954 33.483 81.9618 33.6185 81.8341 33.7643C81.5808 34.052 81.3496 34.355 81.1184 34.6683L81.3643 34.6067C81.0623 34.4098 80.7522 34.2383 80.4357 34.093C80.2742 34.0314 80.109 33.9698 79.9365 33.9287C79.8469 33.9061 79.756 33.894 79.6649 33.8927C79.6148 33.8879 79.5645 33.8879 79.5144 33.8927C79.462 33.9078 79.4105 33.9284 79.3603 33.9544C79.1975 34.0636 79.0477 34.2074 78.9162 34.3807C78.7932 34.5427 78.6768 34.7142 78.5675 34.8943C78.3497 35.239 78.1509 35.6065 77.9729 35.9934C78.2225 35.6955 78.4647 35.3925 78.707 35.11C78.8318 34.9713 78.9602 34.8326 79.074 34.7145C79.1869 34.5953 79.3102 34.4969 79.441 34.4218C79.5699 34.3947 79.7013 34.407 79.8264 34.4577C79.9757 34.5093 80.1228 34.5727 80.2669 34.6477C80.5605 34.7967 80.8578 34.9713 81.1404 35.1613L81.2836 35.2487L81.39 35.0997C81.6029 34.7915 81.8341 34.4885 82.0617 34.2009C82.1713 34.0586 82.2865 33.9249 82.4067 33.8003C82.436 33.8003 82.4654 33.7387 82.4948 33.7181L82.5315 33.6873C82.5315 33.6873 82.5315 33.6873 82.5498 33.6873C82.6057 33.6733 82.6628 33.6733 82.7187 33.6873C83.0177 33.7584 83.3114 33.8685 83.5959 34.016C83.9299 34.1033 84.2345 34.2625 84.5245 34.4115Z" fill="#263238"/>
<path d="M95.0656 32.6189C94.7955 32.0673 94.4987 31.5421 94.1774 31.0472C93.8559 30.5246 93.4855 30.0651 93.0763 29.6811C92.9495 29.5677 92.8089 29.4876 92.6615 29.4448C92.6117 29.4342 92.5609 29.4342 92.511 29.4448C92.4744 29.4418 92.4376 29.4418 92.4009 29.4448L92.2064 29.5013C91.965 29.5805 91.7272 29.68 91.4944 29.7992C91.0392 30.0303 90.6061 30.3128 90.1657 30.5901L90.5327 30.6723C90.1746 30.1848 89.7932 29.7318 89.3913 29.3164C89.1857 29.1039 88.9699 28.9117 88.7453 28.7412C88.6268 28.6497 88.5042 28.5691 88.3782 28.4998C88.3061 28.4675 88.2325 28.4417 88.158 28.4227C88.0774 28.4148 87.9964 28.4148 87.9158 28.4227C87.6493 28.4651 87.3892 28.5656 87.145 28.7206C86.9101 28.8593 86.6899 29.0185 86.4697 29.1829C86.0415 29.5232 85.6329 29.9096 85.2474 30.3385C85.7026 30.0817 86.154 29.8249 86.6055 29.5989C86.8273 29.4793 87.0541 29.3781 87.2845 29.2959C87.4935 29.2025 87.7111 29.1524 87.9305 29.1469C88.1216 29.1928 88.3025 29.3001 88.459 29.4602C88.6537 29.633 88.84 29.8234 89.0169 30.0303C89.3839 30.4412 89.751 30.8932 90.0776 31.3451L90.2465 31.5711L90.452 31.4273C90.8631 31.1397 91.2925 30.8726 91.7146 30.621C91.9203 30.4943 92.1311 30.3845 92.3459 30.2922C92.3952 30.2693 92.4455 30.2504 92.4964 30.2358H92.5624H92.5881C92.6738 30.2527 92.7568 30.2891 92.834 30.3436C93.2326 30.638 93.6099 30.9854 93.9608 31.3811C94.3315 31.7714 94.6912 32.1977 95.0656 32.6189Z" fill="#263238"/>
<path d="M170.51 83.8149C170.239 83.2633 169.943 82.7382 169.621 82.2433C169.301 81.7194 168.93 81.2596 168.52 80.8771C168.395 80.7607 168.254 80.6804 168.106 80.6409C168.056 80.6327 168.005 80.6327 167.955 80.6409H167.849C167.775 80.6409 167.716 80.6768 167.65 80.6922C167.41 80.7747 167.174 80.8759 166.942 80.9952C166.483 81.2264 166.05 81.5088 165.61 81.7862L165.977 81.8684C165.619 81.3794 165.238 80.9263 164.835 80.5125C164.629 80.3001 164.413 80.1063 164.189 79.9321C164.071 79.8403 163.949 79.7613 163.822 79.6958C163.752 79.6617 163.679 79.636 163.606 79.6188C163.525 79.6111 163.444 79.6111 163.363 79.6188C163.096 79.6601 162.834 79.7607 162.589 79.9167C162.358 80.0511 162.134 80.2054 161.917 80.3789C161.488 80.7175 161.078 81.1022 160.691 81.5294C161.15 81.2777 161.598 81.0158 162.053 80.7898C162.277 80.6768 162.505 80.569 162.728 80.4868C162.938 80.3985 163.155 80.3484 163.374 80.3378C163.566 80.3883 163.747 80.4951 163.907 80.6511C164.1 80.827 164.285 81.0191 164.461 81.2264C164.828 81.6321 165.195 82.0892 165.522 82.5412L165.69 82.7672L165.896 82.6234C166.307 82.3358 166.736 82.0687 167.159 81.817C167.364 81.6895 167.575 81.5781 167.79 81.4832L167.94 81.4318H168.006C168.006 81.4318 168.006 81.4318 168.032 81.4318C168.118 81.4463 168.201 81.4829 168.278 81.5397C168.678 81.8426 169.055 82.2004 169.405 82.608C169.776 82.9675 170.139 83.3938 170.51 83.8149Z" fill="#263238"/>
<path d="M28.8967 113.851C24.4567 114.2 20.0061 114.2 15.566 113.851C20.0061 113.501 24.4567 113.501 28.8967 113.851Z" fill="#263238"/>
<path d="M18.6086 119.988C14.0302 120.337 9.44158 120.337 4.86316 119.988C9.44148 119.634 14.0303 119.634 18.6086 119.988Z" fill="#263238"/>
<path d="M16.0688 116.177C10.7284 116.526 5.34403 116.526 0 116.177C5.34403 115.823 10.7284 115.823 16.0688 116.177Z" fill="#263238"/>
<path d="M118.736 81.0107C114.296 81.36 109.845 81.36 105.405 81.0107C109.845 80.6615 114.296 80.6615 118.736 81.0107Z" fill="#263238"/>
<path d="M99.2573 106.013C94.6777 106.362 90.0878 106.362 85.5082 106.013C90.0878 105.664 94.6777 105.664 99.2573 106.013Z" fill="#263238"/>
<path d="M106.591 101.519C101.247 101.868 95.8621 101.868 90.5181 101.519C95.8621 101.17 101.247 101.17 106.591 101.519Z" fill="#263238"/>
<g opacity="0.8">
<path d="M3.94202 197.501L6.58467 196.833C6.58467 196.833 3.77318 192.796 5.48356 190.316C7.19394 187.835 9.81457 190.028 9.81457 190.028C9.81457 190.028 9.42552 184.127 12.6848 182.894C15.9441 181.662 18.8179 190.485 18.8179 190.485C18.8179 190.485 19.2951 188.431 21.7322 189.227C24.1693 190.023 26.0926 194.681 26.0926 194.681L56.2812 197.506" fill="white"/>
<path d="M3.94202 197.501L6.581 196.808C5.98279 196.004 5.50602 195.04 5.17892 193.973C4.30538 191.472 5.54596 189.14 7.45087 189.058C8.29555 189.06 9.12525 189.37 9.85862 189.956L9.76319 190.039C9.72017 189.148 9.76214 188.253 9.88798 187.378C10.3578 183.439 13.2537 181.066 15.588 183.988C17.0562 185.709 18.0582 188.051 18.8913 190.434H18.7372C18.8991 189.901 19.1995 189.473 19.5777 189.237C21.5083 188.143 23.5233 189.997 24.7529 191.995C25.2738 192.781 25.7248 193.652 26.0962 194.589L56.2812 197.491L26.0889 194.748C26.0522 194.748 26.0595 194.748 26.0412 194.707C25.6371 193.794 25.1739 192.934 24.6575 192.139C23.6481 190.562 22.3195 189.15 20.7412 189.16C20.0071 189.119 19.1776 189.54 18.906 190.532L18.8326 190.773L18.7519 190.542C17.926 188.205 16.9167 185.919 15.4889 184.189C13.9474 182.216 11.87 182.612 10.7175 185.026C10.0811 186.538 9.79631 188.29 9.90266 190.039V190.198L9.80356 190.121C9.0911 189.545 8.28444 189.238 7.46188 189.227C6.26902 189.227 4.96237 190.491 4.99174 192.283C5.0211 194.076 5.81756 195.586 6.62137 196.864H6.59568L3.94936 197.512L3.94202 197.501Z" fill="#263238"/>
</g>
<g opacity="0.8">
<path d="M11.1615 197.501L13.8005 196.834C13.8005 196.834 10.989 192.797 12.6994 190.316C14.4098 187.835 17.0304 190.028 17.0304 190.028C17.0304 190.028 16.6266 184.127 19.8896 182.889C23.1525 181.651 26.0191 190.48 26.0191 190.48C26.0191 190.48 26.4999 188.426 28.9333 189.222C31.3668 190.018 33.2937 194.676 33.2937 194.676L63.4823 197.501" fill="white"/>
<path d="M11.1615 197.501L13.7968 196.808C13.2009 196.001 12.7245 195.038 12.3947 193.973C11.5212 191.472 12.7618 189.14 14.6667 189.058C15.509 189.061 16.3362 189.371 17.0671 189.956L16.9753 190.039C16.9323 189.148 16.9743 188.253 17.1001 187.378C17.5663 183.439 20.4622 181.066 22.7965 183.988C24.2646 185.709 25.2703 188.051 26.0998 190.434H25.9493C26.1113 189.901 26.4116 189.473 26.7898 189.237C28.7204 188.143 30.7318 189.997 31.9614 191.995C32.4822 192.781 32.9333 193.652 33.3047 194.589L63.4897 197.491L33.2974 194.748C33.2607 194.748 33.268 194.748 33.2533 194.707C32.8468 193.796 32.3838 192.937 31.8696 192.139C30.8603 190.562 29.5279 189.15 27.9533 189.16C27.2193 189.119 26.3898 189.54 26.1182 190.532L26.0484 190.773L25.9677 190.542C25.1382 188.205 24.1325 185.919 22.7011 184.189C21.1595 182.216 19.0821 182.612 17.9296 185.026C17.2921 186.538 17.0061 188.289 17.1111 190.039V190.198L17.012 190.121C16.3003 189.543 15.4932 189.235 14.6704 189.227C13.4775 189.227 12.1708 190.491 12.2002 192.283C12.2296 194.076 13.026 195.586 13.8335 196.864H13.8041L11.1615 197.512V197.501Z" fill="#263238"/>
</g>
<path d="M120.465 100.302C118.053 103.286 115.513 107.395 112.294 108.576C109.769 109.49 107.115 108.447 104.862 106.814C99.9032 103.219 95.2015 95.6742 96.9155 87.3332C97.6019 84 100.74 80.0401 103.427 81.2727C104.803 81.9096 105.853 83.3271 107.002 84.5033C107.694 85.2654 108.501 85.7996 109.361 86.0663C110.221 86.333 111.113 86.3254 111.971 86.0441C115.561 84.9553 117.238 82.4848 120.208 79.7114C120.489 79.4097 120.812 79.1929 121.156 79.0744C121.501 78.956 121.859 78.9385 122.208 79.0231C123.733 79.4689 125.1 80.6416 126.076 82.341C126.935 84.2054 126.748 87.1278 126.811 89.249C126.873 91.3702 126.473 92.8442 125.324 94.3183C123.72 96.347 122.083 98.309 120.465 100.302Z" fill="#263238"/>
<path d="M119.532 102.058C121.617 99.1409 123.658 96.1671 125.717 93.2139C125.717 93.2139 125.717 93.1625 125.717 93.1831C123.973 95.5457 122.208 97.8723 120.487 100.266C118.765 102.659 117.183 105.191 115.348 107.323C111.245 112.115 106.11 108.021 103.471 102.834C103.35 102.597 103.104 102.89 103.221 103.121C105.644 107.574 109.692 111.586 113.832 109.1C116.082 107.744 117.826 104.446 119.532 102.058Z" fill="#263238"/>
<path d="M120.589 79.7371C120.633 79.6857 120.589 79.5984 120.531 79.6447C118.156 82.0689 115.55 85.2121 112.507 85.6281C111.009 85.829 109.502 85.3923 108.184 84.3749C107.141 83.5635 106.378 82.3205 105.478 81.2574C101.966 77.1126 97.1872 82.3976 97.3854 88.0524C97.3854 88.1705 97.5359 88.1653 97.5359 88.0524C97.5359 83.9435 99.6573 80.1685 102.748 80.0761C105.229 79.999 106.554 83.7073 108.672 85.0272C113.061 87.7493 117.315 83.5737 120.589 79.7371Z" fill="#263238"/>
<path d="M104.789 120.887C104.789 120.887 104.521 117.338 104.535 116.603C104.55 115.869 107.229 113.337 107.229 113.337C107.229 113.337 107.861 106.557 108.367 105.027C108.507 104.6 113.076 103.999 113.671 104.76C114.265 105.52 117.191 121.164 117.191 121.164L104.789 120.887Z" fill="#1A375F"/>
<path opacity="0.5" d="M104.789 120.887C104.789 120.887 104.521 117.338 104.535 116.603C104.55 115.869 107.229 113.337 107.229 113.337C107.229 113.337 107.861 106.557 108.367 105.027C108.507 104.6 113.076 103.999 113.671 104.76C114.265 105.52 117.191 121.164 117.191 121.164L104.789 120.887Z" fill="white"/>
<path d="M121.72 102.823C124.289 110.014 128.451 118.268 129.795 119.377C131.516 120.779 140.163 120.666 140.637 120.579C141.808 120.353 141.716 109.233 140.457 109.398C138.545 109.649 133.303 110.687 132.801 110.245C132.298 109.803 128.572 105.73 124.674 101.057C121.999 97.8261 120.127 98.3654 121.72 102.823Z" fill="#D3766A"/>
<path d="M143.999 108.247C145.385 107.834 146.829 108.09 148.099 108.971C149.284 109.793 149.53 112.654 149.317 113.286C149.104 113.917 147.32 117.559 146.128 116.773C144.935 115.987 146.674 113.429 146.748 113.055C146.821 112.68 146.924 112.202 146.689 112.089C146.454 111.976 141.624 111.981 141.624 111.981L143.999 108.247Z" fill="#D3766A"/>
<path d="M144.212 108.191C144.278 108.232 148.073 108.581 149.258 109.403C150.444 110.225 150.686 113.085 150.473 113.717C150.26 114.349 148.48 117.99 147.287 117.204C146.095 116.419 147.834 113.861 147.908 113.486C147.981 113.111 148.084 112.638 147.845 112.52C147.607 112.402 142.784 112.412 142.784 112.412L144.212 108.191Z" fill="#D3766A"/>
<path d="M146.953 116.722C146.926 116.339 146.972 115.953 147.086 115.602C147.183 115.233 147.319 114.887 147.489 114.575C147.657 114.319 147.81 114.045 147.944 113.753C148.048 113.444 148.094 113.103 148.077 112.762C148.077 112.464 147.864 112.428 147.688 112.402C147.425 112.382 147.161 112.382 146.898 112.402L146.054 112.443C145.762 112.442 145.471 112.466 145.181 112.515C145.177 112.518 145.173 112.522 145.171 112.527C145.169 112.532 145.167 112.538 145.167 112.544C145.167 112.55 145.169 112.555 145.171 112.56C145.173 112.565 145.177 112.569 145.181 112.572C145.425 112.59 145.67 112.59 145.915 112.572C146.19 112.572 146.469 112.572 146.744 112.572C147.02 112.572 147.262 112.572 147.522 112.572C147.647 112.553 147.774 112.58 147.889 112.649C147.97 112.736 147.889 113.08 147.889 113.193C147.839 113.527 147.719 113.833 147.544 114.072C147.38 114.328 147.235 114.606 147.111 114.904C146.992 115.182 146.909 115.488 146.869 115.808C146.855 116.112 146.868 116.417 146.909 116.717C146.909 116.773 146.957 116.763 146.953 116.722Z" fill="#263238"/>
<path d="M144.762 108.057C144.836 108.057 148.605 107.374 149.882 107.852C151.16 108.329 151.806 111.062 151.684 111.74C151.563 112.418 150.334 116.485 149.053 116.039C147.772 115.592 149.119 112.613 149.134 112.228C149.148 111.842 149.189 111.344 148.939 111.293C148.689 111.241 143.962 112.592 143.962 112.592L144.762 108.057Z" fill="#D3766A"/>
<path d="M148.656 115.664C148.578 115.295 148.569 114.904 148.631 114.529C148.671 114.136 148.756 113.755 148.88 113.399C149.007 113.099 149.118 112.787 149.211 112.464C149.272 112.127 149.272 111.774 149.211 111.437C149.156 111.149 148.95 111.17 148.774 111.195C148.513 111.239 148.254 111.306 148 111.396C147.724 111.478 147.453 111.575 147.177 111.663C146.892 111.745 146.61 111.851 146.333 111.981C146.311 111.981 146.315 112.038 146.333 112.033C146.58 111.99 146.825 111.928 147.067 111.848L147.886 111.632C148.139 111.57 148.392 111.488 148.649 111.432C148.77 111.39 148.896 111.39 149.016 111.432C149.108 111.493 149.097 111.848 149.097 111.945C149.095 112.286 149.02 112.618 148.884 112.901C148.758 113.196 148.654 113.509 148.576 113.835C148.499 114.142 148.462 114.466 148.466 114.791C148.496 115.092 148.553 115.387 148.634 115.669C148.62 115.725 148.668 115.7 148.656 115.664Z" fill="#263238"/>
<path d="M144.577 125.481L146.348 126.738L152.683 109.271L150.913 108.013L144.577 125.481Z" fill="#263238"/>
<path d="M152.991 117.485L149.46 115.653L148.682 118.591L152.213 120.422L152.991 117.485Z" fill="#263238"/>
<path d="M154.176 117.432L151.881 116.241L150.789 120.364L153.084 121.555L154.176 117.432Z" fill="#263238"/>
<path d="M138.941 110.07C138.941 110.07 143.213 108.396 144.212 108.191C145.533 107.913 147.607 108.822 147.676 110.296C147.676 110.723 146.362 112.51 146.267 112.864C145.995 113.814 146.043 115.946 147.17 116.65C148.297 117.353 149.783 115.55 150.888 115.972C151.993 116.393 150.437 118.57 149.203 119.608C147.953 120.569 146.534 121.014 145.111 120.892C143.98 120.764 140.398 120.589 140.398 120.589L138.941 110.07Z" fill="#D3766A"/>
<path d="M148.917 116.444C148.344 116.619 147.673 116.891 147.111 116.557C146.55 116.223 146.337 115.448 146.293 114.626C146.218 113.795 146.373 112.956 146.726 112.279C147.082 111.694 147.551 111.264 148.077 111.041C148.72 110.773 149.387 110.637 150.059 110.635C150.088 110.635 150.081 110.569 150.059 110.569C149.438 110.569 147.541 110.409 146.557 112.166C146.201 112.86 146.047 113.718 146.128 114.565C146.114 114.963 146.172 115.36 146.296 115.719C146.421 116.078 146.608 116.387 146.84 116.619C147.471 117.133 148.289 116.752 148.95 116.506C148.972 116.475 148.946 116.434 148.917 116.444Z" fill="#263238"/>
<path d="M140.391 108.581L139.726 122.14C139.726 122.14 131.501 121.667 129.728 120.019C127.956 118.37 123.467 108.298 121.786 103.245C120.105 98.1906 122.046 97.677 124.388 100.425C126.73 103.173 132.522 109.808 132.801 109.901C133.079 109.993 140.391 108.581 140.391 108.581Z" fill="#455A64"/>
<path d="M138.005 116.793C138.093 115.191 138.189 113.589 138.233 111.981C138.258 111.067 138.288 110.158 138.31 109.244C138.31 109.208 138.266 109.202 138.266 109.244C138.13 110.846 138.001 112.454 137.917 114.066C137.833 115.679 137.748 117.271 137.682 118.874C137.645 119.788 137.627 120.697 137.631 121.611H137.653C137.822 120.014 137.917 118.406 138.005 116.793Z" fill="#263238"/>
<path d="M139.778 120.789L139.712 122.14C139.712 122.14 131.483 121.668 129.714 120.024C127.945 118.381 123.452 108.299 121.771 103.245C120.541 99.5518 121.25 98.2781 122.634 98.9406C126.935 104.313 135.061 114.534 139.778 120.789Z" fill="#37474F"/>
<path d="M110.026 124.821L129.27 125.263L127.761 117.199C127.761 117.199 129.358 115.145 128.565 111.093C128.106 108.72 125.974 104.241 124.634 101.986C121.364 96.4858 118.523 98.9716 117.616 100.384C114.155 105.787 110.026 124.821 110.026 124.821Z" fill="#455A64"/>
<path d="M118.438 99.4285L122.729 99.5671L122.902 99.7264L118.281 99.5774C118.332 99.526 118.369 99.4747 118.438 99.4285ZM116.941 101.591L124.539 101.832L124.443 101.673L117.022 101.437L116.941 101.591ZM116.034 103.609L125.698 103.922L125.618 103.768L116.1 103.465C116.076 103.511 116.054 103.559 116.034 103.609ZM115.267 105.664L126.711 106.033C126.686 105.982 126.664 105.926 126.638 105.869L115.319 105.51C115.3 105.54 115.282 105.592 115.267 105.643V105.664ZM114.57 107.718L127.607 108.134L127.545 107.985L114.621 107.569L114.57 107.718ZM113.931 109.772L128.337 110.235C128.337 110.183 128.308 110.132 128.293 110.075L113.979 109.618L113.931 109.772ZM113.329 111.801L128.745 112.315C128.745 112.269 128.745 112.217 128.745 112.166L113.395 111.652C113.355 111.642 113.34 111.693 113.329 111.74V111.801ZM112.753 113.856L128.73 114.369C128.73 114.318 128.73 114.266 128.73 114.215L112.782 113.702L112.753 113.856ZM112.206 115.91L128.231 116.424L128.29 116.275L112.247 115.761L112.206 115.91ZM111.681 117.964L127.978 118.478L127.948 118.324L111.722 117.81C111.703 117.749 111.696 117.8 111.681 117.851V117.964ZM111.171 120.019L128.363 120.574L128.334 120.419L111.212 119.721C111.201 119.777 111.187 119.832 111.171 119.885V120.019ZM110.687 122.073L128.752 122.654L128.723 122.494L110.738 121.919L110.687 122.073ZM110.217 124.128L129.138 124.734L129.108 124.575L110.25 123.83C110.235 123.866 110.228 123.922 110.217 123.968V124.128Z" fill="white"/>
<path d="M122.612 116.727C123.434 116.623 124.261 116.604 125.086 116.67C125.497 116.711 125.9 116.778 126.308 116.855C126.51 116.896 126.715 116.927 126.917 116.953C127.129 116.991 127.344 116.991 127.556 116.953C127.578 116.953 127.581 116.989 127.556 116.994C127.359 117.06 127.159 117.107 126.957 117.132C126.762 117.15 126.566 117.15 126.37 117.132C125.952 117.097 125.537 117.035 125.122 116.989C124.285 116.906 123.449 116.824 122.608 116.824C122.601 116.82 122.595 116.813 122.59 116.804C122.586 116.795 122.584 116.784 122.585 116.774C122.585 116.763 122.588 116.752 122.593 116.744C122.598 116.736 122.604 116.73 122.612 116.727Z" fill="#263238"/>
<path d="M120.74 118.237C121.395 117.971 122.06 117.757 122.733 117.595C123.067 117.513 123.404 117.461 123.746 117.42L124.23 117.374C124.41 117.374 124.597 117.374 124.77 117.374C124.788 117.374 124.796 117.41 124.77 117.41C124.605 117.436 124.436 117.497 124.271 117.533L123.768 117.641L122.758 117.867C122.087 118.006 121.415 118.15 120.747 118.319C120.714 118.324 120.707 118.252 120.74 118.237Z" fill="#263238"/>
<path d="M119.885 99.6906C119.984 100.173 121.756 103.219 123.346 103.003C123.863 102.931 123.713 98.9664 123.713 98.9664L123.749 98.6736L124.241 94.5545L120.688 91.6989L120.175 91.324C120.175 91.324 120.09 92.4744 119.991 93.892V94.0974C119.991 94.1796 119.991 94.2566 119.973 94.3286C119.954 94.5443 119.94 94.76 119.925 94.9808C119.91 95.2017 119.907 95.3044 119.899 95.4944C119.892 95.6845 119.899 95.8385 119.874 96.008C119.818 97.2345 119.822 98.4648 119.885 99.6906Z" fill="#D3766A"/>
<path d="M120.006 93.8869C120.343 95.0187 120.853 96.0343 121.499 96.8635C122.144 97.6927 122.911 98.3156 123.746 98.6891L124.241 94.5545L120.689 91.6989L120.175 91.324C120.175 91.324 120.105 92.459 120.006 93.8869Z" fill="#263238"/>
<path d="M128.036 87.0868C129.439 94.2104 126.568 96.1878 125.467 96.609C124.473 96.9942 121.044 98.119 119.125 91.2367C117.205 84.3544 119.103 81.2009 121.356 80.1736C123.61 79.1464 126.634 79.9682 128.036 87.0868Z" fill="#D3766A"/>
<path d="M127.078 86.1365C126.954 86.1365 126.836 86.1365 126.711 86.1365C126.586 86.1643 126.457 86.1355 126.344 86.0543C126.312 86.0184 126.29 85.9689 126.28 85.9132C126.27 85.8575 126.273 85.7988 126.289 85.7461C126.333 85.6472 126.395 85.5665 126.469 85.5123C126.542 85.4581 126.625 85.4324 126.708 85.4379C126.878 85.4154 127.047 85.4812 127.185 85.6228C127.219 85.6567 127.245 85.7047 127.259 85.7604C127.274 85.816 127.275 85.8763 127.263 85.9329C127.251 85.9896 127.227 86.0397 127.194 86.0761C127.161 86.1126 127.121 86.1337 127.078 86.1365Z" fill="#263238"/>
<path d="M123.507 87.1484C123.625 87.0867 123.724 87.0046 123.838 86.9275C123.96 86.8709 124.066 86.7589 124.138 86.6091C124.156 86.5558 124.16 86.4959 124.15 86.4392C124.14 86.3824 124.116 86.3319 124.083 86.2958C124.011 86.2376 123.93 86.207 123.847 86.207C123.764 86.207 123.682 86.2376 123.61 86.2958C123.449 86.3846 123.318 86.5552 123.243 86.7734C123.224 86.8254 123.217 86.8843 123.224 86.942C123.23 86.9996 123.249 87.053 123.278 87.0945C123.308 87.136 123.345 87.1636 123.387 87.1732C123.428 87.1829 123.47 87.1742 123.507 87.1484Z" fill="#263238"/>
<path d="M124.693 88.8279C124.693 88.8279 124.667 88.8638 124.674 88.8844C124.781 89.362 124.843 89.9116 124.564 90.2197C124.564 90.2197 124.564 90.2557 124.564 90.2454C124.939 90.0246 124.847 89.2593 124.693 88.8279Z" fill="#263238"/>
<path d="M124.282 88.4426C123.713 88.5966 123.977 90.1785 124.506 90.0347C125.034 89.8909 124.759 88.309 124.282 88.4426Z" fill="#263238"/>
<path d="M124.072 88.5967C123.992 88.72 123.922 88.91 123.805 88.9665C123.687 89.023 123.537 88.8998 123.438 88.7714C123.485 89.0795 123.621 89.362 123.86 89.3312C124.098 89.3004 124.186 88.982 124.19 88.6635C124.157 88.6224 124.109 88.5505 124.072 88.5967Z" fill="#263238"/>
<path d="M126.62 88.0881C126.62 88.0881 126.649 88.0881 126.653 88.1189C126.722 88.6326 126.858 89.1462 127.203 89.2283V89.254C126.81 89.3002 126.627 88.5709 126.62 88.0881Z" fill="#263238"/>
<path d="M126.847 87.472C127.401 87.2357 127.702 88.8022 127.192 89.0128C126.682 89.2233 126.385 87.6723 126.847 87.472Z" fill="#263238"/>
<path d="M127.104 87.4873C127.207 87.5387 127.325 87.6568 127.431 87.626C127.537 87.5952 127.614 87.3897 127.662 87.1997C127.662 87.1997 127.662 87.1997 127.681 87.1997C127.727 87.3303 127.738 87.4797 127.713 87.621C127.687 87.7622 127.626 87.8861 127.541 87.9701C127.361 88.0934 127.174 87.8879 127.068 87.6055C127.046 87.5644 127.06 87.4719 127.104 87.4873Z" fill="#263238"/>
<path d="M125.342 92.8594C125.432 92.9835 125.551 93.0597 125.676 93.0751C125.809 93.037 125.934 92.96 126.043 92.8491C126.043 92.8491 126.069 92.8491 126.062 92.8491C126.025 92.9601 125.968 93.0549 125.895 93.1228C125.823 93.1908 125.738 93.2294 125.651 93.2343C125.575 93.2307 125.501 93.1942 125.441 93.1298C125.38 93.0654 125.336 92.9763 125.313 92.8748C125.287 92.8645 125.313 92.8491 125.342 92.8594Z" fill="#263238"/>
<path d="M126.473 90.5896C126.572 90.9257 126.659 91.2685 126.733 91.6168C126.733 91.6527 126.686 91.6887 126.601 91.7246C126.4 91.8522 126.178 91.8996 125.959 91.8615C125.74 91.8235 125.533 91.7014 125.361 91.5089C125.339 91.4833 125.361 91.437 125.39 91.4473C125.756 91.6372 126.156 91.6588 126.532 91.5089C126.532 91.4062 126.165 90.3174 126.198 90.302C126.392 90.2627 126.59 90.2627 126.785 90.302C126.396 88.8176 125.842 87.4361 125.471 85.9466C125.47 85.9361 125.472 85.9256 125.476 85.9164C125.479 85.9073 125.485 85.9 125.492 85.8955C125.499 85.891 125.506 85.8896 125.514 85.8914C125.521 85.8932 125.528 85.8981 125.533 85.9055C126.161 87.3701 126.682 88.9186 127.089 90.5279C127.134 90.6974 126.583 90.6153 126.473 90.5896Z" fill="#263238"/>
<path d="M126.535 91.591C126.452 91.9218 126.309 92.2171 126.121 92.4487C126.016 92.5693 125.888 92.6427 125.754 92.6593C125.456 92.6593 125.365 92.3306 125.346 92.007C125.332 91.8364 125.332 91.664 125.346 91.4934C125.725 91.7034 126.142 91.7376 126.535 91.591Z" fill="#263238"/>
<path d="M126.121 92.4488C126.016 92.5694 125.888 92.6428 125.753 92.6594C125.456 92.6594 125.364 92.3307 125.346 92.0071C125.492 91.9501 125.647 91.9626 125.787 92.0426C125.927 92.1225 126.045 92.2654 126.121 92.4488Z" fill="#FF9BBC"/>
<path d="M119.356 92.0633C119.654 91.7367 119.887 91.308 120.033 90.8186C120.178 90.3291 120.231 89.7955 120.186 89.2693C121.01 88.4434 121.663 87.3247 122.076 86.0285C122.076 86.1877 121.977 87.3433 121.918 87.9288C125.085 86.0952 125.588 82.2792 125.588 82.2792C126.341 82.9035 126.983 83.7566 127.468 84.7753C127.468 84.7753 127.064 81.9402 125.735 80.3531C125.298 79.7905 124.761 79.4019 124.18 79.2276C123.599 79.0533 122.996 79.0996 122.432 79.3619C121.576 79.3284 120.729 79.6178 119.981 80.1997C119.232 80.7817 118.61 81.6348 118.178 82.6695C116.534 86.5523 119.356 92.0633 119.356 92.0633Z" fill="#263238"/>
<path d="M124.311 86.4242C123.842 86.9868 123.317 87.4489 122.751 87.7955C123.624 87.1669 124.355 86.21 124.862 85.0323C125.075 84.5297 125.243 83.9913 125.361 83.4299C125.507 82.8222 125.566 82.1796 125.533 81.5398C125.533 81.4936 125.581 81.4884 125.585 81.5398C125.662 82.1669 125.662 82.8079 125.585 83.435C125.496 84.0539 125.325 84.6443 125.082 85.1761C124.866 85.6476 124.603 86.0731 124.3 86.4396L124.311 86.4242Z" fill="#263238"/>
<path d="M118.097 91.9865L117.87 91.8992C117.899 91.7503 118.163 90.456 118.651 90.1889C119.14 89.9218 122.226 89.4134 122.358 89.3928L122.384 89.7164C121.492 89.8653 119.081 90.2968 118.736 90.4919C118.391 90.6871 118.163 91.6167 118.097 91.9865Z" fill="#A6A6A6"/>
<path d="M125.588 89.0589L125.405 88.8586C125.618 88.4785 126.139 87.8879 126.664 88.3861L126.532 88.6531C126.076 88.2063 125.61 89.0281 125.588 89.0589Z" fill="#A6A6A6"/>
<g opacity="0.9">
<path d="M124.553 91.8887C124.417 91.9556 124.275 92.0004 124.131 92.0222C123.806 92.0676 123.479 91.9842 123.186 91.7817C122.893 91.5791 122.647 91.2656 122.475 90.8767C122.303 90.4878 122.213 90.0392 122.215 89.5821C122.217 89.1251 122.31 88.6778 122.484 88.2914C122.659 87.905 122.907 87.595 123.202 87.3966C123.496 87.1983 123.824 87.1197 124.149 87.1697C124.474 87.2197 124.782 87.3963 125.038 87.6795C125.295 87.9626 125.489 88.3409 125.599 88.7711C125.663 89.0148 125.698 89.2717 125.702 89.5313C125.711 90.043 125.605 90.5459 125.399 90.9688C125.193 91.3918 124.897 91.7135 124.553 91.8887Z" fill="#37474F"/>
<g opacity="0.1">
<path d="M124.388 87.2255L122.322 90.4098C122.216 89.9912 122.194 89.5399 122.259 89.1053L123.449 87.2666C123.753 87.1327 124.078 87.1185 124.388 87.2255Z" fill="white"/>
<path d="M125.401 88.2216L123.14 91.7295C123.042 91.6518 122.949 91.5624 122.861 91.4624L125.203 87.8672C125.277 87.9761 125.343 88.0947 125.401 88.2216Z" fill="white"/>
<path d="M125.629 88.905L123.625 91.9866H123.548L125.607 88.8022L125.629 88.905Z" fill="white"/>
</g>
</g>
<g opacity="0.9">
<path d="M128.15 90.7793C128.112 90.7839 128.074 90.7839 128.037 90.7793C127.372 90.8718 126.704 90.0038 126.513 88.7557C126.412 88.1648 126.448 87.5441 126.616 86.9838C126.68 86.7404 126.787 86.5236 126.927 86.3535C127.067 86.1833 127.235 86.0654 127.417 86.0106C127.598 85.9558 127.786 85.9659 127.964 86.04C128.141 86.114 128.303 86.2496 128.433 86.4342C128.747 86.846 128.961 87.3847 129.046 87.9751C129.255 89.3258 128.848 90.5739 128.15 90.7793Z" fill="#37474F"/>
<g opacity="0.1">
<path d="M129.042 87.9854L127.365 90.5535C127.166 90.3845 126.994 90.1588 126.862 89.8909L128.748 86.9736C128.889 87.2833 128.989 87.6261 129.042 87.9854Z" fill="white"/>
<path d="M128.091 86.1365L126.491 88.6121C126.49 88.5728 126.49 88.5333 126.491 88.494L128.04 86.1006L128.091 86.1365Z" fill="white"/>
</g>
</g>
<path d="M119.47 93.7121C119.554 93.7267 119.639 93.7267 119.723 93.7121C119.807 93.713 119.89 93.6939 119.969 93.6556C120.072 93.6162 120.168 93.5441 120.248 93.445C120.313 93.3695 120.37 93.2813 120.417 93.1831C120.484 93.0445 120.533 92.8895 120.56 92.726L120.017 90.8565C120.017 90.8565 118.585 88.8842 117.925 89.6392C117.264 90.3942 118.556 93.4861 119.47 93.7121Z" fill="#D3766A"/>
<path d="M118.317 90.5278C118.317 90.5278 118.317 90.5586 118.317 90.5637C118.621 90.6844 118.903 90.8931 119.145 91.1762C119.387 91.4594 119.584 91.8107 119.723 92.2073C119.677 92.1313 119.619 92.0704 119.554 92.0286C119.489 91.9868 119.418 91.9651 119.347 91.9651C119.275 91.9651 119.205 91.9868 119.14 92.0286C119.075 92.0704 119.017 92.1313 118.971 92.2073C118.971 92.2073 118.971 92.2535 118.996 92.2484C119.096 92.1732 119.21 92.1432 119.322 92.1625C119.435 92.1818 119.54 92.2495 119.624 92.3562C119.76 92.5399 119.883 92.7411 119.991 92.9571C120.028 93.0239 120.12 92.9571 120.086 92.8749C119.958 91.781 119.158 90.4456 118.317 90.5278Z" fill="#263238"/>
<path d="M117.106 101.144C114.17 105.253 106.881 121.041 108.995 124.087C111.109 127.133 123.933 123.46 127.398 121.349C128.426 120.723 124.201 111.498 122.993 111.73C121.995 111.925 116.853 114.513 116.717 114.097C116.581 113.681 117.451 110.261 118.824 104.154C120.424 97.1226 118.402 99.326 117.106 101.144Z" fill="#D3766A"/>
<path d="M120.762 114.503C122.123 112.584 123.637 110.889 125.273 109.449C126.866 108.15 130.554 105.854 135.355 109.614C136.497 110.507 137.667 112.906 135.429 112.397C133.839 112.033 132.911 111.134 131.956 111.159C131.956 111.159 133.19 114.457 132.507 116.018C131.911 117.386 131.246 118.692 130.518 119.927C130.327 119.79 130.141 119.637 129.963 119.47C129.963 119.47 129.229 120.846 127.394 121.355L120.762 114.503Z" fill="#D3766A"/>
<path d="M126.935 108.545C127.882 108.797 129.872 109.382 131.406 110.661C133.098 112.079 136.078 115.448 135.315 117.184C134.757 118.457 133.538 117.307 133.538 117.307C133.538 117.307 134.562 119.064 133.876 120.06C133.256 120.964 132.349 119.998 132.349 119.998C132.349 119.998 132.837 121.216 132.118 121.924C131.252 122.777 130.367 120.096 128.958 119.901C128.646 119.854 126.935 108.545 126.935 108.545Z" fill="#D3766A"/>
<path d="M130.041 112.911C131.496 113.826 132.717 115.34 133.542 117.251C133.56 117.302 133.542 117.348 133.52 117.307C132.487 115.657 131.315 114.188 130.03 112.931C130.03 112.931 130.03 112.906 130.041 112.911Z" fill="#263238"/>
<path d="M129.064 115.335C130.442 116.432 131.584 118.028 132.367 119.957C132.367 120.009 132.367 120.055 132.345 120.014C131.374 118.29 130.265 116.725 129.042 115.35C129.042 115.35 129.057 115.33 129.064 115.335Z" fill="#263238"/>
<path d="M131.949 111.133C132.716 111.17 133.473 111.396 134.184 111.801C134.571 111.988 134.966 112.142 135.366 112.263C135.733 112.371 136.269 112.536 136.522 112.022C136.576 111.874 136.6 111.708 136.592 111.543C136.583 111.377 136.543 111.218 136.475 111.082C136.286 110.693 136.055 110.347 135.792 110.055C135.792 110.055 135.792 110.019 135.792 110.029C136.046 110.295 136.279 110.596 136.489 110.928C136.629 111.157 136.716 111.44 136.739 111.739C136.739 112.381 136.269 112.669 135.88 112.654C135.646 112.633 135.414 112.581 135.186 112.5C134.97 112.428 134.753 112.34 134.537 112.248C134.096 112.053 133.667 111.827 133.226 111.626C132.803 111.444 132.371 111.3 131.934 111.195L131.949 111.133Z" fill="#263238"/>
<path d="M134.379 114.241C133.615 113.141 132.801 112.111 131.942 111.159C131.942 111.159 131.942 111.123 131.942 111.128C132.879 111.921 133.742 112.873 134.511 113.964C134.927 114.552 135.255 115.25 135.476 116.018C135.576 116.325 135.586 116.673 135.505 116.99C135.424 117.307 135.259 117.568 135.043 117.718C134.822 117.874 134.57 117.921 134.327 117.852C134.038 117.743 133.768 117.554 133.531 117.297C133.531 117.297 133.531 117.256 133.531 117.266C133.724 117.458 133.947 117.586 134.181 117.64C134.415 117.693 134.655 117.671 134.882 117.574C135.071 117.464 135.221 117.253 135.3 116.989C135.361 116.668 135.338 116.327 135.234 116.028C135.021 115.371 134.732 114.767 134.379 114.241Z" fill="#263238"/>
<path d="M121.492 112.12L125.093 123.737C125.093 123.737 109.788 127.784 108.576 124.02C107.365 120.255 113.608 106.044 116.372 101.971C119.573 97.2302 119.925 98.9148 119.14 103.214C118.317 107.713 116.783 114.205 116.783 114.205L121.492 112.12Z" fill="#455A64"/>
<path d="M112.085 117.03C112.808 116.382 113.564 115.809 114.346 115.314C115.12 114.828 115.919 114.423 116.735 114.102C117.198 113.912 117.668 113.753 118.137 113.589C118.137 113.589 118.156 113.614 118.137 113.619C117.318 113.947 116.513 114.341 115.726 114.801C114.944 115.242 114.166 115.71 113.392 116.193C112.955 116.47 112.529 116.773 112.1 117.066L112.085 117.03Z" fill="#263238"/>
<path d="M121.452 112.084C121.375 112.109 116.97 113.881 116.831 113.964C116.849 113.876 117.991 109.043 118.005 108.997C118.086 108.802 118.501 107.739 118.596 107.456C118.49 107.708 118.171 108.314 118.126 108.432C118.211 108.114 118.571 106.491 118.681 105.977C118.681 105.977 118.681 105.977 118.662 105.977C118.093 107.456 116.427 114.493 116.434 114.487C116.442 114.482 121.386 112.207 121.474 112.161C121.481 112.157 121.487 112.149 121.49 112.139C121.493 112.129 121.493 112.117 121.49 112.107C121.487 112.097 121.482 112.089 121.475 112.084C121.467 112.08 121.459 112.08 121.452 112.084Z" fill="#263238"/>
<path d="M121.547 119.557C121.154 118.257 120.765 116.958 120.332 115.684C120.09 114.96 119.848 114.231 119.598 113.507C119.598 113.507 119.554 113.507 119.561 113.507C119.929 114.832 120.296 116.157 120.688 117.456C121.081 118.756 121.485 120.05 121.9 121.334C122.144 122.07 122.395 122.791 122.652 123.496H122.67C122.344 122.166 121.947 120.861 121.547 119.557Z" fill="#263238"/>
<path d="M125.287 123.928C125.141 123.568 124.964 123.049 124.81 122.7C124.77 122.608 124.719 122.623 124.752 122.7C124.858 123.024 124.946 123.388 125.053 123.727L124.407 123.871L123.672 124.056C123.188 124.169 122.7 124.277 122.204 124.38C121.226 124.585 120.235 124.756 119.231 124.893C117.241 125.208 115.241 125.38 113.238 125.407C112.68 125.407 112.137 125.407 111.56 125.356C111.008 125.334 110.456 125.27 109.909 125.165C109.909 125.165 109.89 125.196 109.909 125.201C110.379 125.364 110.858 125.475 111.34 125.535C111.847 125.592 112.353 125.633 112.86 125.648C113.869 125.679 114.882 125.648 115.888 125.556C117.888 125.397 119.885 125.114 121.867 124.724C122.425 124.611 122.968 124.493 123.533 124.364L124.37 124.164C124.68 124.122 124.987 124.043 125.287 123.928Z" fill="#263238"/>
<path d="M155.92 115.181C155.068 115.799 154.293 116.603 153.622 117.564C152.709 118.976 151.545 123.378 151.545 123.378C151.545 123.378 162.024 124.873 161.995 123.779C161.965 122.685 155.92 115.181 155.92 115.181Z" fill="#263238"/>
<path d="M84.1904 118.488C84.1904 118.488 82.7663 105.854 82.168 105.283C81.5698 104.713 73.1867 104.647 72.6251 105.155C72.0636 105.664 71.7883 111.2 71.3111 111.318C70.834 111.436 67.9748 111.904 67.0535 112.381C66.1323 112.859 66.0919 117.127 66.0919 117.127L84.1904 118.488Z" fill="#1A375F"/>
<path opacity="0.5" d="M84.1904 118.488C84.1904 118.488 82.7663 105.854 82.168 105.283C81.5698 104.713 73.1867 104.647 72.6251 105.155C72.0636 105.664 71.7883 111.2 71.3111 111.318C70.834 111.436 67.9748 111.904 67.0535 112.381C66.1323 112.859 66.0919 117.127 66.0919 117.127L84.1904 118.488Z" fill="white"/>
<path d="M217.549 178.642L172.231 179.063C172.231 179.063 174.654 139.839 196.455 142.474C218.257 145.109 217.549 178.642 217.549 178.642Z" fill="#1A375F"/>
<path opacity="0.5" d="M217.549 178.642L172.231 179.063C172.231 179.063 174.654 139.839 196.455 142.474C218.257 145.109 217.549 178.642 217.549 178.642Z" fill="black"/>
<path d="M81.9075 178.6L36.7181 173.824C36.7181 173.824 41.4272 135.006 63.0015 140.137C84.5758 145.268 81.9075 178.6 81.9075 178.6Z" fill="#1A375F"/>
<path opacity="0.5" d="M81.9075 178.6L36.7181 173.824C36.7181 173.824 41.4272 135.006 63.0015 140.137C84.5758 145.268 81.9075 178.6 81.9075 178.6Z" fill="black"/>
<path opacity="0.6" d="M182.233 120.05L183.194 120.82C183.194 120.82 177.12 121.606 175.78 121.396C174.441 121.185 150.668 100.569 150.337 100.369C150.007 100.168 134.537 91.9866 134.537 91.9866C134.537 91.9866 155.733 101.432 157.102 102.125C158.471 102.818 182.233 120.05 182.233 120.05Z" fill="white"/>
<path d="M236.759 172.519C236.759 172.519 232.186 178.369 230.766 178.914C229.345 179.458 216.195 181.107 215.416 180.747C214.638 180.388 218.654 146.942 196.18 145.067C173.707 143.193 176.177 182.149 175.626 182.134C175.076 182.119 79.6062 181.107 79.1767 180.557C78.7473 180.008 82.0616 144.682 60.2377 144.297C39.3424 143.927 40.5316 176.269 39.7058 176.305C38.88 176.341 22.8515 173.649 21.5045 173.136C20.1575 172.622 18.2012 167.173 18.0581 166.7C17.9149 166.228 18.3407 164.98 18.3407 164.98C18.3407 164.98 16.2706 155.735 16.1642 152.057C16.0577 148.38 21.009 138.164 21.009 138.164L24.4848 121.796C24.4848 121.796 22.8626 120.44 22.6497 119.973C22.4368 119.505 22.2056 117.744 22.2056 117.744L55.7012 113.892C56.0838 113.516 56.492 113.195 56.9197 112.931C57.2868 112.798 59.4413 112.71 59.4413 112.71C59.4413 112.71 62.9501 116.429 64.3852 116.912C65.8203 117.394 160.945 123.902 161.473 123.665C162.002 123.429 148.388 104.585 146.997 102.798C145.606 101.01 133.755 96.4341 133.612 95.9462C133.469 95.4583 133.435 91.5806 133.81 91.6371C134.184 91.6936 149.141 99.3822 150.855 100.718C152.569 102.053 175.446 120.948 176.122 121.323C176.797 121.698 183.132 120.882 183.194 120.81C183.257 120.738 182.233 120.235 182.233 120.05C182.233 119.865 183.917 120.409 184.281 120.409C184.644 120.409 211.948 126.1 216.437 128.334C220.926 130.568 227.628 136.326 230.637 140.373C233.647 144.42 236.418 150.583 236.921 150.999C237.424 151.415 238.635 151.513 238.848 154.199C239.061 156.885 238.789 159.643 238.363 160.219C237.938 160.794 236.569 161.395 236.429 161.616C236.29 161.836 236.106 168.292 236.176 168.529C236.246 168.765 236.8 168.95 236.859 169.52C236.917 170.09 237.038 171.877 236.759 172.519Z" fill="#1A375F"/>
<path opacity="0.3" d="M179.223 157.728C178.699 159.135 178.246 160.592 177.869 162.088C161.352 161.364 86.444 158.026 86.5908 157.009C86.7376 155.992 166.035 157.445 179.223 157.728Z" fill="white"/>
<path d="M213.543 175.726C214.912 161.962 208.047 149.253 198.211 147.338C188.375 145.423 179.292 155.028 177.924 168.792C176.556 182.556 183.42 195.266 193.256 197.181C203.092 199.095 212.175 189.49 213.543 175.726Z" fill="#263238"/>
<path d="M201.002 189.104C207.647 185.043 210.682 174.214 207.78 164.915C204.878 155.617 197.139 151.371 190.494 155.431C183.849 159.492 180.815 170.321 183.717 179.62C186.618 188.918 194.357 193.164 201.002 189.104Z" fill="#DBDBDB"/>
<path d="M204.305 184.25C209.032 177.635 209.032 166.91 204.305 160.295C199.578 153.68 191.913 153.68 187.186 160.295C182.459 166.91 182.459 177.635 187.186 184.25C191.913 190.865 199.578 190.865 204.305 184.25Z" fill="#A6A6A6"/>
<path d="M193.427 168.452L197.189 167.686C195.652 165.38 199.146 155.519 199.146 155.519L197.072 155.006C196.085 158.436 195.523 159.5 194.44 159.72C193.358 159.941 192.605 159.145 190.95 156.254L189.074 157.584C189.074 157.584 194.429 165.627 193.427 168.452Z" fill="#DBDBDB"/>
<path d="M197.538 167.943L199.223 172.715C200.324 169.957 208.094 171.559 208.094 171.559L207.808 168.631C205.173 168.38 204.277 167.959 203.792 166.577C203.308 165.195 203.616 163.953 205.07 160.866L203.602 158.775C203.602 158.775 199.77 168.405 197.538 167.943Z" fill="#DBDBDB"/>
<path d="M199.157 173.254L196.433 176.972C198.636 177.573 199.961 188.421 199.961 188.421L201.862 187.137C201.22 183.541 201.227 182.232 202.012 181.163C202.798 180.095 203.737 180.111 206.288 181.097L207.25 178.477C207.25 178.477 199.531 176.366 199.157 173.254Z" fill="#DBDBDB"/>
<path d="M196.044 177.05L192.679 174.574C192.954 177.707 185.988 182.792 185.988 182.792L187.456 184.923C189.695 182.961 190.594 182.566 191.563 183.274C192.532 183.983 192.811 185.252 192.932 188.95L195.009 189.417C195.009 189.417 194.048 178.513 196.044 177.05Z" fill="#DBDBDB"/>
<path d="M192.51 174.081L193.148 168.837C191.108 170.167 185.485 162.473 185.485 162.473L184.49 165.072C186.516 167.45 187.059 168.524 186.876 170.034C186.692 171.544 185.922 172.304 183.444 173.629L183.767 176.541C183.767 176.541 190.895 171.872 192.51 174.081Z" fill="#DBDBDB"/>
<path d="M192.257 172.863C192.357 173.825 192.659 174.724 193.124 175.446C193.589 176.168 194.197 176.681 194.87 176.92C195.544 177.158 196.253 177.112 196.907 176.787C197.562 176.462 198.133 175.872 198.548 175.093C198.964 174.313 199.204 173.379 199.24 172.408C199.276 171.438 199.105 170.474 198.75 169.639C198.394 168.803 197.87 168.135 197.242 167.717C196.615 167.299 195.913 167.151 195.226 167.291C194.769 167.384 194.331 167.602 193.934 167.932C193.538 168.263 193.192 168.699 192.916 169.217C192.641 169.734 192.441 170.322 192.327 170.948C192.214 171.574 192.19 172.225 192.257 172.863Z" fill="#DBDBDB"/>
<path d="M69.1413 193.648C77.5584 186.274 80.1098 170.748 74.84 158.969C69.5702 147.191 58.4748 143.621 50.0577 150.995C41.6406 158.369 39.0893 173.895 44.3591 185.674C49.6289 197.452 60.7242 201.022 69.1413 193.648Z" fill="#263238"/>
<path d="M69.5614 184.297C74.282 176.595 73.6471 164.997 68.1434 158.391C62.6397 151.786 54.3512 152.674 49.6306 160.375C44.91 168.077 45.5449 179.675 51.0486 186.281C56.5523 192.887 64.8408 191.998 69.5614 184.297Z" fill="#DBDBDB"/>
<path d="M71.2136 177.095C73.0933 168.117 69.4162 158.707 63.0006 156.077C56.585 153.446 49.8604 158.592 47.9806 167.569C46.1009 176.547 49.778 185.957 56.1936 188.587C62.6092 191.218 69.3339 186.072 71.2136 177.095Z" fill="#A6A6A6"/>
<path d="M57.2794 168.513L61.0415 167.748C59.5037 165.437 62.9978 155.581 62.9978 155.581L60.9204 155.067C59.9331 158.498 59.3715 159.561 58.2888 159.782C57.206 160.003 56.4536 159.207 54.8019 156.315L52.9227 157.645C52.9227 157.645 58.2814 165.688 57.2794 168.513Z" fill="#DBDBDB"/>
<path d="M61.3903 168L63.0713 172.766C64.1724 170.008 71.9462 171.61 71.9462 171.61L71.6599 168.688C69.0246 168.436 68.129 168.015 67.6445 166.634C67.1601 165.252 67.4647 164.009 68.9218 160.917L67.4537 158.832C67.4537 158.832 63.6182 168.462 61.3903 168Z" fill="#DBDBDB"/>
<path d="M63.0053 173.316L60.2855 177.029C62.4877 177.635 63.8127 188.482 63.8127 188.482L65.7103 187.198C65.068 183.603 65.079 182.293 65.8608 181.22C66.6426 180.147 67.5895 180.193 70.1367 181.158L71.0984 178.534C71.0984 178.534 63.3833 176.428 63.0053 173.316Z" fill="#DBDBDB"/>
<path d="M59.8965 177.111L56.5308 174.635C56.8024 177.768 49.8361 182.853 49.8361 182.853L51.3042 184.985C53.5431 183.023 54.4423 182.627 55.4113 183.336C56.3803 184.045 56.6592 185.313 56.7767 188.986L58.8541 189.458C58.8541 189.458 57.8961 178.57 59.8965 177.111Z" fill="#DBDBDB"/>
<path d="M56.3399 174.163L56.9822 168.919C54.9379 170.249 49.3185 162.556 49.3185 162.556L48.3202 165.154C50.3462 167.532 50.8895 168.606 50.7096 170.116C50.5298 171.626 49.7516 172.386 47.2778 173.685L47.6008 176.598C47.6008 176.598 54.7433 171.934 56.3399 174.163Z" fill="#DBDBDB"/>
<path d="M56.105 172.925C56.2051 173.887 56.5067 174.786 56.9717 175.508C57.4367 176.23 58.0442 176.743 58.7175 176.982C59.3907 177.22 60.0995 177.175 60.7542 176.85C61.4089 176.525 61.9801 175.936 62.3956 175.158C62.8111 174.379 63.0523 173.445 63.0886 172.474C63.125 171.504 62.9548 170.54 62.5998 169.705C62.2447 168.869 61.7206 168.2 61.0938 167.781C60.4669 167.363 59.7654 167.213 59.078 167.353C58.1564 167.542 57.3259 168.235 56.7687 169.279C56.2114 170.324 55.9727 171.635 56.105 172.925Z" fill="#DBDBDB"/>
<path d="M24.338 122.53C23.0681 123.044 20.6016 127.851 20.4805 128.791C20.3594 129.731 20.1905 135.915 20.708 136.726C21.2256 137.538 23.002 139.449 24.338 139.253C25.674 139.058 34.1195 133.46 34.615 132.577C35.1105 131.693 35.0774 127.096 34.248 125.782C33.4185 124.467 25.9566 121.899 24.338 122.53Z" fill="white"/>
<path d="M34.626 132.602C34.1195 133.465 25.674 139.058 24.349 139.254C23.3324 139.402 22.0551 138.319 21.2806 137.441C22.3414 138.108 23.292 138.303 23.9967 138.057C24.7014 137.81 32.8055 132.967 33.4772 131.811C34.1489 130.656 33.7929 126.876 33.6204 126.218C33.4478 125.561 26.7091 122.623 26.7091 122.623C29.7481 123.008 33.6827 124.898 34.2553 125.787C35.0848 127.117 35.1325 131.734 34.626 132.602Z" fill="#EBEBEB"/>
<path d="M213.449 134.96C214.359 137.923 222.665 144.549 225.877 145.982C227.899 146.886 235.02 148.996 235.49 148.55C235.959 148.103 233.207 140.686 231.588 138.683C229.969 136.68 221.443 130.635 218.712 130.25C215.982 129.865 212.528 131.965 213.449 134.96Z" fill="white"/>
<path d="M235.493 148.56C235.02 149.002 227.903 146.885 225.877 145.992C222.665 144.554 214.359 137.933 213.445 134.965C212.531 131.996 215.982 129.89 218.712 130.27C218.925 130.3 219.136 130.35 219.344 130.419C216.683 131.2 215.875 133.855 217.248 135.751C218.621 137.646 223.157 142.345 225.047 143.521C226.883 144.656 233.779 147.656 234.458 147.117C234.596 146.947 234.705 146.736 234.778 146.5C234.85 146.263 234.884 146.007 234.877 145.75C235.383 147.224 235.669 148.395 235.493 148.56Z" fill="#EBEBEB"/>
<g opacity="0.1">
<path d="M215.266 176.258C215.31 178.929 215.24 180.665 215.417 180.747C216.195 181.107 229.342 179.468 230.766 178.914C232.19 178.359 236.76 172.514 236.76 172.514C236.76 172.514 236.782 172.463 236.789 172.432C232.005 174.676 227.02 175.967 221.979 176.269C221.062 176.315 218.738 176.31 215.266 176.258Z" fill="black"/>
<path d="M78.975 172.165C79.2503 176.911 79.0264 180.383 79.1585 180.557C79.5843 181.122 175.046 182.098 175.604 182.134C175.755 182.134 175.685 179.34 175.938 175.277C146.781 174.425 109.138 173.203 78.975 172.165Z" fill="black"/>
<path d="M18.0581 166.716C18.2012 167.188 20.1539 172.653 21.5046 173.151C22.8553 173.649 38.8543 176.346 39.6801 176.31C39.8967 176.31 39.9774 174.076 40.3518 170.799C35.0563 170.59 29.7747 169.932 24.5363 168.827C22.3094 168.139 20.203 166.837 18.3407 164.995C18.3407 164.995 17.915 166.248 18.0581 166.716Z" fill="black"/>
</g>
<g opacity="0.2">
<path d="M168.183 175.046C168.183 167.224 168.37 155.848 168.476 147.907C168.517 145.648 168.557 143.388 168.579 141.128C168.613 140.74 168.588 140.346 168.506 139.972C167.236 136.639 162.916 127.04 161.473 123.665C163.723 128.36 165.947 133.085 168.051 137.918C168.329 138.668 168.785 139.428 168.906 140.255C168.862 151.862 168.539 163.454 168.172 175.046H168.183Z" fill="black"/>
<path d="M99.7895 119.618L98.626 126.121C98.2186 128.812 97.5249 131.524 97.4771 134.272C97.6827 143.835 97.8809 156.511 97.9543 166.115L97.9763 172.817L97.7745 166.141C97.5432 157.219 97.3083 144.883 97.1945 135.982C97.1945 134.996 97.1101 133.568 97.2863 132.602C97.969 128.216 98.8756 123.933 99.7895 119.649V119.618Z" fill="black"/>
<path d="M44.4627 154.836C41.1924 152.494 37.9662 150.034 34.806 147.404C34.2502 146.89 33.7611 146.248 33.3599 145.504C32.7947 144.59 32.2294 143.67 31.6899 142.725C30.5888 140.845 29.5317 138.95 28.5004 137.009L30.2107 139.731C31.5027 141.749 33.2204 144.749 34.5968 146.629C37.8598 149.412 41.2034 152.001 44.4627 154.846V154.836Z" fill="black"/>
<path d="M213.181 133.075C204.53 131.534 195.751 129.885 187.144 127.867C183.4 125.895 179.781 123.578 176.133 121.339C177.851 122.263 185.676 126.706 187.236 127.435C195.402 129.248 205.055 131.128 213.192 133.085L213.181 133.075Z" fill="black"/>
<path d="M113.597 135.371C113.366 136.485 113.058 137.867 112.243 138.396C111.146 138.566 110.041 138.606 108.94 138.514C107.842 138.485 106.749 138.331 105.669 138.052C105.541 138.012 105.417 137.947 105.302 137.856C104.737 137.132 104.524 136.09 104.293 135.114C104.605 135.971 104.906 136.978 105.434 137.589C105.646 137.686 105.866 137.746 106.088 137.769C107.993 137.99 109.942 138.072 111.854 138.088C112.07 138.123 112.288 138.038 112.459 137.851C112.971 137.156 113.363 136.308 113.608 135.371H113.597Z" fill="black"/>
<path d="M113.663 133.624C113.476 132.71 113.256 131.57 112.709 131.01C112.486 130.923 112.257 130.866 112.026 130.841C110.562 130.659 109.091 130.609 107.622 130.692C106.627 130.692 105.728 130.954 105.031 132.007C104.671 132.462 104.366 132.996 104.128 133.589C104.311 132.939 104.58 132.343 104.921 131.832C105.252 131.287 105.664 130.849 106.128 130.548C106.614 130.347 107.116 130.231 107.622 130.204C109.106 130.07 110.595 130.153 112.067 130.45C112.325 130.503 112.579 130.596 112.823 130.728C113.439 131.437 113.557 132.602 113.663 133.624Z" fill="black"/>
<path d="M113.362 133.517C114.878 133.979 114.783 135.222 113.267 135.479C111.369 135.74 109.461 135.705 107.56 135.715C106.385 135.597 105.086 135.92 103.959 135.201C103.39 134.811 103.225 133.927 103.882 133.486C105.082 132.833 106.422 133.178 107.666 133.106C109.569 133.11 111.47 133.249 113.362 133.522V133.517ZM113.362 133.517C110.547 133.085 107.655 133.316 104.836 133.594C104.37 133.65 103.265 134.107 104.128 134.754C104.744 135.196 105.449 135.109 106.143 135.186C108.499 135.304 110.914 135.581 113.26 135.407C114.761 135.217 114.867 133.999 113.362 133.517Z" fill="black"/>
</g>
<path d="M236.433 161.616C236.433 161.616 227.874 162.679 227.767 162.643C227.661 162.607 227.4 160.958 226.684 160.912C225.969 160.866 223.484 163.835 223.087 166.69C222.691 169.546 223.157 171.688 224.453 171.472C225.748 171.256 227.518 167.589 227.518 167.589C227.518 167.589 234.088 167.075 234.245 167.245C234.509 167.577 234.79 167.88 235.086 168.154C235.444 168.328 235.812 168.453 236.187 168.529L236.433 161.616Z" fill="#263238"/>
<path d="M155.146 129.012C154.566 127.795 155.942 118.74 156.577 118.139C157.212 117.538 164.523 118.92 164.285 124.724C164.046 130.527 156.049 130.918 155.146 129.012Z" fill="#1A375F"/>
<path opacity="0.1" d="M155.146 129.012C154.566 127.795 155.942 118.74 156.577 118.139C157.212 117.538 164.523 118.92 164.285 124.724C164.046 130.527 156.049 130.918 155.146 129.012Z" fill="black"/>
<g opacity="0.4">
<path d="M81.8158 159.048C79.9035 150.476 75.3413 143.09 69.399 139.618C62.4804 135.73 54.0606 135.833 47.6669 141.554C43.7271 145.167 40.6572 150.357 38.858 156.449C39.6334 153.32 40.7582 150.384 42.1907 147.748C48.4046 136.038 59.3606 133.367 68.8081 138.324C75.2312 141.672 80.1862 149.844 81.7974 159.058L81.8158 159.048Z" fill="white"/>
<path d="M217.798 159.613C215.886 151.035 211.324 143.65 205.382 140.178C198.463 136.29 190.043 136.398 183.65 142.119C179.709 145.73 176.639 150.921 174.841 157.014C175.622 153.878 176.755 150.936 178.195 148.298C184.409 136.593 195.365 133.917 204.813 138.873C211.236 142.222 216.191 150.399 217.802 159.613H217.798Z" fill="white"/>
<path d="M154.896 135.129C126.157 133.588 97.1284 131.354 68.4446 128.452C97.1834 129.993 126.212 132.233 154.896 135.129Z" fill="white"/>
</g>
</svg>
