<svg width="245" height="206" viewBox="0 0 245 206" fill="none" xmlns="http://www.w3.org/2000/svg">
<path d="M244.931 181.03H0.0691164C0.0309444 181.03 0 181.061 0 181.099C0 181.137 0.0309447 181.168 0.0691167 181.168H244.931C244.969 181.168 245 181.137 245 181.099C245 181.061 244.969 181.03 244.931 181.03Z" fill="#E0E0E0"/>
<path d="M207.745 188.787H202.684C202.646 188.787 202.615 188.818 202.615 188.856C202.615 188.895 202.646 188.925 202.684 188.925H207.745C207.783 188.925 207.814 188.895 207.814 188.856C207.814 188.818 207.783 188.787 207.745 188.787Z" fill="#E0E0E0"/>
<path d="M198.949 188.854H177.944C177.906 188.854 177.875 188.885 177.875 188.923C177.875 188.961 177.906 188.992 177.944 188.992H198.949C198.987 188.992 199.018 188.961 199.018 188.923C199.018 188.885 198.987 188.854 198.949 188.854Z" fill="#E0E0E0"/>
<path d="M151.669 187.538H116.126C116.087 187.538 116.056 187.569 116.056 187.607C116.056 187.645 116.087 187.676 116.126 187.676H151.669C151.707 187.676 151.738 187.645 151.738 187.607C151.738 187.569 151.707 187.538 151.669 187.538Z" fill="#E0E0E0"/>
<path d="M95.4613 189.937H84.2757C84.2375 189.937 84.2065 189.968 84.2065 190.006C84.2065 190.045 84.2375 190.075 84.2757 190.075H95.4613C95.4995 190.075 95.5304 190.045 95.5304 190.006C95.5304 189.968 95.4995 189.937 95.4613 189.937Z" fill="#E0E0E0"/>
<path d="M57.7264 187.604H42.2729C42.2347 187.604 42.2037 187.635 42.2037 187.673C42.2037 187.711 42.2347 187.742 42.2729 187.742H57.7264C57.7646 187.742 57.7955 187.711 57.7955 187.673C57.7955 187.635 57.7646 187.604 57.7264 187.604Z" fill="#E0E0E0"/>
<path d="M75.0184 187.604H60.584C60.5458 187.604 60.5149 187.635 60.5149 187.673C60.5149 187.711 60.5458 187.742 60.584 187.742H75.0184C75.0566 187.742 75.0875 187.711 75.0875 187.673C75.0875 187.635 75.0566 187.604 75.0184 187.604Z" fill="#E0E0E0"/>
<path d="M46.8043 185.188H32.0612C32.023 185.188 31.9921 185.219 31.9921 185.257C31.9921 185.295 32.023 185.326 32.0612 185.326H46.8043C46.8424 185.326 46.8734 185.295 46.8734 185.257C46.8734 185.219 46.8424 185.188 46.8043 185.188Z" fill="#E0E0E0"/>
<path d="M116.13 156.369H21.5159C20.7747 156.367 20.0643 156.034 19.5407 155.442C19.017 154.85 18.7229 154.048 18.7229 153.212V3.12959C18.7294 2.298 19.0263 1.50285 19.5493 0.916881C20.0722 0.330906 20.7789 0.00142456 21.5159 0H116.13C116.872 0 117.584 0.332637 118.108 0.924733C118.633 1.51683 118.928 2.31989 118.928 3.15724V153.212C118.928 154.049 118.633 154.852 118.108 155.444C117.584 156.036 116.872 156.369 116.13 156.369ZM21.5159 0.110587C20.8072 0.112051 20.1279 0.430769 19.6273 0.996784C19.1266 1.5628 18.8454 2.32986 18.8454 3.12959V153.212C18.8454 154.011 19.1266 154.778 19.6273 155.344C20.1279 155.911 20.8072 156.229 21.5159 156.231H116.13C116.839 156.229 117.519 155.911 118.02 155.345C118.522 154.779 118.804 154.012 118.805 153.212V3.12959C118.804 2.32935 118.522 1.5623 118.02 0.996446C117.519 0.43059 116.839 0.112048 116.13 0.110587H21.5159Z" fill="#E0E0E0"/>
<path d="M222.122 156.369H127.503C126.761 156.367 126.05 156.034 125.526 155.443C125.002 154.851 124.706 154.049 124.705 153.212V3.12959C124.713 2.29749 125.011 1.50236 125.535 0.916535C126.058 0.330713 126.766 0.00140903 127.503 0H222.122C222.858 0.00287773 223.564 0.333002 224.085 0.918821C224.607 1.50464 224.904 2.29895 224.91 3.12959V153.212C224.91 154.047 224.617 154.849 224.094 155.44C223.571 156.032 222.862 156.366 222.122 156.369ZM127.503 0.110587C126.794 0.112048 126.114 0.43059 125.613 0.996446C125.111 1.5623 124.829 2.32935 124.828 3.12959V153.212C124.829 154.012 125.111 154.779 125.613 155.345C126.114 155.911 126.794 156.229 127.503 156.231H222.122C222.831 156.229 223.511 155.911 224.012 155.345C224.514 154.779 224.796 154.012 224.797 153.212V3.12959C224.796 2.32935 224.514 1.5623 224.012 0.996446C223.511 0.43059 222.831 0.112048 222.122 0.110587H127.503Z" fill="#E0E0E0"/>
<path d="M87.3817 126.958C87.6512 126.958 87.9207 126.959 88.1951 126.986C89.9024 127.122 91.562 127.683 93.0548 128.628C94.5475 129.573 95.8366 130.879 96.8294 132.452C97.8223 134.025 98.4944 135.827 98.7976 137.728C99.1008 139.629 99.0275 141.582 98.5831 143.447C97.3172 149.017 96.706 154.75 96.7652 160.499V177.242C96.7652 177.829 96.5587 178.391 96.1911 178.806C95.8235 179.221 95.325 179.454 94.8052 179.454H57.7211C52.1982 179.454 47.7211 174.977 47.7211 169.454V136.959C47.7211 131.436 52.1982 126.958 57.7211 126.958H87.3817Z" fill="#E6E6E6"/>
<path d="M36.1229 140.046C36.1243 138.184 36.4782 136.343 37.1607 134.646C37.8433 132.95 38.8389 131.438 40.0809 130.211C41.3229 128.984 42.7827 128.07 44.3628 127.531C45.9429 126.991 47.6068 126.839 49.2434 127.083C50.8799 127.328 52.4513 127.964 53.8526 128.948C55.2539 129.933 56.4527 131.244 57.3689 132.794C58.2852 134.343 58.8978 136.096 59.1657 137.934C59.4336 139.772 59.3507 141.653 58.9226 143.452C57.6567 149.022 57.0455 154.755 57.1047 160.505V177.248C57.1047 177.834 56.8982 178.397 56.5306 178.812C56.163 179.226 55.6645 179.459 55.1447 179.459H40.2879C39.768 179.459 39.2695 179.226 38.9019 178.812C38.5344 178.397 38.3279 177.834 38.3279 177.248V159.521C38.3708 154.129 37.7675 148.756 36.5345 143.546C36.2577 142.406 36.1192 141.229 36.1229 140.046Z" fill="#F0F0F0"/>
<path d="M73.7049 179.443H113.255C118.777 179.443 123.255 174.966 123.255 169.443V157.577C123.255 152.054 118.777 147.577 113.255 147.577H73.7049C68.1821 147.577 63.7049 152.054 63.7049 157.577V169.443C63.7049 174.966 68.1821 179.443 73.7049 179.443Z" fill="#E6E6E6"/>
<path d="M158.192 144.782C158.192 150.305 153.714 154.782 148.192 154.782H94.3338C88.811 154.782 84.3338 150.305 84.3338 144.782V119.317C84.3338 116.689 85.2589 114.169 86.9057 112.311C88.5524 110.453 90.7858 109.409 93.1146 109.409H149.425C151.752 109.413 153.981 110.459 155.625 112.317C157.268 114.174 158.192 116.692 158.192 119.317V144.782Z" fill="#E0E0E0"/>
<path d="M147.137 144.782C147.137 150.305 142.66 154.782 137.137 154.782H83.2844C77.7615 154.782 73.2844 150.305 73.2844 144.782V118.842C73.2844 116.341 74.1646 113.943 75.7314 112.175C77.2981 110.407 79.4231 109.414 81.6389 109.414H138.783C140.998 109.414 143.123 110.407 144.69 112.175C146.257 113.943 147.137 116.341 147.137 118.842V144.782Z" fill="#F0F0F0"/>
<path d="M120.486 157.641H64.2487C63.5729 157.641 62.9248 157.338 62.447 156.798C61.9691 156.259 61.7007 155.528 61.7007 154.765V147.539C61.7007 146.776 61.9691 146.045 62.447 145.505C62.9248 144.966 63.5729 144.663 64.2487 144.663H120.486C120.687 144.663 120.881 144.754 121.023 144.914C121.165 145.075 121.245 145.293 121.245 145.52L121.245 156.784C121.245 157.011 121.165 157.229 121.023 157.39C120.881 157.55 120.687 157.641 120.486 157.641Z" fill="#E0E0E0"/>
<path d="M162.357 126.958C162.626 126.958 162.901 126.959 163.175 126.986C164.882 127.122 166.542 127.683 168.035 128.628C169.527 129.573 170.816 130.879 171.809 132.452C172.802 134.025 173.474 135.827 173.777 137.728C174.081 139.629 174.007 141.582 173.563 143.447C172.293 149.016 171.68 154.749 171.74 160.499V177.242C171.74 177.829 171.534 178.391 171.166 178.806C170.798 179.221 170.3 179.454 169.78 179.454H132.701C127.178 179.454 122.701 174.977 122.701 169.454V136.959C122.701 131.436 127.178 126.958 132.701 126.958H162.357Z" fill="#E6E6E6"/>
<path d="M111.098 140.046C111.115 136.661 112.294 133.415 114.387 130.989C116.48 128.563 119.324 127.147 122.323 127.037C125.322 126.927 128.242 128.131 130.47 130.398C132.698 132.665 134.062 135.818 134.275 139.195C134.356 140.627 134.23 142.065 133.902 143.452C132.636 149.022 132.025 154.755 132.084 160.505V177.248C132.084 177.834 131.878 178.397 131.51 178.812C131.143 179.226 130.644 179.459 130.124 179.459H115.263C114.743 179.459 114.244 179.226 113.877 178.812C113.509 178.397 113.303 177.834 113.303 177.248V159.521C113.346 154.129 112.741 148.755 111.504 143.546C111.229 142.406 111.092 141.228 111.098 140.046Z" fill="#F0F0F0"/>
<path d="M48.5491 181.035H161.528C161.714 181.036 161.898 180.995 162.07 180.916C162.242 180.836 162.398 180.719 162.529 180.571C162.661 180.423 162.765 180.247 162.837 180.053C162.956 179.73 162.665 179.443 162.321 179.443H48.3638C47.6868 179.443 47.1022 180.062 47.5513 180.569C47.8159 180.867 48.1749 181.035 48.5491 181.035Z" fill="#E0E0E0"/>
<path d="M202.169 123.912V173.693C202.169 176.499 204.444 178.774 207.25 178.774C210.057 178.774 212.332 176.499 212.332 173.693V123.912C212.332 121.106 210.057 118.831 207.25 118.831C204.444 118.831 202.169 121.106 202.169 123.912Z" fill="#E6E6E6"/>
<path d="M167.211 181.03H209.256C209.878 181.03 210.382 180.526 210.382 179.904C210.382 179.283 209.878 178.779 209.256 178.779H167.211C166.589 178.779 166.086 179.283 166.086 179.904C166.086 180.526 166.589 181.03 167.211 181.03Z" fill="#E6E6E6"/>
<path d="M192.169 118.83H174.135C168.613 118.83 164.135 123.308 164.135 128.83V168.774C164.135 174.297 168.613 178.774 174.135 178.774H192.169C197.692 178.774 202.169 174.297 202.169 168.774V128.83C202.169 123.308 197.692 118.83 192.169 118.83Z" fill="#F0F0F0"/>
<path d="M190.728 120.804H175.576C170.053 120.804 165.576 125.281 165.576 130.804V148.945C165.576 154.468 170.053 158.945 175.576 158.945H190.728C196.251 158.945 200.728 154.468 200.728 148.946V130.804C200.728 125.281 196.251 120.804 190.728 120.804Z" fill="#E6E6E6"/>
<path d="M193.855 160.566H172.449C168.653 160.566 165.576 163.643 165.576 167.439C165.576 171.234 168.653 174.312 172.449 174.312H193.855C197.651 174.312 200.728 171.234 200.728 167.439C200.728 163.643 197.651 160.566 193.855 160.566Z" fill="#E6E6E6"/>
<path d="M172.99 155.239V124.511C172.99 122.464 171.33 120.804 169.283 120.804C167.235 120.804 165.576 122.464 165.576 124.511V155.239C165.576 157.286 167.235 158.945 169.283 158.945C171.33 158.945 172.99 157.286 172.99 155.239Z" fill="#E0E0E0"/>
<path d="M172.99 170.605V164.273C172.99 162.225 171.33 160.566 169.283 160.566C167.235 160.566 165.576 162.225 165.576 164.273V170.605C165.576 172.652 167.235 174.312 169.283 174.312C171.33 174.312 172.99 172.652 172.99 170.605Z" fill="#E0E0E0"/>
<path d="M93.9614 90.8077L162.083 90.8077C167.606 90.8077 172.083 86.3306 172.083 80.8078V28.6723C172.083 23.1495 167.606 18.6723 162.083 18.6723L93.9614 18.6723C88.4386 18.6723 83.9614 23.1495 83.9614 28.6723V80.8077C83.9614 86.3306 88.4386 90.8077 93.9614 90.8077Z" fill="#E0E0E0"/>
<path d="M87.6502 90.8077L160.471 90.8077C165.994 90.8077 170.471 86.3306 170.471 80.8078V28.6723C170.471 23.1495 165.994 18.6723 160.471 18.6723L87.6502 18.6723C82.1274 18.6723 77.6502 23.1495 77.6502 28.6723V80.8077C77.6502 86.3306 82.1274 90.8077 87.6502 90.8077Z" fill="#F0F0F0"/>
<path d="M168.506 78.585V30.8951C168.506 25.3723 164.029 20.8951 158.506 20.8951L89.6249 20.8951C84.102 20.8951 79.6249 25.3723 79.6249 30.8951V78.585C79.6249 84.1078 84.102 88.585 89.6249 88.585H158.506C164.029 88.585 168.506 84.1078 168.506 78.585Z" fill="#FAFAFA"/>
<path d="M127.917 55.2524C129.301 45.5378 123.444 36.397 114.835 34.8358C106.226 33.2745 98.1254 39.8841 96.7418 49.5986C95.3583 59.3132 101.216 68.454 109.824 70.0152C118.433 71.5765 126.534 64.9669 127.917 55.2524Z" fill="#E0E0E0"/>
<path d="M86.3431 72.9869C87.7788 70.9411 90.66 69.3652 92.7915 69.4648C93.106 69.4519 93.4196 69.5099 93.714 69.6352C94.2339 69.8564 94.8502 69.9668 95.3335 69.6742C99.0216 67.4409 103.135 66.1039 106.575 66.2633C109.243 66.3809 112.379 66.3278 114.596 64.8383C117.936 62.5938 121.5 61.1653 124.299 61.1653C126.875 61.1653 130.437 62.2285 132.806 61.217C135.584 60.0315 138.268 59.3572 140.591 59.3572C145.297 59.3572 147.362 62.1319 146.596 66.3114C146.283 68.0242 146.588 69.6667 148.103 70.5246C150.161 71.6896 149.187 73.3629 146.822 73.3629H86.5481C86.3472 73.3629 86.2063 73.134 86.3431 72.9869Z" fill="#F0F0F0"/>
<path d="M108.682 47.0323C108.946 47.0202 109.208 47.0815 109.445 47.2107C109.837 47.4239 110.346 47.5357 110.707 47.2726C113.838 44.9882 117.27 43.6158 120.07 43.781C122.186 43.7717 124.729 43.9509 126.361 42.6032C129.283 40.1902 132.394 38.6333 134.755 38.6333C136.806 38.6333 139.808 39.6641 141.626 38.7144C143.969 37.4902 146.211 36.792 148.122 36.792C149.714 36.792 150.912 37.2789 151.709 38.1521C153.093 39.6684 155.56 41.3039 157.614 41.3039C159.364 41.3039 160.268 42.3422 160.291 44.014C160.295 44.2788 160.503 44.487 160.764 44.533C161.269 44.589 161.72 44.71 162.113 44.8865C165.605 46.4535 160.976 50.278 157.149 50.278H109.838C107.136 50.278 105.985 46.8778 108.682 47.0323Z" fill="#F0F0F0"/>
<path d="M60.2111 47.6766C61.53 37.9506 55.6121 28.8596 46.993 27.3713C38.374 25.883 30.3177 32.561 28.9988 42.287C27.6799 52.013 33.5978 61.104 42.2169 62.5922C50.8359 64.0805 58.8922 57.4026 60.2111 47.6766Z" fill="#E0E0E0"/>
<path d="M59.2868 47.8162C60.6703 38.1017 54.813 28.9608 46.2041 27.3996C37.5952 25.8384 29.4948 32.4479 28.1112 42.1625C26.7277 51.877 32.585 61.0178 41.1939 62.5791C49.8028 64.1403 57.9032 57.5307 59.2868 47.8162Z" fill="#F0F0F0"/>
<path d="M57.5015 44.9755C57.5064 48.6621 56.3541 52.2315 54.2488 55.0506C52.1435 57.8697 49.2215 59.7562 46.0009 60.3756C42.7803 60.9949 39.4694 60.3071 36.6555 58.434C33.8416 56.5609 31.7065 53.6237 30.6291 50.1433C29.5516 46.663 29.6014 42.8645 30.7696 39.4216C31.9378 35.9788 34.1489 33.1141 37.0106 31.3357C39.8724 29.5574 43.1999 28.9803 46.4028 29.7068C49.6058 30.4334 52.4771 32.4166 54.5076 35.3047L54.5468 35.3545C56.4648 38.0938 57.5061 41.4843 57.5015 44.9755Z" fill="#E0E0E0"/>
<path d="M57.5015 44.9754C57.4975 48.1162 56.6524 51.1823 55.0771 53.7717C53.5018 56.3611 51.2699 58.3528 48.6739 59.4857C46.0779 60.6186 43.2391 60.8397 40.5298 60.1202C37.8205 59.4006 35.3672 57.7739 33.4915 55.4534C31.2789 52.2862 30.2413 48.274 30.5968 44.2611C30.9524 40.2481 32.6735 36.5472 35.398 33.937C38.1224 31.3268 41.6379 30.0108 45.2047 30.2658C48.7715 30.5209 52.1116 32.3272 54.5223 35.3046L54.5615 35.3544C56.4742 38.0959 57.5102 41.4862 57.5015 44.9754Z" fill="#FAFAFA"/>
<path d="M43.9972 46.4851C43.8128 46.4829 43.6326 46.4221 43.4775 46.3096C43.3223 46.1972 43.1984 46.0376 43.1201 45.8492L39.6019 37.3783C39.5443 37.2464 39.5106 37.103 39.5028 36.9563C39.4949 36.8096 39.513 36.6626 39.5561 36.5239C39.5992 36.3852 39.6663 36.2576 39.7536 36.1485C39.8409 36.0394 39.9465 35.951 40.0644 35.8886C40.1823 35.8261 40.31 35.7908 40.4402 35.7847C40.5703 35.7785 40.7002 35.8017 40.8223 35.8529C40.9444 35.9041 41.0562 35.9822 41.1512 36.0827C41.2462 36.1832 41.3225 36.3041 41.3757 36.4383L42.5967 39.3847C43.6324 41.8838 46.5345 43.0252 48.9952 41.9012C49.2362 41.7913 49.5062 41.7938 49.7455 41.9084C49.9849 42.023 50.1742 42.2402 50.2716 42.5122C50.3691 42.7843 50.3668 43.0888 50.2653 43.359C50.1637 43.6291 49.9712 43.8426 49.7302 43.9526L44.3647 46.4021C44.248 46.4562 44.1233 46.4843 43.9972 46.4851Z" fill="#E0E0E0"/>
<path d="M182.506 144.564C182.98 144.636 183.432 144.547 183.84 144.322C189.545 141.172 176.067 143.559 182.506 144.564Z" fill="#F0F0F0"/>
<path d="M184.809 150.231C187.598 148.025 187.918 142.927 185.208 138.742C181.038 132.301 173.747 141.193 176.7 148.276C178.327 152.179 180.247 153.841 184.809 150.231Z" fill="#F0F0F0"/>
<path d="M182.937 150.132C181.584 148.487 181.49 145.884 182.606 143.524C185.829 136.705 194.23 149.203 187.374 152.349C186.164 152.905 184.79 152.378 182.937 150.132Z" fill="#F0F0F0"/>
<path d="M177.108 155.266C177.318 157.355 179.076 158.946 181.176 158.946H184.683C186.782 158.946 188.541 157.355 188.751 155.266C188.993 152.858 187.103 150.768 184.683 150.768H181.176C178.756 150.768 176.865 152.858 177.108 155.266Z" fill="#E0E0E0"/>
<path d="M176.748 152.227H189.116C189.614 152.227 190.017 151.824 190.017 151.326C190.017 150.828 189.614 150.425 189.116 150.425H176.748C176.25 150.425 175.846 150.828 175.846 151.326C175.846 151.824 176.25 152.227 176.748 152.227Z" fill="#E0E0E0"/>
<path d="M122.5 206C174.97 206 217.506 203.198 217.506 199.741C217.506 196.284 174.97 193.482 122.5 193.482C70.0295 193.482 27.4938 196.284 27.4938 199.741C27.4938 203.198 70.0295 206 122.5 206Z" fill="#F5F5F5"/>
<path d="M192.33 191.028L190.554 185.853C190.212 184.855 189.151 184.389 188.185 184.811C187.218 185.233 186.712 186.384 187.054 187.382L188.83 192.557C189.172 193.555 190.233 194.021 191.199 193.599C192.166 193.177 192.672 192.026 192.33 191.028Z" fill="#E4897B"/>
<path d="M205.286 193.407C205.441 194.507 204.588 195.489 203.477 195.489C202.567 195.489 201.795 194.818 201.668 193.917L200.826 187.933C200.671 186.833 201.524 185.851 202.635 185.851C203.545 185.851 204.317 186.522 204.444 187.423L205.286 193.407Z" fill="#E4897B"/>
<path d="M201.65 195.008H205.8C205.872 195.007 205.941 195.035 205.996 195.086C206.051 195.138 206.087 195.21 206.099 195.29L206.638 198.994C206.649 199.087 206.643 199.181 206.619 199.271C206.595 199.36 206.554 199.443 206.499 199.512C206.444 199.582 206.376 199.638 206.301 199.675C206.225 199.713 206.143 199.732 206.06 199.73C204.614 199.702 203.914 199.608 202.091 199.608C200.969 199.608 197.583 199.741 196.034 199.741C194.486 199.741 194.373 198.01 195.015 197.855C197.892 197.153 200.087 196.197 201.042 195.262C201.213 195.102 201.428 195.012 201.65 195.008Z" fill="#263238"/>
<path d="M189.37 193.526L193.29 192.238C193.359 192.212 193.433 192.215 193.5 192.247C193.567 192.278 193.621 192.336 193.653 192.409L195.123 195.727C195.158 195.811 195.176 195.902 195.176 195.995C195.176 196.088 195.158 196.18 195.123 196.264C195.088 196.348 195.036 196.422 194.973 196.481C194.91 196.54 194.835 196.583 194.755 196.606C193.334 197.043 192.374 197.319 190.595 197.905C189.361 198.309 188.111 198.967 186.891 199.404C186.053 199.708 184.073 199.719 183.049 199.719C181.535 199.719 181.197 197.916 181.844 197.833C183.485 197.623 183.711 197.723 184.617 197.208C186.098 196.475 187.44 195.427 188.572 194.123C188.788 193.849 189.063 193.644 189.37 193.526Z" fill="#263238"/>
<path d="M181.535 59.6288C182.872 60.2323 183.535 61.7614 182.976 63.1172C182.648 63.9134 182.319 64.6764 181.971 65.445C181.268 67.0042 180.487 68.5179 179.634 69.979C178.744 71.5352 177.713 72.9825 176.557 74.2974C175.9 75.0474 175.166 75.7063 174.372 76.2603C173.374 76.9605 172.233 77.3568 171.059 77.4104C170.731 77.4202 170.403 77.3942 170.079 77.333C169.796 77.281 169.516 77.2089 169.241 77.1174C168.774 76.9567 168.319 76.7552 167.879 76.5147C167.126 76.0883 166.401 75.6023 165.708 75.0605C164.438 74.0636 163.227 72.9739 162.082 71.7982C160.154 69.8279 158.337 67.7231 156.643 65.4961C156.191 64.9021 156.23 64.0731 156.724 63.5133C157.306 62.8526 158.315 62.7921 158.976 63.374C160.844 65.0179 162.743 66.6406 164.64 68.1433C165.762 69.0415 166.923 69.8756 168.119 70.6425C168.659 70.9895 169.221 71.2908 169.8 71.5438C169.849 71.5718 169.899 71.5976 169.95 71.6211C170.492 71.8715 171.149 71.7488 171.598 71.3558C172.022 71.0018 172.413 70.5998 172.764 70.156C173.608 69.0663 174.362 67.8931 175.018 66.6504C175.724 65.3565 176.385 63.9908 177.013 62.5974C177.326 61.9007 177.63 61.193 177.924 60.4852C178.396 59.3482 179.713 58.8057 180.835 59.3124L181.535 59.6288Z" fill="#E4897B"/>
<path d="M157.585 64.1996C158.028 63.8598 158.249 63.3046 158.161 62.7533C157.985 61.6483 156.715 61.1064 155.795 61.7433L155.41 62.0096C154.636 62.5455 154.384 63.6094 155.048 64.2771C155.236 64.4662 155.443 64.6428 155.66 64.7801C156.132 65.0787 156.709 64.8724 157.152 64.5322L157.585 64.1996Z" fill="#E4897B"/>
<path d="M156.825 59.2909C156.38 58.7866 155.621 58.7126 155.088 59.1216L153.859 60.0641C153.419 60.4016 153.256 60.9903 153.461 61.5059C153.755 62.2479 154.663 62.5228 155.32 62.0685L156.593 61.187C157.222 60.7516 157.331 59.8649 156.825 59.2909Z" fill="#E4897B"/>
<path d="M185.612 56.4599C186.104 58.522 184.868 61.7183 183.642 64.199C182.617 66.272 180.03 66.843 178.076 65.6066C176.378 64.532 175.674 62.4082 176.458 60.5581C176.86 59.6106 177.329 58.536 177.831 57.4551C180.207 52.3184 184.578 52.147 185.612 56.4599Z" fill="#2B4CB3"/>
<path opacity="0.6" d="M185.612 56.4599C186.104 58.522 184.868 61.7183 183.642 64.199C182.617 66.272 180.03 66.843 178.076 65.6066C176.378 64.532 175.674 62.4082 176.458 60.5581C176.86 59.6106 177.329 58.536 177.831 57.4551C180.207 52.3184 184.578 52.147 185.612 56.4599Z" fill="#FAFAFA"/>
<path d="M177.93 64.5281C177.803 65.0368 178.024 65.5659 178.467 65.8463C179.269 66.3539 180.32 65.8089 180.368 64.861L180.447 63.283C180.543 61.3799 179.001 60.8784 178.438 62.6989C178.24 63.3397 178.07 63.9674 177.93 64.5281Z" fill="#2B4CB3"/>
<path opacity="0.3" d="M177.93 64.5281C177.803 65.0368 178.024 65.5659 178.467 65.8463C179.269 66.3539 180.32 65.8089 180.368 64.861L180.447 63.283C180.543 61.3799 179.001 60.8784 178.438 62.6989C178.24 63.3397 178.07 63.9674 177.93 64.5281Z" fill="#FAFAFA"/>
<path d="M191.392 187.527L191.077 186.606C190.735 185.606 189.671 185.137 188.702 185.559C187.732 185.982 187.224 187.135 187.566 188.136L187.881 189.057C188.224 190.057 189.287 190.526 190.257 190.104C191.226 189.681 191.734 188.528 191.392 187.527Z" fill="#CE6F64"/>
<path d="M204.448 187.426C204.321 186.523 203.549 185.851 202.637 185.851C201.525 185.851 200.671 186.835 200.826 187.935L201.011 189.249C201.139 190.151 201.91 190.822 202.821 190.822C203.932 190.822 204.785 189.84 204.632 188.741L204.448 187.426Z" fill="#CE6F64"/>
<path d="M197.323 52.6115C199.955 52.9033 201.558 55.4918 201.09 58.0986C199.603 66.3985 199.233 74.492 199.136 80.4799C199.053 85.648 195.068 89.597 189.899 89.597H188.114C183.073 89.597 178.765 85.8389 178.509 80.8043C177.925 69.3622 179.286 61.3731 180.327 57.1394C180.884 54.8766 182.673 53.1869 184.965 52.7663L185.529 52.6723C186.043 52.5893 186.572 52.5119 187.111 52.4566C189.905 52.2741 192.706 52.2741 195.5 52.4566C195.936 52.4566 196.377 52.5175 196.809 52.5562L197.323 52.6115Z" fill="#2B4CB3"/>
<path opacity="0.6" d="M197.323 52.6115C199.955 52.9033 201.558 55.4918 201.09 58.0986C199.603 66.3985 199.233 74.492 199.136 80.4799C199.053 85.648 195.068 89.597 189.899 89.597H188.114C183.073 89.597 178.765 85.8389 178.509 80.8043C177.925 69.3622 179.286 61.3731 180.327 57.1394C180.884 54.8766 182.673 53.1869 184.965 52.7663L185.529 52.6723C186.043 52.5893 186.572 52.5119 187.111 52.4566C189.905 52.2741 192.706 52.2741 195.5 52.4566C195.936 52.4566 196.377 52.5175 196.809 52.5562L197.323 52.6115Z" fill="#FAFAFA"/>
<path d="M179.374 82.7067C178.93 83.053 178.685 83.5806 178.728 84.1421C178.814 85.2456 179.936 85.9648 180.975 85.5847L193.623 80.9604C195.127 80.4546 196.5 79.5799 197.652 78.4119C198.863 77.1843 199.293 75.4375 199.385 73.7157C199.42 73.054 199.461 72.3796 199.508 71.6933C199.557 70.9026 199.621 70.0953 199.685 69.277C199.761 68.3001 198.644 67.6826 197.871 68.2851L179.374 82.7067Z" fill="#2B4CB3"/>
<path opacity="0.3" d="M179.374 82.7067C178.93 83.053 178.685 83.5806 178.728 84.1421C178.814 85.2456 179.936 85.9648 180.975 85.5847L193.623 80.9604C195.127 80.4546 196.5 79.5799 197.652 78.4119C198.863 77.1843 199.293 75.4375 199.385 73.7157C199.42 73.054 199.461 72.3796 199.508 71.6933C199.557 70.9026 199.621 70.0953 199.685 69.277C199.761 68.3001 198.644 67.6826 197.871 68.2851L179.374 82.7067Z" fill="#FAFAFA"/>
<path d="M196.998 52.5762C196.886 52.5644 196.779 52.628 196.736 52.7323L196.613 53.0318C196.549 53.1921 194.986 56.93 189.238 56.93C188.474 56.93 186.146 56.93 185.416 55.0942C185.276 54.7059 185.214 54.2877 185.234 53.8692C185.246 53.5999 185.292 53.3347 185.37 53.0814C185.425 52.9042 185.279 52.7141 185.096 52.7446C185.015 52.7581 184.947 52.8134 184.921 52.891C184.798 53.2591 184.735 53.6496 184.735 54.0437C184.735 54.4826 184.813 54.917 184.965 55.3209C185.823 57.4829 188.395 57.4829 189.233 57.4829C195.29 57.4829 196.985 53.4299 197.073 53.2585L197.207 52.9241C197.27 52.7674 197.166 52.594 196.998 52.5762Z" fill="#FAFAFA"/>
<path d="M190.601 46.0404C192.017 44.7395 194.437 46.0853 194.424 48.0082C194.417 49.056 194.502 50.0519 194.728 50.8874C195.01 51.9322 195.237 53.1223 194.432 53.8461C193.519 54.6671 191.916 55.5475 189.238 55.5475C187.894 55.5475 187.155 55.2815 186.783 54.9055C185.552 53.6636 188.332 52.4722 189.336 51.0415C189.96 50.1528 190.062 49.003 189.956 47.8179C189.897 47.1558 190.111 46.4901 190.601 46.0404Z" fill="#E4897B"/>
<path d="M192.997 45.4454C193.115 44.7612 192.325 44.4542 191.813 44.9236L190.543 46.0891C190.091 46.5039 189.896 47.1215 189.95 47.7326C189.951 47.7383 189.951 47.744 189.952 47.7497C189.989 48.178 190.155 48.7003 190.582 48.6491C191.556 48.5325 192.836 46.5559 192.997 45.4454Z" fill="#CE6F64"/>
<path d="M184.049 40.3198C184.127 40.8135 184.295 41.2837 184.542 41.7006C184.789 42.1174 185.11 42.4719 185.485 42.7416C186.504 43.4715 187.445 42.5481 187.489 41.2653C187.548 40.1152 187.087 38.3458 185.896 38.1357C185.637 38.092 185.372 38.1193 185.124 38.2153C184.876 38.3112 184.652 38.4731 184.471 38.6872C184.29 38.9013 184.157 39.1613 184.083 39.4455C184.01 39.7296 183.998 40.0295 184.049 40.3198Z" fill="#CE6F64"/>
<path d="M186.759 32.2804C184.872 33.0821 183.726 41.2323 185.95 42.6202C188.175 44.0081 190.331 30.7654 186.759 32.2804Z" fill="#263238"/>
<path d="M183.574 35.1056C184.965 36.7644 192.06 34.7739 192.33 31.9208C192.599 29.0676 180.942 31.9871 183.574 35.1056Z" fill="#263238"/>
<path d="M195.118 36.853C194.986 41.0055 195.094 43.4329 193.3 45.6999C192.75 46.4564 192.025 47.0266 191.205 47.3476C190.386 47.6687 189.504 47.7281 188.657 47.5194C187.809 47.3106 187.029 46.8418 186.403 46.1646C185.777 45.4874 185.328 44.6282 185.107 43.6817C184.245 40.0434 184.617 33.8672 188.136 31.8877C188.874 31.4303 189.707 31.2042 190.549 31.2328C191.39 31.2613 192.21 31.5436 192.922 32.0502C193.635 32.5569 194.214 33.2694 194.6 34.114C194.986 34.9585 195.165 35.9042 195.118 36.853Z" fill="#E4897B"/>
<path d="M192.898 28.2327C195.5 27.5084 196.069 28.3378 196.186 30.3449C196.304 32.3521 198.675 31.7936 197.877 34.8237C197.504 36.2558 196.549 36.1341 197.132 37.8206C197.798 39.7613 193.844 42.1113 192.913 42.1058C191.379 42.1058 191.717 38.5007 192.967 35.2218C193.903 32.7668 191.57 33.4469 188.895 34.3647C182.868 36.4272 178.874 30.4942 182.613 27.6522C184.593 26.1427 190.037 29.2722 192.898 28.2327Z" fill="#263238"/>
<path d="M196.862 41.2544C196.395 42.1762 195.638 42.8667 194.741 43.1896C193.56 43.5988 193.006 42.4266 193.364 41.1604C193.687 40.0158 194.697 38.4289 195.863 38.5782C197.029 38.7275 197.431 40.1098 196.862 41.2544Z" fill="#E4897B"/>
<path d="M185.038 89.5748C181.776 89.5748 179.048 92.0384 178.742 95.2858C177.789 105.401 175.912 126.285 175.719 135.717C175.499 146.476 183.084 175.801 185.906 186.313C186.442 188.309 188.652 189.315 190.519 188.428C191.879 187.782 192.638 186.304 192.379 184.82C190.875 176.187 186.118 147.672 186.945 136.729C187.666 126.733 190.032 107.251 191.351 96.7286C191.827 92.9294 188.867 89.5748 185.038 89.5748Z" fill="#263238"/>
<path d="M187.518 98.7812C186.438 101.314 186.099 104.86 186.174 108.662C186.228 111.426 189.562 111.374 189.89 108.629C189.831 100.727 189.287 94.6342 187.518 98.7812Z" fill="#182137"/>
<path d="M192.178 185.357C192.437 185.245 192.555 185.124 192.646 185.391C192.98 186.368 192.57 187.635 191.637 188.077L187.582 189.998C186.975 190.286 186.25 190.028 185.959 189.423C185.66 188.798 185.94 188.05 186.576 187.776L192.178 185.357Z" fill="#2B4CB3"/>
<path opacity="0.6" d="M192.178 185.357C192.437 185.245 192.555 185.124 192.646 185.391C192.98 186.368 192.57 187.635 191.637 188.077L187.582 189.998C186.975 190.286 186.25 190.028 185.959 189.423C185.66 188.798 185.94 188.05 186.576 187.776L192.178 185.357Z" fill="#FAFAFA"/>
<path d="M193.079 89.5748C189.419 89.5748 186.538 92.686 186.844 96.3331C187.685 106.344 189.309 124.84 190.502 133.306C192.052 144.321 197.436 176.993 199.081 186.935C199.358 188.61 200.807 189.838 202.505 189.838C204.553 189.838 206.157 188.087 205.965 186.048C204.957 175.358 202.133 145.057 201.507 134.489C200.905 124.288 199.865 105.17 199.342 95.5C199.163 92.1717 196.412 89.5748 193.079 89.5748Z" fill="#263238"/>
<path d="M206.427 187.554C207.752 187.554 205.517 190.004 204.192 190.004H200.339C199.692 190.004 199.136 189.544 199.015 188.909C198.851 188.056 199.526 187.273 200.394 187.308L206.427 187.554Z" fill="#2B4CB3"/>
<path opacity="0.6" d="M206.427 187.554C207.752 187.554 205.517 190.004 204.192 190.004H200.339C199.692 190.004 199.136 189.544 199.015 188.909C198.851 188.056 199.526 187.273 200.394 187.308L206.427 187.554Z" fill="#FAFAFA"/>
<path d="M203.84 185.354C203.824 185.354 203.809 185.347 203.798 185.334C203.787 185.322 203.781 185.305 203.781 185.287C203.742 184.906 200.091 146.582 199.405 134.971C198.661 122.369 197.161 94.4353 197.147 94.1533C197.146 94.1439 197.147 94.1344 197.149 94.1254C197.152 94.1164 197.156 94.108 197.162 94.1008C197.167 94.0936 197.174 94.0877 197.181 94.0835C197.189 94.0792 197.197 94.0766 197.205 94.0759C197.221 94.0759 197.237 94.0827 197.249 94.095C197.261 94.1073 197.268 94.1242 197.269 94.1423C197.269 94.4243 198.783 122.342 199.528 134.96C200.214 146.571 203.864 184.867 203.904 185.276C203.905 185.286 203.905 185.295 203.903 185.304C203.901 185.313 203.897 185.321 203.892 185.329C203.887 185.336 203.88 185.342 203.873 185.346C203.866 185.351 203.858 185.353 203.85 185.354H203.84Z" fill="#2B4CB3"/>
<path opacity="0.5" d="M203.84 185.354C203.824 185.354 203.809 185.347 203.798 185.334C203.787 185.322 203.781 185.305 203.781 185.287C203.742 184.906 200.091 146.582 199.405 134.971C198.661 122.369 197.161 94.4353 197.147 94.1533C197.146 94.1439 197.147 94.1344 197.149 94.1254C197.152 94.1164 197.156 94.108 197.162 94.1008C197.167 94.0936 197.174 94.0877 197.181 94.0835C197.189 94.0792 197.197 94.0766 197.205 94.0759C197.221 94.0759 197.237 94.0827 197.249 94.095C197.261 94.1073 197.268 94.1242 197.269 94.1423C197.269 94.4243 198.783 122.342 199.528 134.96C200.214 146.571 203.864 184.867 203.904 185.276C203.905 185.286 203.905 185.295 203.903 185.304C203.901 185.313 203.897 185.321 203.892 185.329C203.887 185.336 203.88 185.342 203.873 185.346C203.866 185.351 203.858 185.353 203.85 185.354H203.84Z" fill="black"/>
<path d="M189.63 38.5284C189.63 38.8657 189.488 39.1532 189.292 39.1698C189.096 39.1864 188.934 38.932 188.929 38.6168C188.924 38.3017 189.071 37.992 189.267 37.9754C189.463 37.9589 189.63 38.1911 189.63 38.5284Z" fill="#263238"/>
<path d="M186.269 38.8436C186.269 39.1808 186.127 39.4684 185.931 39.485C185.735 39.5016 185.573 39.2472 185.568 38.932C185.563 38.6169 185.71 38.3072 185.906 38.2906C186.102 38.274 186.259 38.5063 186.269 38.8436Z" fill="#263238"/>
<path d="M187.398 41.7605C187.387 41.2325 186.473 41.0648 186.216 41.5259C186.204 41.5473 186.192 41.5687 186.179 41.59C186.068 41.7861 186.1 42.0461 186.311 42.1246C186.581 42.2246 186.873 42.2083 187.087 42.1711C187.282 42.1374 187.403 41.9576 187.398 41.7605Z" fill="#DE5753"/>
<path d="M187.758 43.4716C187.736 43.4716 187.714 43.4619 187.698 43.4444C187.681 43.4269 187.671 43.403 187.67 43.3776C187.67 43.3506 187.679 43.3247 187.696 43.3052C187.712 43.2856 187.734 43.2739 187.758 43.2725C188.134 43.2417 188.5 43.1158 188.827 42.9043C189.155 42.6928 189.436 42.401 189.65 42.0505C189.661 42.0285 189.679 42.0124 189.701 42.0056C189.722 41.9989 189.745 42.0021 189.765 42.0146C189.784 42.0271 189.799 42.0477 189.805 42.0721C189.811 42.0965 189.808 42.1225 189.797 42.1445C189.569 42.5267 189.267 42.845 188.914 43.0751C188.561 43.3051 188.165 43.4407 187.758 43.4716Z" fill="#263238"/>
<path d="M190.678 36.3829C190.651 36.384 190.625 36.378 190.6 36.3656C190.575 36.3531 190.554 36.3344 190.536 36.311C190.402 36.1167 190.229 35.9608 190.032 35.8561C189.834 35.7513 189.618 35.7007 189.4 35.7083C189.377 35.7114 189.355 35.7093 189.333 35.7023C189.312 35.6952 189.291 35.6834 189.274 35.6673C189.257 35.6513 189.242 35.6315 189.232 35.6091C189.221 35.5867 189.215 35.5621 189.213 35.5369C189.212 35.4838 189.228 35.4321 189.259 35.3921C189.29 35.3521 189.333 35.3268 189.38 35.3212C189.655 35.3071 189.93 35.3674 190.18 35.4973C190.431 35.6271 190.651 35.8227 190.821 36.0677C190.835 36.0877 190.845 36.1108 190.851 36.1356C190.857 36.1603 190.858 36.1861 190.855 36.2115C190.852 36.2369 190.844 36.2613 190.832 36.2831C190.821 36.305 190.805 36.3239 190.786 36.3386C190.756 36.3662 190.718 36.3817 190.678 36.3829Z" fill="#263238"/>
<path d="M184.813 36.9525C184.788 36.9453 184.765 36.9321 184.745 36.9138C184.729 36.8958 184.716 36.8743 184.707 36.8506C184.698 36.8268 184.693 36.8013 184.693 36.7756C184.693 36.7498 184.698 36.7244 184.707 36.7006C184.724 36.6543 184.758 36.6163 184.787 36.576C184.95 36.3454 185.157 36.1575 185.392 36.0257C185.647 35.8825 185.93 35.8098 186.215 35.8135C186.237 35.8147 186.26 35.8213 186.28 35.8329C186.3 35.8444 186.318 35.8606 186.332 35.8804C186.347 35.9002 186.357 35.9232 186.363 35.9479C186.369 35.9725 186.37 35.9983 186.367 36.0236C186.36 36.0758 186.336 36.1233 186.299 36.1569C186.263 36.1906 186.218 36.2081 186.171 36.2061C185.947 36.2118 185.728 36.275 185.529 36.391C185.33 36.5069 185.158 36.6725 185.024 36.8751C185 36.9111 184.967 36.9379 184.93 36.9518C184.892 36.9657 184.851 36.9659 184.813 36.9525Z" fill="#263238"/>
<path d="M203.101 61.4401C203.59 60.0101 202.776 58.4843 201.329 58.0497C199.94 57.6326 198.467 58.3692 197.954 59.7257C196.433 63.7463 193.387 71.43 192.09 72.0968C189.922 73.2099 184.752 76.8191 181.867 79.0036C181.316 79.4208 180.943 79.9943 180.96 80.6851C180.989 81.8936 182.092 82.5226 183.252 82.182C187.842 80.8345 194.401 77.8599 195.931 76.2383C198.826 73.179 201.713 65.4967 203.101 61.4401Z" fill="#E4897B"/>
<path d="M205.281 57.2506C206.033 59.984 204.725 63.282 203.422 65.6636C202.35 67.6231 199.929 68.2029 197.9 67.2687C195.713 66.2615 194.59 63.79 195.393 61.5197C195.912 60.0537 196.467 58.6043 197.059 57.1732C199.298 51.7379 203.919 52.3019 205.281 57.2506Z" fill="#2B4CB3"/>
<path opacity="0.6" d="M205.281 57.2506C206.033 59.984 204.725 63.282 203.422 65.6636C202.35 67.6231 199.929 68.2029 197.9 67.2687C195.713 66.2615 194.59 63.79 195.393 61.5197C195.912 60.0537 196.467 58.6043 197.059 57.1732C199.298 51.7379 203.919 52.3019 205.281 57.2506Z" fill="#FAFAFA"/>
<path d="M200.41 195.738C200.162 195.763 199.913 195.689 199.709 195.528C199.646 195.463 199.599 195.381 199.572 195.29C199.546 195.199 199.541 195.102 199.557 195.008C199.56 194.949 199.577 194.892 199.605 194.842C199.633 194.793 199.673 194.753 199.719 194.726C200.136 194.494 201.287 195.317 201.415 195.411C201.429 195.422 201.44 195.437 201.447 195.455C201.454 195.472 201.456 195.492 201.454 195.511C201.449 195.53 201.44 195.548 201.427 195.562C201.414 195.576 201.398 195.585 201.38 195.588C201.063 195.679 200.737 195.729 200.41 195.738ZM199.92 194.881C199.905 194.877 199.889 194.875 199.874 194.874C199.829 194.872 199.783 194.89 199.762 194.929C199.739 194.97 199.738 195.02 199.737 195.067C199.736 195.109 199.741 195.15 199.752 195.191C199.758 195.213 199.766 195.234 199.775 195.254C199.808 195.328 199.88 195.377 199.955 195.409C200.444 195.615 200.561 195.035 200.046 194.909C199.994 194.896 199.943 194.885 199.891 194.875L199.92 194.881Z" fill="#2B4CB3"/>
<path d="M201.336 195.599C201.34 195.595 201.337 195.588 201.331 195.588H201.311C201.308 195.588 201.305 195.588 201.303 195.586C200.93 195.345 200.243 194.437 200.326 193.974C200.345 193.901 200.383 193.837 200.436 193.791C200.437 193.79 200.438 193.789 200.44 193.788C200.54 193.704 200.691 193.692 200.815 193.736C200.878 193.758 200.935 193.796 200.983 193.847C201.395 194.239 201.419 195.439 201.419 195.505C201.419 195.533 201.409 195.56 201.392 195.58C201.378 195.595 201.36 195.606 201.341 195.609C201.335 195.61 201.332 195.604 201.336 195.599ZM200.689 193.902H200.65C200.537 193.902 200.522 193.979 200.518 194.001C200.505 194.057 200.512 194.13 200.536 194.213C200.671 194.697 201.173 194.475 200.919 194.041C200.897 194.003 200.871 193.967 200.833 193.943C200.789 193.916 200.74 193.902 200.689 193.902Z" fill="#2B4CB3"/>
<path d="M187.381 195.047C187.083 195.165 186.758 195.165 186.46 195.047C186.388 195.009 186.327 194.951 186.281 194.878C186.236 194.805 186.208 194.72 186.2 194.632C186.195 194.578 186.201 194.523 186.218 194.472C186.235 194.421 186.262 194.375 186.298 194.339C186.695 193.946 188.292 194.372 188.474 194.422C188.49 194.427 188.505 194.438 188.517 194.452C188.528 194.467 188.535 194.485 188.537 194.505C188.538 194.525 188.533 194.546 188.524 194.564C188.514 194.581 188.5 194.596 188.483 194.604C188.128 194.788 187.759 194.936 187.381 195.047ZM186.587 194.389C186.53 194.4 186.476 194.426 186.43 194.466C186.416 194.481 186.405 194.501 186.399 194.522C186.387 194.564 186.395 194.61 186.404 194.654C186.411 194.687 186.422 194.72 186.439 194.749C186.465 194.798 186.503 194.838 186.548 194.864C186.575 194.881 186.606 194.895 186.641 194.905C187.181 195.07 187.149 194.329 186.587 194.389Z" fill="#2B4CB3"/>
<path d="M188.483 194.593C188.461 194.593 188.438 194.591 188.416 194.586C187.916 194.466 186.978 193.847 186.95 193.382C186.95 193.272 186.994 193.117 187.224 193.023C187.385 192.961 187.561 192.973 187.714 193.056C188.19 193.322 188.463 194.193 188.524 194.412C188.534 194.444 188.548 194.476 188.548 194.51C188.548 194.528 188.544 194.545 188.537 194.56C188.531 194.57 188.523 194.578 188.514 194.584C188.504 194.59 188.494 194.593 188.483 194.593ZM187.351 193.193C187.335 193.197 187.319 193.2 187.302 193.2C187.283 193.2 187.264 193.203 187.246 193.211C187.122 193.269 187.126 193.334 187.126 193.355C187.126 193.437 187.186 193.54 187.284 193.649C187.643 194.047 188.089 193.625 187.688 193.27C187.659 193.244 187.629 193.222 187.593 193.208C187.516 193.177 187.431 193.171 187.351 193.193Z" fill="#2B4CB3"/>
<path d="M142.1 86.5007C142.52 85.1499 143.295 83.9753 144.32 83.1329C145.346 82.2905 146.575 81.8201 147.843 81.7842H197.47C198.155 81.7659 198.834 81.9169 199.462 82.2265C200.089 82.5361 200.649 82.9968 201.102 83.5763C201.555 84.1559 201.89 84.8402 202.083 85.5813C202.277 86.3224 202.325 87.1023 202.223 87.8664L191.193 193.659C190.993 195.315 190.278 196.836 189.174 197.951C188.071 199.065 186.651 199.7 185.171 199.741H60.711C60.0262 199.76 59.346 199.61 58.7183 199.301C58.0905 198.991 57.5304 198.531 57.0773 197.951C56.6243 197.371 56.2893 196.686 56.0959 195.945C55.9025 195.203 55.8554 194.423 55.958 193.659L65.3562 103.603C65.556 101.947 66.2718 100.426 67.3753 99.311C68.4787 98.1965 69.8978 97.5618 71.3783 97.5206H128.708C134.549 97.5206 140.111 92.9534 142.1 86.5007Z" fill="#2B4CB3"/>
<path opacity="0.1" d="M142.1 86.5007C142.52 85.1499 143.295 83.9753 144.32 83.1329C145.346 82.2905 146.575 81.8201 147.843 81.7842H197.47C198.155 81.7659 198.834 81.9169 199.462 82.2265C200.089 82.5361 200.649 82.9968 201.102 83.5763C201.555 84.1559 201.89 84.8402 202.083 85.5813C202.277 86.3224 202.325 87.1023 202.223 87.8664L191.193 193.659C190.993 195.315 190.278 196.836 189.174 197.951C188.071 199.065 186.651 199.7 185.171 199.741H60.711C60.0262 199.76 59.346 199.61 58.7183 199.301C58.0905 198.991 57.5304 198.531 57.0773 197.951C56.6243 197.371 56.2893 196.686 56.0959 195.945C55.9025 195.203 55.8554 194.423 55.958 193.659L65.3562 103.603C65.556 101.947 66.2718 100.426 67.3753 99.311C68.4787 98.1965 69.8978 97.5618 71.3783 97.5206H128.708C134.549 97.5206 140.111 92.9534 142.1 86.5007Z" fill="#FAFAFA"/>
<path d="M89.8773 45.8474L38.5698 86.2219C34.2296 89.6372 33.0648 96.2145 35.9682 100.913L69.6938 155.486C72.5971 160.184 78.4692 161.224 82.8094 157.809L134.117 117.435C138.457 114.019 139.622 107.442 136.719 102.744L102.993 48.1701C100.09 43.4719 94.2175 42.432 89.8773 45.8474Z" fill="#2B4CB3"/>
<path opacity="0.8" d="M89.8773 45.8474L38.5698 86.2219C34.2296 89.6372 33.0648 96.2145 35.9682 100.913L69.6938 155.486C72.5971 160.184 78.4692 161.224 82.8094 157.809L134.117 117.435C138.457 114.019 139.622 107.442 136.719 102.744L102.993 48.1701C100.09 43.4719 94.2175 42.432 89.8773 45.8474Z" fill="#FAFAFA"/>
<path d="M89.701 46.9603L38.3935 87.3348C34.0533 90.7501 32.8885 97.3274 35.7919 102.026L69.5175 156.599C72.4209 161.297 78.2929 162.337 82.6331 158.922L133.941 118.547C138.281 115.132 139.446 108.555 136.542 103.857L102.817 49.283C99.9133 44.5848 94.0412 43.5449 89.701 46.9603Z" fill="#FAFAFA"/>
<path d="M88.3354 56.3888L46.6982 89.1536C42.358 92.569 41.1932 99.1462 44.0966 103.844L64.0548 136.14C66.9581 140.838 72.8302 141.878 77.1704 138.463L118.808 105.698C123.148 102.283 124.313 95.7053 121.409 91.0072L101.451 58.7115C98.5477 54.0133 92.6756 52.9734 88.3354 56.3888Z" fill="#2B4CB3"/>
<path opacity="0.8" d="M88.3354 56.3888L46.6982 89.1536C42.358 92.569 41.1932 99.1462 44.0966 103.844L64.0548 136.14C66.9581 140.838 72.8302 141.878 77.1704 138.463L118.808 105.698C123.148 102.283 124.313 95.7053 121.409 91.0072L101.451 58.7115C98.5477 54.0133 92.6756 52.9734 88.3354 56.3888Z" fill="#FAFAFA"/>
<path d="M74.2351 92.6491C75.3442 94.4444 75.9563 96.5707 75.9939 98.7587C76.0315 100.947 75.493 103.098 74.4465 104.941C73.4 106.783 71.8925 108.234 70.115 109.109C68.3375 109.984 66.3698 110.245 64.461 109.857C62.5522 109.47 60.7883 108.452 59.3924 106.933C57.9965 105.414 57.0314 103.461 56.6194 101.323C56.2074 99.1841 56.367 96.9558 57.0779 94.9196C57.7888 92.8835 59.0191 91.1312 60.6131 89.8845C62.7455 88.2167 65.3769 87.5711 67.9305 88.0894C70.4841 88.6076 72.7513 90.2474 74.2351 92.6491Z" fill="#2B4CB3"/>
<path opacity="0.1" d="M74.2351 92.6491C75.3442 94.4444 75.9563 96.5707 75.9939 98.7587C76.0315 100.947 75.493 103.098 74.4465 104.941C73.4 106.783 71.8925 108.234 70.115 109.109C68.3375 109.984 66.3698 110.245 64.461 109.857C62.5522 109.47 60.7883 108.452 59.3924 106.933C57.9965 105.414 57.0314 103.461 56.6194 101.323C56.2074 99.1841 56.367 96.9558 57.0779 94.9196C57.7888 92.8835 59.0191 91.1312 60.6131 89.8845C62.7455 88.2167 65.3769 87.5711 67.9305 88.0894C70.4841 88.6076 72.7513 90.2474 74.2351 92.6491Z" fill="#FAFAFA"/>
<path d="M110.818 87.7779C109.342 86.1181 107.56 84.845 105.599 84.049C103.751 83.299 101.786 82.9899 99.8298 83.1393C99.609 83.1562 99.4084 83.0462 99.2936 82.8568C97.3955 79.7474 94.586 77.4935 91.3598 76.4922C88.1336 75.4908 84.6978 75.8062 81.6575 77.3829C78.6172 78.9595 76.1674 81.6962 74.7397 85.1109C73.4985 88.0796 73.099 91.3952 73.5775 94.6093C73.7048 95.4646 73.3066 96.3167 72.6229 96.846C71.2257 97.9422 70.152 99.486 69.5405 101.278C68.4668 104.425 66.7624 107.794 64.9501 110.581C64.8412 110.749 64.7364 110.92 64.6359 111.095C63.5127 112.986 62.9036 115.206 62.8836 117.482C62.8635 119.758 63.4334 121.991 64.5232 123.906C65.2739 125.179 66.2422 126.269 67.3713 127.113C68.5004 127.958 69.7676 128.539 71.0985 128.823C72.4294 129.108 73.7973 129.089 75.1218 128.769C76.4463 128.449 77.7007 127.833 78.8116 126.959L95.3001 113.981L110.407 102.093C112.086 100.799 113.247 98.8096 113.636 96.5568C114.026 94.3039 113.614 91.9685 112.489 90.056L112.445 89.9786C111.963 89.191 111.418 88.4545 110.818 87.7779Z" fill="#2B4CB3"/>
<path opacity="0.3" d="M110.818 87.7779C109.342 86.1181 107.56 84.845 105.599 84.049C103.751 83.299 101.786 82.9899 99.8298 83.1393C99.609 83.1562 99.4084 83.0462 99.2936 82.8568C97.3955 79.7474 94.586 77.4935 91.3598 76.4922C88.1336 75.4908 84.6978 75.8062 81.6575 77.3829C78.6172 78.9595 76.1674 81.6962 74.7397 85.1109C73.4985 88.0796 73.099 91.3952 73.5775 94.6093C73.7048 95.4646 73.3066 96.3167 72.6229 96.846C71.2257 97.9422 70.152 99.486 69.5405 101.278C68.4668 104.425 66.7624 107.794 64.9501 110.581C64.8412 110.749 64.7364 110.92 64.6359 111.095C63.5127 112.986 62.9036 115.206 62.8836 117.482C62.8635 119.758 63.4334 121.991 64.5232 123.906C65.2739 125.179 66.2422 126.269 67.3713 127.113C68.5004 127.958 69.7676 128.539 71.0985 128.823C72.4294 129.108 73.7973 129.089 75.1218 128.769C76.4463 128.449 77.7007 127.833 78.8116 126.959L95.3001 113.981L110.407 102.093C112.086 100.799 113.247 98.8096 113.636 96.5568C114.026 94.3039 113.614 91.9685 112.489 90.056L112.445 89.9786C111.963 89.191 111.418 88.4545 110.818 87.7779Z" fill="black"/>
<g style="mix-blend-mode:multiply">
<path d="M91.767 58.1599L39.263 96.3567C34.797 99.6057 33.3975 106.127 36.1372 110.922L68.1237 166.909C70.8634 171.704 76.7049 172.958 81.1709 169.709L133.675 131.512C138.141 128.263 139.54 121.741 136.801 116.946L104.814 60.9597C102.074 56.1644 96.2331 54.9108 91.767 58.1599Z" fill="#2B4CB3"/>
</g>
<path opacity="0.8" d="M91.767 58.1599L39.263 96.3567C34.797 99.6057 33.3975 106.127 36.1372 110.922L68.1237 166.909C70.8634 171.704 76.7049 172.958 81.1709 169.709L133.675 131.512C138.141 128.263 139.54 121.741 136.801 116.946L104.814 60.9597C102.074 56.1644 96.2331 54.9108 91.767 58.1599Z" fill="#FAFAFA"/>
<path d="M91.5601 59.2725L39.0561 97.4694C34.59 100.718 33.1906 107.24 35.9303 112.035L67.9168 168.021C70.6565 172.817 76.498 174.07 80.964 170.821L133.468 132.624C137.934 129.375 139.334 122.854 136.594 118.059L104.607 62.0724C101.868 57.277 96.0262 56.0235 91.5601 59.2725Z" fill="#FAFAFA"/>
<path d="M89.8944 68.64L47.299 99.6283C42.833 102.877 41.4335 109.399 44.1733 114.194L63.1179 147.353C65.8577 152.149 71.6991 153.402 76.1651 150.153L118.761 119.165C123.227 115.916 124.626 109.394 121.886 104.599L102.942 71.4399C100.202 66.6445 94.3604 65.391 89.8944 68.64Z" fill="#2B4CB3"/>
<path opacity="0.8" d="M89.8944 68.64L47.299 99.6283C42.833 102.877 41.4335 109.399 44.1733 114.194L63.1179 147.353C65.8577 152.149 71.6991 153.402 76.1651 150.153L118.761 119.165C123.227 115.916 124.626 109.394 121.886 104.599L102.942 71.4399C100.202 66.6445 94.3604 65.391 89.8944 68.64Z" fill="#FAFAFA"/>
<path d="M76.0009 112.566C77.1295 106.605 73.7622 100.741 68.4799 99.4673C63.1975 98.1937 58.0004 101.994 56.8718 107.954C55.7433 113.915 59.1106 119.78 64.3929 121.053C69.6753 122.327 74.8723 118.527 76.0009 112.566Z" fill="#2B4CB3"/>
<path opacity="0.1" d="M76.0009 112.566C77.1295 106.605 73.7622 100.741 68.4799 99.4673C63.1975 98.1937 58.0004 101.994 56.8718 107.954C55.7433 113.915 59.1106 119.78 64.3929 121.053C69.6753 122.327 74.8723 118.527 76.0009 112.566Z" fill="#FAFAFA"/>
<path d="M111.377 100.921C109.954 99.2 108.213 97.8535 106.277 96.9772C104.455 96.1522 102.502 95.763 100.542 95.8324C100.319 95.8402 100.125 95.7151 100.009 95.5244C98.2108 92.3388 95.4738 89.9716 92.2804 88.8402C89.087 87.7088 85.6422 87.8858 82.5531 89.3398C79.464 90.7939 76.9289 93.4318 75.3946 96.7886C74.0599 99.7088 73.5571 103.01 73.9368 106.244C74.0369 107.098 73.6054 107.929 72.9071 108.43C71.4786 109.469 70.3587 110.967 69.6915 112.731C68.5197 115.829 66.6918 119.125 64.7961 121.841C64.685 122.001 64.5776 122.164 64.4742 122.33C63.2904 124.173 62.6101 126.366 62.5169 128.639C62.4237 130.913 62.9218 133.167 63.9499 135.125C64.6573 136.43 65.5886 137.561 66.689 138.454C67.7893 139.346 69.0366 139.981 70.3576 140.322C71.6786 140.663 73.0467 140.703 74.3815 140.439C75.7163 140.175 76.9909 139.613 78.1305 138.786L95.06 126.466L110.544 115.203C112.26 113.974 113.479 112.032 113.937 109.798C114.395 107.563 114.057 105.215 112.994 103.26L112.945 103.182C112.486 102.375 111.961 101.618 111.377 100.921Z" fill="#2B4CB3"/>
<path opacity="0.3" d="M111.377 100.921C109.954 99.2 108.213 97.8535 106.277 96.9772C104.455 96.1522 102.502 95.763 100.542 95.8324C100.319 95.8402 100.125 95.7151 100.009 95.5244C98.2108 92.3388 95.4738 89.9716 92.2804 88.8402C89.087 87.7088 85.6422 87.8858 82.5531 89.3398C79.464 90.7939 76.9289 93.4318 75.3946 96.7886C74.0599 99.7088 73.5571 103.01 73.9368 106.244C74.0369 107.098 73.6054 107.929 72.9071 108.43C71.4786 109.469 70.3587 110.967 69.6915 112.731C68.5197 115.829 66.6918 119.125 64.7961 121.841C64.685 122.001 64.5776 122.164 64.4742 122.33C63.2904 124.173 62.6101 126.366 62.5169 128.639C62.4237 130.913 62.9218 133.167 63.9499 135.125C64.6573 136.43 65.5886 137.561 66.689 138.454C67.7893 139.346 69.0366 139.981 70.3576 140.322C71.6786 140.663 73.0467 140.703 74.3815 140.439C75.7163 140.175 76.9909 139.613 78.1305 138.786L95.06 126.466L110.544 115.203C112.26 113.974 113.479 112.032 113.937 109.798C114.395 107.563 114.057 105.215 112.994 103.26L112.945 103.182C112.486 102.375 111.961 101.618 111.377 100.921Z" fill="black"/>
<g style="mix-blend-mode:multiply">
<path d="M151.336 62.6536L89.9594 70.2509C84.4784 70.9294 80.4683 75.9355 81.0027 81.4325L87.501 148.281C88.0353 153.777 92.9118 157.684 98.3928 157.005L159.769 149.408C165.25 148.729 169.261 143.723 168.726 138.226L162.228 71.3782C161.694 65.8813 156.817 61.9751 151.336 62.6536Z" fill="#2B4CB3"/>
</g>
<path opacity="0.8" d="M151.336 62.6536L89.9594 70.2509C84.4784 70.9294 80.4683 75.9355 81.0027 81.4325L87.501 148.281C88.0353 153.777 92.9118 157.684 98.3928 157.005L159.769 149.408C165.25 148.729 169.261 143.723 168.726 138.226L162.228 71.3782C161.694 65.8813 156.817 61.9751 151.336 62.6536Z" fill="#FAFAFA"/>
<path d="M150.705 63.5382L89.3283 71.1356C83.8473 71.814 79.8372 76.8202 80.3716 82.3171L86.8699 149.165C87.4042 154.662 92.2807 158.568 97.7617 157.89L159.138 150.292C164.619 149.614 168.629 144.608 168.095 139.111L161.597 72.2628C161.062 66.7659 156.186 62.8598 150.705 63.5382Z" fill="#FAFAFA"/>
<path d="M145.506 71.0761L95.8482 77.2228C90.3672 77.9013 86.3571 82.9074 86.8915 88.4044L90.7653 128.254C91.2997 133.751 96.1761 137.658 101.657 136.979L151.315 130.832C156.796 130.154 160.806 125.148 160.271 119.651L156.398 79.8007C155.863 74.3038 150.987 70.3976 145.506 71.0761Z" fill="#2B4CB3"/>
<path opacity="0.8" d="M145.506 71.0761L95.8482 77.2228C90.3672 77.9013 86.3571 82.9074 86.8915 88.4044L90.7653 128.254C91.2997 133.751 96.1761 137.658 101.657 136.979L151.315 130.832C156.796 130.154 160.806 125.148 160.271 119.651L156.398 79.8007C155.863 74.3038 150.987 70.3976 145.506 71.0761Z" fill="#FAFAFA"/>
<path d="M160.571 126.998C160.868 127.268 161.055 127.639 161.094 128.039C161.177 128.909 160.554 129.687 159.687 129.795L139.431 132.304C134.064 132.969 130.523 126.872 133.76 122.541L136.01 119.527C139.537 114.803 146.363 114.139 150.734 118.095L160.571 126.998Z" fill="#2B4CB3"/>
<path opacity="0.3" d="M160.571 126.998C160.868 127.268 161.055 127.639 161.094 128.039C161.177 128.909 160.554 129.687 159.687 129.795L139.431 132.304C134.064 132.969 130.523 126.872 133.76 122.541L136.01 119.527C139.537 114.803 146.363 114.139 150.734 118.095L160.571 126.998Z" fill="black"/>
<path d="M133.76 122.541C138.084 125.823 136.233 132.698 130.846 133.365L95.1901 137.778C93.3006 138.012 91.5898 136.643 91.4043 134.748C91.3196 133.883 91.5709 133.018 92.1062 132.333L106.345 114.113C109.712 109.805 115.914 109 120.269 112.304L133.76 122.541Z" fill="#2B4CB3"/>
<path opacity="0.3" d="M133.76 122.541C138.084 125.823 136.233 132.698 130.846 133.365L95.1901 137.778C93.3006 138.012 91.5898 136.643 91.4043 134.748C91.3196 133.883 91.5709 133.018 92.1062 132.333L106.345 114.113C109.712 109.805 115.914 109 120.269 112.304L133.76 122.541Z" fill="black"/>
<path d="M138.992 92.0476C139.183 86.8943 135.635 82.5424 131.068 82.3273C126.501 82.1122 122.645 86.1154 122.454 91.2687C122.264 96.422 125.811 100.774 130.378 100.989C134.945 101.204 138.801 97.2009 138.992 92.0476Z" fill="#2B4CB3"/>
<path opacity="0.1" d="M138.992 92.0476C139.183 86.8943 135.635 82.5424 131.068 82.3273C126.501 82.1122 122.645 86.1154 122.454 91.2687C122.264 96.422 125.811 100.774 130.378 100.989C134.945 101.204 138.801 97.2009 138.992 92.0476Z" fill="#FAFAFA"/>
<g style="mix-blend-mode:multiply" opacity="0.7">
<path d="M120.957 108.585C121.29 106.207 123.304 104.515 125.817 104.515H175.459C178.434 104.515 181.07 106.865 181.339 109.762L187.993 194.494C188.273 197.391 186.083 199.741 183.094 199.741H58.6335C55.6543 199.741 53.0181 197.391 52.7535 194.494L47.4076 123.337C47.1283 120.44 49.3137 118.095 52.3076 118.095H109.638C115.469 118.095 120.177 114.153 120.957 108.585Z" fill="#2B4CB3"/>
</g>
<path d="M182.786 80.3323C181.943 79.7077 180.839 79.5584 179.861 79.9366L177.762 80.7475C177.597 80.8116 177.442 80.9004 177.303 81.0109C176.268 81.8337 176.48 83.4617 177.691 83.9921L178.862 84.5052C179.275 84.6858 179.728 84.7555 180.168 84.6615C180.915 84.5021 182.146 84.1573 183.164 83.4789C184.315 82.7111 183.898 81.1562 182.786 80.3323Z" fill="#E4897B"/>
</svg>
