<svg width="136" height="125" viewBox="0 0 136 125" fill="none" xmlns="http://www.w3.org/2000/svg">
<path d="M24.8 82.9C21.2667 82.9 17.8667 82.3667 14.6 81.3C11.4 80.3 8.8 78.6 6.8 76.2C4.8 73.8 3.8 70.5667 3.8 66.5C3.8 62.1667 4.63333 57.9333 6.3 53.8C7.96667 49.6667 10.2 45.8333 13 42.3C15.8 38.7 18.9333 35.6 22.4 33C25.4667 30.6667 29 28.7667 33 27.3C37.0667 25.8333 41.1 25.1 45.1 25.1C46.7667 25.1 48.3333 25.2333 49.8 25.5C51.2667 25.7 52.7667 26.1667 54.3 26.9C55.6333 27.5 56.7 28.2667 57.5 29.2C58.3 30.0667 58.7 31.0667 58.7 32.2C58.7 32.3333 58.7 32.5 58.7 32.7C58.7 32.9 58.6667 33.0667 58.6 33.2C58.3333 34.2667 57.7 35.5 56.7 36.9C55.7667 38.2333 55.0333 39.6333 54.5 41.1C54.4333 41.3667 54.0667 41.6 53.4 41.8C52.7333 41.9333 52.4667 41.8667 52.6 41.6C53.1333 40.7333 53.5333 39.6667 53.8 38.4C54.1333 37.1333 54.3 35.8667 54.3 34.6C54.3 33.6667 54.2 32.8 54 32C53.8667 31.1333 53.6 30.4 53.2 29.8C52.5333 28.6 51.5 27.7667 50.1 27.3C48.7 26.8333 47.2 26.6 45.6 26.6C44.0667 26.6 42.5333 26.7667 41 27.1C39.4667 27.4333 38.1333 27.8 37 28.2C33.1333 29.6 29.4333 31.8 25.9 34.8C22.7667 37.5333 19.9667 40.7 17.5 44.3C15.1 47.9 13.2 51.6 11.8 55.4C10.4 59.2 9.7 62.8333 9.7 66.3C9.7 69.8333 10.4667 72.6333 12 74.7C13.5333 76.7667 15.5333 78.2333 18 79.1C20.4667 79.9667 23.1333 80.4 26 80.4C28.5333 80.4 31.0333 80.1333 33.5 79.6C36.0333 79.0667 38.3333 78.4 40.4 77.6C43.9333 76.2667 47.1 74.6333 49.9 72.7C52.7667 70.7667 55.4333 68.2667 57.9 65.2C58.2333 64.8667 58.4667 64.7 58.6 64.7C58.8 64.7 58.9 64.8333 58.9 65.1C58.9 65.6333 58.6333 66.2667 58.1 67C55.8333 70.0667 53.2667 72.6333 50.4 74.7C47.5333 76.7667 44.4667 78.4667 41.2 79.8C39 80.6667 36.4333 81.4 33.5 82C30.6333 82.6 27.7333 82.9 24.8 82.9Z" fill="white"/>
<path d="M63.9304 47.3196C63.0663 47.3196 62.2821 47.1568 61.5778 46.8313C60.8735 46.4999 60.3142 46.0234 59.8999 45.402C59.4856 44.7746 59.2784 44.017 59.2784 43.1293C59.2784 42.348 59.4323 41.7147 59.7401 41.2294C60.0478 40.7382 60.4592 40.3535 60.9741 40.0753C61.489 39.7971 62.0572 39.59 62.6786 39.4538C63.306 39.3118 63.9363 39.1993 64.5696 39.1165C65.3982 39.0099 66.07 38.93 66.5849 38.8768C67.1057 38.8176 67.4845 38.7199 67.7212 38.5838C67.9639 38.4477 68.0852 38.2109 68.0852 37.8736V37.8026C68.0852 36.9266 67.8455 36.246 67.3661 35.7607C66.8926 35.2753 66.1735 35.0327 65.2088 35.0327C64.2086 35.0327 63.4244 35.2517 62.8562 35.6896C62.288 36.1276 61.8885 36.5952 61.6577 37.0923L59.669 36.3821C60.0241 35.5535 60.4976 34.9084 61.0895 34.4467C61.6873 33.9792 62.3383 33.6536 63.0426 33.4702C63.7528 33.2808 64.4512 33.1861 65.1378 33.1861C65.5758 33.1861 66.0788 33.2393 66.647 33.3459C67.2211 33.4465 67.7745 33.6566 68.3072 33.9762C68.8458 34.2958 69.2926 34.7782 69.6477 35.4233C70.0028 36.0684 70.1804 36.9325 70.1804 38.0156V47H68.0852V45.1534H67.9787C67.8366 45.4493 67.5999 45.766 67.2685 46.1033C66.937 46.4407 66.4961 46.7277 65.9457 46.9645C65.3952 47.2012 64.7235 47.3196 63.9304 47.3196ZM64.25 45.4375C65.0786 45.4375 65.777 45.2747 66.3452 44.9492C66.9193 44.6237 67.3513 44.2035 67.6413 43.6886C67.9373 43.1737 68.0852 42.6321 68.0852 42.0639V40.1463C67.9964 40.2528 67.8011 40.3505 67.4993 40.4393C67.2034 40.5221 66.8601 40.5961 66.4695 40.6612C66.0848 40.7204 65.7089 40.7737 65.342 40.821C64.9809 40.8625 64.688 40.898 64.4631 40.9276C63.9186 40.9986 63.4096 41.114 62.9361 41.2738C62.4685 41.4277 62.0897 41.6615 61.7997 41.9751C61.5156 42.2829 61.3736 42.7031 61.3736 43.2358C61.3736 43.9638 61.6429 44.5142 62.1815 44.8871C62.726 45.254 63.4155 45.4375 64.25 45.4375ZM74.0045 47V33.3636H76.0287V35.4233H76.1707C76.4193 34.7486 76.8691 34.2011 77.5202 33.7809C78.1712 33.3607 78.9051 33.1506 79.7219 33.1506C79.8757 33.1506 80.0681 33.1535 80.2989 33.1594C80.5297 33.1654 80.7043 33.1742 80.8227 33.1861V35.3168C80.7517 35.299 80.5889 35.2724 80.3344 35.2369C80.0858 35.1954 79.8225 35.1747 79.5443 35.1747C78.8814 35.1747 78.2896 35.3138 77.7687 35.592C77.2538 35.8642 76.8454 36.243 76.5436 36.7283C76.2477 37.2077 76.0997 37.7552 76.0997 38.3707V47H74.0045Z" fill="white"/>
<path d="M65.8125 70H60.2017V51.8182H66.0611C67.8248 51.8182 69.334 52.1822 70.5888 52.9102C71.8435 53.6322 72.8053 54.6709 73.4741 56.0263C74.1429 57.3757 74.4773 58.9915 74.4773 60.8736C74.4773 62.7675 74.1399 64.3981 73.4652 65.7653C72.7905 67.1265 71.808 68.1741 70.5178 68.908C69.2275 69.636 67.6591 70 65.8125 70ZM62.4034 68.0469H65.6705C67.1738 68.0469 68.4196 67.7569 69.408 67.1768C70.3964 66.5968 71.1333 65.7712 71.6186 64.6999C72.1039 63.6287 72.3466 62.3532 72.3466 60.8736C72.3466 59.4058 72.1069 58.1422 71.6275 57.0827C71.1481 56.0174 70.4319 55.2006 69.479 54.6325C68.5262 54.0584 67.3395 53.7713 65.919 53.7713H62.4034V68.0469ZM81.8991 70.3196C81.035 70.3196 80.2508 70.1568 79.5465 69.8313C78.8422 69.4999 78.2829 69.0234 77.8686 68.402C77.4543 67.7746 77.2472 67.017 77.2472 66.1293C77.2472 65.348 77.401 64.7147 77.7088 64.2294C78.0166 63.7382 78.4279 63.3535 78.9428 63.0753C79.4577 62.7971 80.0259 62.59 80.6474 62.4538C81.2747 62.3118 81.9051 62.1993 82.5384 62.1165C83.367 62.0099 84.0387 61.93 84.5536 61.8768C85.0745 61.8176 85.4532 61.7199 85.69 61.5838C85.9326 61.4477 86.054 61.2109 86.054 60.8736V60.8026C86.054 59.9266 85.8143 59.246 85.3349 58.7607C84.8614 58.2753 84.1423 58.0327 83.1776 58.0327C82.1773 58.0327 81.3931 58.2517 80.8249 58.6896C80.2567 59.1276 79.8572 59.5952 79.6264 60.0923L77.6378 59.3821C77.9929 58.5535 78.4664 57.9084 79.0582 57.4467C79.656 56.9792 80.3071 56.6536 81.0114 56.4702C81.7216 56.2808 82.42 56.1861 83.1065 56.1861C83.5445 56.1861 84.0476 56.2393 84.6158 56.3459C85.1899 56.4465 85.7433 56.6566 86.2759 56.9762C86.8145 57.2958 87.2614 57.7782 87.6165 58.4233C87.9716 59.0684 88.1491 59.9325 88.1491 61.0156V70H86.054V68.1534H85.9474C85.8054 68.4493 85.5687 68.766 85.2372 69.1033C84.9058 69.4407 84.4648 69.7277 83.9144 69.9645C83.364 70.2012 82.6922 70.3196 81.8991 70.3196ZM82.2188 68.4375C83.0473 68.4375 83.7457 68.2747 84.3139 67.9492C84.888 67.6237 85.3201 67.2035 85.6101 66.6886C85.906 66.1737 86.054 65.6321 86.054 65.0639V63.1463C85.9652 63.2528 85.7699 63.3505 85.468 63.4393C85.1721 63.5221 84.8288 63.5961 84.4382 63.6612C84.0535 63.7204 83.6777 63.7737 83.3107 63.821C82.9497 63.8625 82.6567 63.898 82.4318 63.9276C81.8873 63.9986 81.3783 64.114 80.9048 64.2738C80.4373 64.4277 80.0585 64.6615 79.7685 64.9751C79.4844 65.2829 79.3423 65.7031 79.3423 66.2358C79.3423 66.9638 79.6116 67.5142 80.1502 67.8871C80.6947 68.254 81.3842 68.4375 82.2188 68.4375ZM97.9037 56.3636V58.1392H90.8369V56.3636H97.9037ZM92.8966 53.0966H94.9917V66.0938C94.9917 66.6856 95.0776 67.1295 95.2492 67.4254C95.4268 67.7154 95.6517 67.9107 95.9239 68.0114C96.2021 68.1061 96.4951 68.1534 96.8028 68.1534C97.0336 68.1534 97.223 68.1416 97.371 68.1179C97.519 68.0883 97.6373 68.0646 97.7261 68.0469L98.1523 69.929C98.0102 69.9822 97.8119 70.0355 97.5574 70.0888C97.3029 70.148 96.9804 70.1776 96.5898 70.1776C95.9979 70.1776 95.4179 70.0503 94.8497 69.7958C94.2874 69.5413 93.8199 69.1536 93.447 68.6328C93.08 68.112 92.8966 67.455 92.8966 66.6619V53.0966ZM109.649 64.4247V56.3636H111.744V70H109.649V67.6918H109.507C109.187 68.3842 108.69 68.9731 108.016 69.4585C107.341 69.9379 106.489 70.1776 105.459 70.1776C104.606 70.1776 103.849 69.9911 103.186 69.6183C102.523 69.2395 102.002 68.6713 101.623 67.9137C101.245 67.1502 101.055 66.1884 101.055 65.0284V56.3636H103.15V64.8864C103.15 65.8807 103.429 66.6738 103.985 67.2656C104.547 67.8575 105.263 68.1534 106.133 68.1534C106.654 68.1534 107.184 68.0202 107.723 67.7539C108.267 67.4876 108.723 67.0792 109.09 66.5288C109.463 65.9783 109.649 65.277 109.649 64.4247ZM115.582 70V56.3636H117.606V58.4943H117.783C118.067 57.7663 118.526 57.2011 119.159 56.7987C119.793 56.3903 120.553 56.1861 121.441 56.1861C122.341 56.1861 123.089 56.3903 123.687 56.7987C124.291 57.2011 124.761 57.7663 125.099 58.4943H125.241C125.59 57.79 126.114 57.2307 126.812 56.8164C127.511 56.3962 128.348 56.1861 129.325 56.1861C130.544 56.1861 131.541 56.5678 132.316 57.3313C133.092 58.0889 133.479 59.2696 133.479 60.8736V70H131.384V60.8736C131.384 59.8674 131.109 59.1483 130.559 58.7163C130.008 58.2842 129.36 58.0682 128.614 58.0682C127.656 58.0682 126.913 58.3582 126.386 58.9382C125.859 59.5123 125.596 60.2403 125.596 61.1222V70H123.465V60.6605C123.465 59.8852 123.214 59.2608 122.711 58.7873C122.208 58.3079 121.559 58.0682 120.766 58.0682C120.222 58.0682 119.713 58.2132 119.239 58.5032C118.772 58.7932 118.393 59.1957 118.103 59.7106C117.819 60.2196 117.677 60.8085 117.677 61.4773V70H115.582Z" fill="white"/>
</svg>
